%TF.GenerationSoftware,Altium Limited,DefaultClient, ()*%
G04 Layer_Physical_Order=2*
G04 Layer_Color=36540*
%FSLAX45Y45*%
%MOMM*%
%TF.SameCoordinates,AE975085-364B-4CEB-9B6D-173D2EE7C3AA*%
%TF.FilePolarity,Positive*%
%TF.FileFunction,Copper,L2,Inr,Signal*%
%TF.Part,Single*%
G01*
G75*
%TA.AperFunction,ComponentPad*%
%ADD59C,3.55600*%
%ADD60C,2.03200*%
%ADD61C,2.45000*%
%ADD62R,2.45000X2.45000*%
%ADD63R,1.30000X1.30000*%
%ADD64C,1.30000*%
G04:AMPARAMS|DCode=65|XSize=1.95mm|YSize=1.95mm|CornerRadius=0.4875mm|HoleSize=0mm|Usage=FLASHONLY|Rotation=90.000|XOffset=0mm|YOffset=0mm|HoleType=Round|Shape=RoundedRectangle|*
%AMROUNDEDRECTD65*
21,1,1.95000,0.97500,0,0,90.0*
21,1,0.97500,1.95000,0,0,90.0*
1,1,0.97500,0.48750,0.48750*
1,1,0.97500,0.48750,-0.48750*
1,1,0.97500,-0.48750,-0.48750*
1,1,0.97500,-0.48750,0.48750*
%
%ADD65ROUNDEDRECTD65*%
%ADD66C,1.95000*%
%ADD67C,1.60000*%
G04:AMPARAMS|DCode=68|XSize=1.6mm|YSize=1.6mm|CornerRadius=0.4mm|HoleSize=0mm|Usage=FLASHONLY|Rotation=180.000|XOffset=0mm|YOffset=0mm|HoleType=Round|Shape=RoundedRectangle|*
%AMROUNDEDRECTD68*
21,1,1.60000,0.80000,0,0,180.0*
21,1,0.80000,1.60000,0,0,180.0*
1,1,0.80000,-0.40000,0.40000*
1,1,0.80000,0.40000,0.40000*
1,1,0.80000,0.40000,-0.40000*
1,1,0.80000,-0.40000,-0.40000*
%
%ADD68ROUNDEDRECTD68*%
%TA.AperFunction,ViaPad*%
%ADD69C,3.50000*%
%ADD70C,0.55880*%
G36*
X14813280Y8681720D02*
Y5628640D01*
X15311121Y5130800D01*
Y3116580D01*
X14813280Y2618740D01*
X14813280Y-419100D01*
X14330679Y-901700D01*
X13395959D01*
X12900661Y-406400D01*
Y858519D01*
X12364720Y1394460D01*
X7272020D01*
X6766560Y1899920D01*
X5704840D01*
X5166360Y1361440D01*
Y106680D01*
X4686300Y-373380D01*
X162560D01*
X-304800Y93980D01*
Y2578100D01*
X195580Y3078480D01*
Y5173980D01*
X-304800Y5674360D01*
Y8176260D01*
X160020Y8641080D01*
X4693920D01*
X5166361Y8168639D01*
Y6901179D01*
X5699760Y6367780D01*
X6766560D01*
X7279640Y6880860D01*
X12367259D01*
X12900661Y7414260D01*
Y8689340D01*
X13365480Y9154160D01*
X14340840D01*
X14813280Y8681720D01*
D02*
G37*
%LPC*%
G36*
X14174699Y8472700D02*
X14019299D01*
Y8317300D01*
X14174699D01*
Y8472700D01*
D02*
G37*
G36*
X14361229Y8192700D02*
X14340771D01*
X14321008Y8187405D01*
X14303291Y8177175D01*
X14288824Y8162709D01*
X14278595Y8144991D01*
X14273300Y8125229D01*
Y8104771D01*
X14278595Y8085009D01*
X14288824Y8067291D01*
X14303291Y8052825D01*
X14321008Y8042595D01*
X14340771Y8037300D01*
X14361229D01*
X14380991Y8042595D01*
X14398709Y8052825D01*
X14413174Y8067291D01*
X14423405Y8085009D01*
X14428700Y8104771D01*
Y8125229D01*
X14423405Y8144991D01*
X14413174Y8162709D01*
X14398709Y8177175D01*
X14380991Y8187405D01*
X14361229Y8192700D01*
D02*
G37*
G36*
X14107230D02*
X14086771D01*
X14067009Y8187405D01*
X14049290Y8177175D01*
X14034825Y8162709D01*
X14024596Y8144991D01*
X14019299Y8125229D01*
Y8104771D01*
X14024596Y8085009D01*
X14034825Y8067291D01*
X14049290Y8052825D01*
X14067009Y8042595D01*
X14086771Y8037300D01*
X14107230D01*
X14126991Y8042595D01*
X14144708Y8052825D01*
X14159175Y8067291D01*
X14169405Y8085009D01*
X14174699Y8104771D01*
Y8125229D01*
X14169405Y8144991D01*
X14159175Y8162709D01*
X14144708Y8177175D01*
X14126991Y8187405D01*
X14107230Y8192700D01*
D02*
G37*
G36*
X10233084Y6815640D02*
X10216916D01*
X10201979Y6809453D01*
X10190547Y6798021D01*
X10184360Y6783084D01*
Y6766916D01*
X10190547Y6751979D01*
X10201979Y6740547D01*
X10216916Y6734360D01*
X10233084D01*
X10248021Y6740547D01*
X10259453Y6751979D01*
X10265640Y6766916D01*
Y6783084D01*
X10259453Y6798021D01*
X10248021Y6809453D01*
X10233084Y6815640D01*
D02*
G37*
G36*
X9983084D02*
X9966916D01*
X9951979Y6809453D01*
X9940547Y6798021D01*
X9934360Y6783084D01*
Y6766916D01*
X9940547Y6751979D01*
X9951979Y6740547D01*
X9966916Y6734360D01*
X9983084D01*
X9998021Y6740547D01*
X10009453Y6751979D01*
X10015640Y6766916D01*
Y6783084D01*
X10009453Y6798021D01*
X9998021Y6809453D01*
X9983084Y6815640D01*
D02*
G37*
G36*
X7983084Y6790640D02*
X7966916D01*
X7951979Y6784453D01*
X7940547Y6773021D01*
X7934360Y6758084D01*
Y6741916D01*
X7940547Y6726979D01*
X7951979Y6715547D01*
X7966916Y6709360D01*
X7983084D01*
X7998021Y6715547D01*
X8009453Y6726979D01*
X8015640Y6741916D01*
Y6758084D01*
X8009453Y6773021D01*
X7998021Y6784453D01*
X7983084Y6790640D01*
D02*
G37*
G36*
X7883084D02*
X7866916D01*
X7851979Y6784453D01*
X7840547Y6773021D01*
X7834360Y6758084D01*
Y6741916D01*
X7840547Y6726979D01*
X7851979Y6715547D01*
X7866916Y6709360D01*
X7883084D01*
X7898021Y6715547D01*
X7909453Y6726979D01*
X7915640Y6741916D01*
Y6758084D01*
X7909453Y6773021D01*
X7898021Y6784453D01*
X7883084Y6790640D01*
D02*
G37*
G36*
X11565084Y6770640D02*
X11548916D01*
X11533979Y6764453D01*
X11522547Y6753021D01*
X11516360Y6738084D01*
Y6721916D01*
X11522547Y6706979D01*
X11533979Y6695547D01*
X11548916Y6689360D01*
X11565084D01*
X11580021Y6695547D01*
X11591453Y6706979D01*
X11597640Y6721916D01*
Y6738084D01*
X11591453Y6753021D01*
X11580021Y6764453D01*
X11565084Y6770640D01*
D02*
G37*
G36*
X11130744D02*
X11114576D01*
X11099639Y6764453D01*
X11088207Y6753021D01*
X11082020Y6738084D01*
Y6721916D01*
X11088207Y6706979D01*
X11099639Y6695547D01*
X11114576Y6689360D01*
X11130744D01*
X11145681Y6695547D01*
X11157113Y6706979D01*
X11163300Y6721916D01*
Y6738084D01*
X11157113Y6753021D01*
X11145681Y6764453D01*
X11130744Y6770640D01*
D02*
G37*
G36*
X10726884D02*
X10710716D01*
X10695779Y6764453D01*
X10684347Y6753021D01*
X10678160Y6738084D01*
Y6721916D01*
X10684347Y6706979D01*
X10695779Y6695547D01*
X10710716Y6689360D01*
X10726884D01*
X10741821Y6695547D01*
X10753253Y6706979D01*
X10759440Y6721916D01*
Y6738084D01*
X10753253Y6753021D01*
X10741821Y6764453D01*
X10726884Y6770640D01*
D02*
G37*
G36*
X9474664D02*
X9458496D01*
X9443559Y6764453D01*
X9432127Y6753021D01*
X9425940Y6738084D01*
Y6721916D01*
X9432127Y6706979D01*
X9443559Y6695547D01*
X9458496Y6689360D01*
X9474664D01*
X9489601Y6695547D01*
X9501033Y6706979D01*
X9507220Y6721916D01*
Y6738084D01*
X9501033Y6753021D01*
X9489601Y6764453D01*
X9474664Y6770640D01*
D02*
G37*
G36*
X9027624D02*
X9011456D01*
X8996519Y6764453D01*
X8985087Y6753021D01*
X8978900Y6738084D01*
Y6721916D01*
X8985087Y6706979D01*
X8996519Y6695547D01*
X9011456Y6689360D01*
X9027624D01*
X9042561Y6695547D01*
X9053993Y6706979D01*
X9060180Y6721916D01*
Y6738084D01*
X9053993Y6753021D01*
X9042561Y6764453D01*
X9027624Y6770640D01*
D02*
G37*
G36*
X14174699Y6821700D02*
X14019299D01*
Y6666300D01*
X14174699D01*
Y6821700D01*
D02*
G37*
G36*
X10358084Y6640640D02*
X10341916D01*
X10326979Y6634453D01*
X10315547Y6623021D01*
X10309360Y6608084D01*
Y6591916D01*
X10315547Y6576979D01*
X10326979Y6565547D01*
X10341916Y6559360D01*
X10358084D01*
X10373021Y6565547D01*
X10384453Y6576979D01*
X10390640Y6591916D01*
Y6608084D01*
X10384453Y6623021D01*
X10373021Y6634453D01*
X10358084Y6640640D01*
D02*
G37*
G36*
X9858084D02*
X9841916D01*
X9826979Y6634453D01*
X9815547Y6623021D01*
X9809360Y6608084D01*
Y6591916D01*
X9815547Y6576979D01*
X9826979Y6565547D01*
X9841916Y6559360D01*
X9858084D01*
X9873021Y6565547D01*
X9884453Y6576979D01*
X9890640Y6591916D01*
Y6608084D01*
X9884453Y6623021D01*
X9873021Y6634453D01*
X9858084Y6640640D01*
D02*
G37*
G36*
X14361229Y6541700D02*
X14340771D01*
X14321008Y6536405D01*
X14303291Y6526175D01*
X14288824Y6511709D01*
X14278595Y6493991D01*
X14273300Y6474229D01*
Y6453771D01*
X14278595Y6434009D01*
X14288824Y6416291D01*
X14303291Y6401825D01*
X14321008Y6391595D01*
X14340771Y6386300D01*
X14361229D01*
X14380991Y6391595D01*
X14398709Y6401825D01*
X14413174Y6416291D01*
X14423405Y6434009D01*
X14428700Y6453771D01*
Y6474229D01*
X14423405Y6493991D01*
X14413174Y6511709D01*
X14398709Y6526175D01*
X14380991Y6536405D01*
X14361229Y6541700D01*
D02*
G37*
G36*
X14107230D02*
X14086771D01*
X14067009Y6536405D01*
X14049290Y6526175D01*
X14034825Y6511709D01*
X14024596Y6493991D01*
X14019299Y6474229D01*
Y6453771D01*
X14024596Y6434009D01*
X14034825Y6416291D01*
X14049290Y6401825D01*
X14067009Y6391595D01*
X14086771Y6386300D01*
X14107230D01*
X14126991Y6391595D01*
X14144708Y6401825D01*
X14159175Y6416291D01*
X14169405Y6434009D01*
X14174699Y6453771D01*
Y6474229D01*
X14169405Y6493991D01*
X14159175Y6511709D01*
X14144708Y6526175D01*
X14126991Y6536405D01*
X14107230Y6541700D01*
D02*
G37*
G36*
X10315404Y6426200D02*
X10299236D01*
X10284299Y6420013D01*
X10272867Y6408581D01*
X10266680Y6393644D01*
Y6377476D01*
X10272867Y6362539D01*
X10284299Y6351107D01*
X10299236Y6344920D01*
X10315404D01*
X10330341Y6351107D01*
X10341773Y6362539D01*
X10347960Y6377476D01*
Y6393644D01*
X10341773Y6408581D01*
X10330341Y6420013D01*
X10315404Y6426200D01*
D02*
G37*
G36*
X9916624Y6421120D02*
X9900456D01*
X9885519Y6414933D01*
X9874087Y6403501D01*
X9867900Y6388564D01*
Y6372396D01*
X9874087Y6357459D01*
X9885519Y6346027D01*
X9900456Y6339840D01*
X9916624D01*
X9931561Y6346027D01*
X9942993Y6357459D01*
X9949180Y6372396D01*
Y6388564D01*
X9942993Y6403501D01*
X9931561Y6414933D01*
X9916624Y6421120D01*
D02*
G37*
G36*
X10114744Y6256020D02*
X10098576D01*
X10083639Y6249833D01*
X10072207Y6238401D01*
X10066020Y6223464D01*
Y6207296D01*
X10072207Y6192359D01*
X10083639Y6180927D01*
X10098576Y6174740D01*
X10114744D01*
X10129681Y6180927D01*
X10141113Y6192359D01*
X10147300Y6207296D01*
Y6223464D01*
X10141113Y6238401D01*
X10129681Y6249833D01*
X10114744Y6256020D01*
D02*
G37*
G36*
X247708Y6381200D02*
X218692D01*
X190664Y6373690D01*
X165536Y6359182D01*
X145018Y6338664D01*
X130510Y6313536D01*
X123000Y6285508D01*
Y6256492D01*
X130510Y6228464D01*
X145018Y6203336D01*
X165536Y6182818D01*
X190664Y6168310D01*
X218692Y6160800D01*
X247708D01*
X275736Y6168310D01*
X300864Y6182818D01*
X321382Y6203336D01*
X335890Y6228464D01*
X343400Y6256492D01*
Y6285508D01*
X335890Y6313536D01*
X321382Y6338664D01*
X300864Y6359182D01*
X275736Y6373690D01*
X247708Y6381200D01*
D02*
G37*
G36*
X8958084Y5965640D02*
X8941916D01*
X8926979Y5959453D01*
X8915547Y5948021D01*
X8909360Y5933084D01*
Y5916916D01*
X8915547Y5901979D01*
X8926979Y5890547D01*
X8941916Y5884360D01*
X8958084D01*
X8973021Y5890547D01*
X8984453Y5901979D01*
X8990640Y5916916D01*
Y5933084D01*
X8984453Y5948021D01*
X8973021Y5959453D01*
X8958084Y5965640D01*
D02*
G37*
G36*
X281950Y6032404D02*
X184450D01*
X160473Y6027635D01*
X140147Y6014053D01*
X126565Y5993727D01*
X121796Y5969750D01*
Y5872250D01*
X126565Y5848274D01*
X140147Y5827947D01*
X160473Y5814366D01*
X184450Y5809596D01*
X281950D01*
X305926Y5814366D01*
X326253Y5827947D01*
X339834Y5848274D01*
X344604Y5872250D01*
Y5969750D01*
X339834Y5993727D01*
X326253Y6014053D01*
X305926Y6027635D01*
X281950Y6032404D01*
D02*
G37*
G36*
X2377904Y5755640D02*
X2361736D01*
X2346799Y5749453D01*
X2335367Y5738021D01*
X2329180Y5723084D01*
Y5706916D01*
X2335367Y5691979D01*
X2346799Y5680547D01*
X2361736Y5674360D01*
X2377904D01*
X2392841Y5680547D01*
X2404273Y5691979D01*
X2410460Y5706916D01*
Y5723084D01*
X2404273Y5738021D01*
X2392841Y5749453D01*
X2377904Y5755640D01*
D02*
G37*
G36*
X2583644Y5618480D02*
X2567476D01*
X2552539Y5612293D01*
X2541107Y5600861D01*
X2534920Y5585924D01*
Y5569756D01*
X2541107Y5554819D01*
X2552539Y5543387D01*
X2567476Y5537200D01*
X2583644D01*
X2598581Y5543387D01*
X2610013Y5554819D01*
X2616200Y5569756D01*
Y5585924D01*
X2610013Y5600861D01*
X2598581Y5612293D01*
X2583644Y5618480D01*
D02*
G37*
G36*
X2487124Y5501640D02*
X2470956D01*
X2456019Y5495453D01*
X2444587Y5484021D01*
X2438400Y5469084D01*
Y5452916D01*
X2444587Y5437979D01*
X2456019Y5426547D01*
X2470956Y5420360D01*
X2487124D01*
X2502061Y5426547D01*
X2513493Y5437979D01*
X2519680Y5452916D01*
Y5469084D01*
X2513493Y5484021D01*
X2502061Y5495453D01*
X2487124Y5501640D01*
D02*
G37*
G36*
X8714467Y5425440D02*
X8698300D01*
X8683363Y5419253D01*
X8671930Y5407821D01*
X8665743Y5392884D01*
Y5376716D01*
X8671930Y5361779D01*
X8683363Y5350347D01*
X8698300Y5344160D01*
X8714467D01*
X8729404Y5350347D01*
X8740836Y5361779D01*
X8747023Y5376716D01*
Y5392884D01*
X8740836Y5407821D01*
X8729404Y5419253D01*
X8714467Y5425440D01*
D02*
G37*
G36*
X8422448Y5499100D02*
X8392352D01*
X8363282Y5491311D01*
X8337218Y5476263D01*
X8315937Y5454982D01*
X8300889Y5428918D01*
X8293100Y5399848D01*
Y5369752D01*
X8300889Y5340682D01*
X8315937Y5314618D01*
X8337218Y5293337D01*
X8363282Y5278289D01*
X8392352Y5270500D01*
X8422448D01*
X8451518Y5278289D01*
X8477582Y5293337D01*
X8498863Y5314618D01*
X8513911Y5340682D01*
X8521700Y5369752D01*
Y5399848D01*
X8513911Y5428918D01*
X8498863Y5454982D01*
X8477582Y5476263D01*
X8451518Y5491311D01*
X8422448Y5499100D01*
D02*
G37*
G36*
X8720284Y5171440D02*
X8704116D01*
X8689179Y5165253D01*
X8677747Y5153821D01*
X8671560Y5138884D01*
Y5122716D01*
X8677747Y5107779D01*
X8689179Y5096347D01*
X8704116Y5090160D01*
X8720284D01*
X8735221Y5096347D01*
X8746653Y5107779D01*
X8752840Y5122716D01*
Y5138884D01*
X8746653Y5153821D01*
X8735221Y5165253D01*
X8720284Y5171440D01*
D02*
G37*
G36*
X14174699Y5183700D02*
X14019299D01*
Y5028300D01*
X14174699D01*
Y5183700D01*
D02*
G37*
G36*
X8422448Y5245100D02*
X8392352D01*
X8363282Y5237311D01*
X8337218Y5222263D01*
X8315937Y5200982D01*
X8300889Y5174918D01*
X8293100Y5145848D01*
Y5115752D01*
X8300889Y5086682D01*
X8315937Y5060618D01*
X8337218Y5039337D01*
X8363282Y5024289D01*
X8392352Y5016500D01*
X8422448D01*
X8451518Y5024289D01*
X8477582Y5039337D01*
X8498863Y5060618D01*
X8513911Y5086682D01*
X8521700Y5115752D01*
Y5145848D01*
X8513911Y5174918D01*
X8498863Y5200982D01*
X8477582Y5222263D01*
X8451518Y5237311D01*
X8422448Y5245100D01*
D02*
G37*
G36*
Y4991100D02*
X8392352D01*
X8363282Y4983311D01*
X8337218Y4968263D01*
X8315937Y4946982D01*
X8300889Y4920918D01*
X8293100Y4891848D01*
Y4861752D01*
X8300889Y4832682D01*
X8315937Y4806618D01*
X8337218Y4785337D01*
X8363282Y4770289D01*
X8392352Y4762500D01*
X8422448D01*
X8451518Y4770289D01*
X8477582Y4785337D01*
X8498863Y4806618D01*
X8513911Y4832682D01*
X8521700Y4861752D01*
Y4891848D01*
X8513911Y4920918D01*
X8498863Y4946982D01*
X8477582Y4968263D01*
X8451518Y4983311D01*
X8422448Y4991100D01*
D02*
G37*
G36*
X14361229Y4903700D02*
X14340771D01*
X14321008Y4898405D01*
X14303291Y4888175D01*
X14288824Y4873709D01*
X14278595Y4855991D01*
X14273300Y4836229D01*
Y4815771D01*
X14278595Y4796009D01*
X14288824Y4778291D01*
X14303291Y4763825D01*
X14321008Y4753595D01*
X14340771Y4748300D01*
X14361229D01*
X14380991Y4753595D01*
X14398709Y4763825D01*
X14413174Y4778291D01*
X14423405Y4796009D01*
X14428700Y4815771D01*
Y4836229D01*
X14423405Y4855991D01*
X14413174Y4873709D01*
X14398709Y4888175D01*
X14380991Y4898405D01*
X14361229Y4903700D01*
D02*
G37*
G36*
X14107230Y4903700D02*
X14086771D01*
X14067009Y4898404D01*
X14049290Y4888175D01*
X14034825Y4873709D01*
X14024596Y4855991D01*
X14019299Y4836229D01*
Y4815770D01*
X14024596Y4796009D01*
X14034825Y4778291D01*
X14049290Y4763824D01*
X14067009Y4753595D01*
X14086771Y4748300D01*
X14107230D01*
X14126991Y4753595D01*
X14144708Y4763824D01*
X14159175Y4778291D01*
X14169405Y4796009D01*
X14174699Y4815770D01*
Y4836229D01*
X14169405Y4855991D01*
X14159175Y4873709D01*
X14144708Y4888175D01*
X14126991Y4898404D01*
X14107230Y4903700D01*
D02*
G37*
G36*
X12464487Y5054340D02*
X12427513D01*
X12391250Y5047127D01*
X12357091Y5032977D01*
X12326348Y5012436D01*
X12300204Y4986292D01*
X12279663Y4955549D01*
X12265513Y4921390D01*
X12258300Y4885127D01*
Y4848153D01*
X12265513Y4811890D01*
X12279663Y4777731D01*
X12300204Y4746988D01*
X12326348Y4720844D01*
X12357091Y4700303D01*
X12391250Y4686153D01*
X12427513Y4678940D01*
X12464487D01*
X12500750Y4686153D01*
X12534909Y4700303D01*
X12565652Y4720844D01*
X12591796Y4746988D01*
X12612337Y4777731D01*
X12626487Y4811890D01*
X12633700Y4848153D01*
Y4885127D01*
X12626487Y4921390D01*
X12612337Y4955549D01*
X12591796Y4986292D01*
X12565652Y5012436D01*
X12534909Y5032977D01*
X12500750Y5047127D01*
X12464487Y5054340D01*
D02*
G37*
G36*
X10256984Y4765040D02*
X10240816D01*
X10225879Y4758853D01*
X10214447Y4747421D01*
X10208260Y4732484D01*
Y4716316D01*
X10214447Y4701379D01*
X10225879Y4689947D01*
X10240816Y4683760D01*
X10247326D01*
X10257296Y4681996D01*
X10259060Y4672026D01*
Y4665516D01*
X10265247Y4650579D01*
X10276679Y4639147D01*
X10291616Y4632960D01*
X10307784D01*
X10322721Y4639147D01*
X10334153Y4650579D01*
X10340340Y4665516D01*
Y4681684D01*
X10334153Y4696621D01*
X10322721Y4708053D01*
X10307784Y4714240D01*
X10301274D01*
X10291304Y4716004D01*
X10289540Y4725974D01*
Y4732484D01*
X10283353Y4747421D01*
X10271921Y4758853D01*
X10256984Y4765040D01*
D02*
G37*
G36*
X8859984Y4676140D02*
X8843816D01*
X8828879Y4669953D01*
X8817447Y4658521D01*
X8811260Y4643584D01*
Y4627416D01*
X8817447Y4612479D01*
X8828879Y4601047D01*
X8843816Y4594860D01*
X8859984D01*
X8874921Y4601047D01*
X8886353Y4612479D01*
X8892540Y4627416D01*
Y4643584D01*
X8886353Y4658521D01*
X8874921Y4669953D01*
X8859984Y4676140D01*
D02*
G37*
G36*
X604506Y4813200D02*
X575490D01*
X547462Y4805691D01*
X522333Y4791182D01*
X501816Y4770665D01*
X487308Y4745536D01*
X479798Y4717509D01*
Y4688492D01*
X487308Y4660465D01*
X501816Y4635336D01*
X522333Y4614819D01*
X547462Y4600310D01*
X575490Y4592801D01*
X604506D01*
X632533Y4600310D01*
X657662Y4614819D01*
X678180Y4635336D01*
X692688Y4660465D01*
X700198Y4688492D01*
Y4717509D01*
X692688Y4745536D01*
X678180Y4770665D01*
X657662Y4791182D01*
X632533Y4805691D01*
X604506Y4813200D01*
D02*
G37*
G36*
X9830264Y4660900D02*
X9814096D01*
X9799159Y4654713D01*
X9787727Y4643281D01*
X9781540Y4628344D01*
Y4612176D01*
X9787727Y4597239D01*
X9799159Y4585807D01*
X9814096Y4579620D01*
X9830264D01*
X9845201Y4585807D01*
X9856633Y4597239D01*
X9862820Y4612176D01*
Y4628344D01*
X9856633Y4643281D01*
X9845201Y4654713D01*
X9830264Y4660900D01*
D02*
G37*
G36*
X9660084D02*
X9643916D01*
X9628979Y4654713D01*
X9617547Y4643281D01*
X9611360Y4628344D01*
Y4612176D01*
X9617547Y4597239D01*
X9628979Y4585807D01*
X9643916Y4579620D01*
X9660084D01*
X9675021Y4585807D01*
X9686453Y4597239D01*
X9692640Y4612176D01*
Y4628344D01*
X9686453Y4643281D01*
X9675021Y4654713D01*
X9660084Y4660900D01*
D02*
G37*
G36*
X10879284Y4638040D02*
X10863116D01*
X10848179Y4631853D01*
X10836747Y4620421D01*
X10830560Y4605484D01*
Y4589316D01*
X10836747Y4574379D01*
X10848179Y4562947D01*
X10863116Y4556760D01*
X10879284D01*
X10894221Y4562947D01*
X10905653Y4574379D01*
X10911840Y4589316D01*
Y4605484D01*
X10905653Y4620421D01*
X10894221Y4631853D01*
X10879284Y4638040D01*
D02*
G37*
G36*
X8422448Y4737100D02*
X8392352D01*
X8363282Y4729311D01*
X8337218Y4714263D01*
X8315937Y4692982D01*
X8300889Y4666918D01*
X8293100Y4637848D01*
Y4607752D01*
X8300889Y4578682D01*
X8315937Y4552618D01*
X8337218Y4531337D01*
X8363282Y4516289D01*
X8392352Y4508500D01*
X8422448D01*
X8451518Y4516289D01*
X8477582Y4531337D01*
X8498863Y4552618D01*
X8513911Y4578682D01*
X8521700Y4607752D01*
Y4637848D01*
X8513911Y4666918D01*
X8498863Y4692982D01*
X8477582Y4714263D01*
X8451518Y4729311D01*
X8422448Y4737100D01*
D02*
G37*
G36*
X10955484Y4561840D02*
X10939316D01*
X10924379Y4555653D01*
X10912947Y4544221D01*
X10906760Y4529284D01*
Y4513116D01*
X10912947Y4498179D01*
X10924379Y4486747D01*
X10939316Y4480560D01*
X10955484D01*
X10970421Y4486747D01*
X10981853Y4498179D01*
X10988040Y4513116D01*
Y4529284D01*
X10981853Y4544221D01*
X10970421Y4555653D01*
X10955484Y4561840D01*
D02*
G37*
G36*
X11031684Y4485640D02*
X11015516D01*
X11000579Y4479453D01*
X10989147Y4468021D01*
X10982960Y4453084D01*
Y4436916D01*
X10989147Y4421979D01*
X11000579Y4410547D01*
X11015516Y4404360D01*
X11031684D01*
X11046621Y4410547D01*
X11058053Y4421979D01*
X11064240Y4436916D01*
Y4453084D01*
X11058053Y4468021D01*
X11046621Y4479453D01*
X11031684Y4485640D01*
D02*
G37*
G36*
X8809184Y4447540D02*
X8793016D01*
X8778079Y4441353D01*
X8766647Y4429921D01*
X8760460Y4414984D01*
Y4398816D01*
X8766647Y4383879D01*
X8778079Y4372447D01*
X8793016Y4366260D01*
X8809184D01*
X8824121Y4372447D01*
X8835553Y4383879D01*
X8841740Y4398816D01*
Y4414984D01*
X8835553Y4429921D01*
X8824121Y4441353D01*
X8809184Y4447540D01*
D02*
G37*
G36*
X8422448Y4483100D02*
X8392352D01*
X8363282Y4475311D01*
X8337218Y4460263D01*
X8315937Y4438982D01*
X8300889Y4412918D01*
X8293100Y4383848D01*
Y4353752D01*
X8300889Y4324682D01*
X8315937Y4298618D01*
X8337218Y4277337D01*
X8363282Y4262289D01*
X8392352Y4254500D01*
X8422448D01*
X8451518Y4262289D01*
X8477582Y4277337D01*
X8498863Y4298618D01*
X8513911Y4324682D01*
X8521700Y4353752D01*
Y4383848D01*
X8513911Y4412918D01*
X8498863Y4438982D01*
X8477582Y4460263D01*
X8451518Y4475311D01*
X8422448Y4483100D01*
D02*
G37*
G36*
X13829565Y4282144D02*
X13813399D01*
X13798460Y4275957D01*
X13787029Y4264524D01*
X13780843Y4249587D01*
Y4233420D01*
X13787029Y4218483D01*
X13798460Y4207051D01*
X13813399Y4200864D01*
X13829565D01*
X13844502Y4207051D01*
X13855936Y4218483D01*
X13862122Y4233420D01*
Y4249587D01*
X13855936Y4264524D01*
X13844502Y4275957D01*
X13829565Y4282144D01*
D02*
G37*
G36*
X9713424Y4244340D02*
X9697256D01*
X9682319Y4238153D01*
X9670887Y4226721D01*
X9664700Y4211784D01*
Y4205274D01*
X9662936Y4195304D01*
X9652966Y4193540D01*
X9646456D01*
X9631519Y4187353D01*
X9620087Y4175921D01*
X9613900Y4160984D01*
Y4144816D01*
X9620087Y4129879D01*
X9631519Y4118447D01*
X9646456Y4112260D01*
X9662624D01*
X9677561Y4118447D01*
X9688993Y4129879D01*
X9695180Y4144816D01*
Y4151326D01*
X9696944Y4161296D01*
X9706914Y4163060D01*
X9713424D01*
X9728361Y4169247D01*
X9739793Y4180679D01*
X9745980Y4195616D01*
Y4211784D01*
X9739793Y4226721D01*
X9728361Y4238153D01*
X9713424Y4244340D01*
D02*
G37*
G36*
X10574484Y4168140D02*
X10558316D01*
X10543379Y4161953D01*
X10531947Y4150521D01*
X10525760Y4135584D01*
Y4119416D01*
X10531947Y4104479D01*
X10543379Y4093047D01*
X10558316Y4086860D01*
X10574484D01*
X10589421Y4093047D01*
X10600853Y4104479D01*
X10607040Y4119416D01*
Y4135584D01*
X10600853Y4150521D01*
X10589421Y4161953D01*
X10574484Y4168140D01*
D02*
G37*
G36*
X8422448Y4229100D02*
X8392352D01*
X8363282Y4221311D01*
X8337218Y4206263D01*
X8315937Y4184982D01*
X8300889Y4158918D01*
X8293100Y4129848D01*
Y4099752D01*
X8300889Y4070682D01*
X8315937Y4044618D01*
X8337218Y4023337D01*
X8363282Y4008289D01*
X8392352Y4000500D01*
X8422448D01*
X8451518Y4008289D01*
X8477582Y4023337D01*
X8498863Y4044618D01*
X8513911Y4070682D01*
X8521700Y4099752D01*
Y4129848D01*
X8513911Y4158918D01*
X8498863Y4184982D01*
X8477582Y4206263D01*
X8451518Y4221311D01*
X8422448Y4229100D01*
D02*
G37*
G36*
X10475424Y4056380D02*
X10459256D01*
X10444319Y4050193D01*
X10432887Y4038761D01*
X10426700Y4023824D01*
Y4007656D01*
X10432887Y3992719D01*
X10444319Y3981287D01*
X10459256Y3975100D01*
X10475424D01*
X10490361Y3981287D01*
X10501793Y3992719D01*
X10507980Y4007656D01*
Y4023824D01*
X10501793Y4038761D01*
X10490361Y4050193D01*
X10475424Y4056380D01*
D02*
G37*
G36*
X13829565Y4028144D02*
X13813399D01*
X13798460Y4021957D01*
X13787029Y4010524D01*
X13780843Y3995587D01*
Y3979420D01*
X13787029Y3964483D01*
X13798460Y3953051D01*
X13813399Y3946864D01*
X13829565D01*
X13844502Y3953051D01*
X13855936Y3964483D01*
X13862122Y3979420D01*
Y3995587D01*
X13855936Y4010524D01*
X13844502Y4021957D01*
X13829565Y4028144D01*
D02*
G37*
G36*
X652799Y4161200D02*
X617201D01*
X582815Y4151986D01*
X551985Y4134187D01*
X526813Y4109015D01*
X509014Y4078185D01*
X499800Y4043799D01*
Y4008201D01*
X509014Y3973815D01*
X526813Y3942986D01*
X551985Y3917813D01*
X582815Y3900014D01*
X617201Y3890800D01*
X652799D01*
X687185Y3900014D01*
X718015Y3917813D01*
X743187Y3942986D01*
X760986Y3973815D01*
X770200Y4008201D01*
Y4043799D01*
X760986Y4078185D01*
X743187Y4109015D01*
X718015Y4134187D01*
X687185Y4151986D01*
X652799Y4161200D01*
D02*
G37*
G36*
X3513284Y3926840D02*
X3497116D01*
X3482179Y3920653D01*
X3470747Y3909221D01*
X3464560Y3894284D01*
Y3878116D01*
X3470747Y3863179D01*
X3482179Y3851747D01*
X3497116Y3845560D01*
X3513284D01*
X3528221Y3851747D01*
X3539653Y3863179D01*
X3545840Y3878116D01*
Y3894284D01*
X3539653Y3909221D01*
X3528221Y3920653D01*
X3513284Y3926840D01*
D02*
G37*
G36*
X9167324Y3837940D02*
X9151156D01*
X9136219Y3831753D01*
X9124787Y3820321D01*
X9118600Y3805384D01*
Y3789216D01*
X9124787Y3774279D01*
X9136219Y3762847D01*
X9151156Y3756660D01*
X9167324D01*
X9182261Y3762847D01*
X9193693Y3774279D01*
X9199880Y3789216D01*
Y3805384D01*
X9193693Y3820321D01*
X9182261Y3831753D01*
X9167324Y3837940D01*
D02*
G37*
G36*
X9020004Y3835400D02*
X9003836D01*
X8988899Y3829213D01*
X8977467Y3817781D01*
X8971280Y3802844D01*
Y3786676D01*
X8977467Y3771739D01*
X8988899Y3760307D01*
X9003836Y3754120D01*
X9020004D01*
X9034941Y3760307D01*
X9046373Y3771739D01*
X9052560Y3786676D01*
Y3802844D01*
X9046373Y3817781D01*
X9034941Y3829213D01*
X9020004Y3835400D01*
D02*
G37*
G36*
X8867604Y3830320D02*
X8851436D01*
X8836499Y3824133D01*
X8825067Y3812701D01*
X8818880Y3797764D01*
Y3781596D01*
X8825067Y3766659D01*
X8836499Y3755227D01*
X8851436Y3749040D01*
X8867604D01*
X8882541Y3755227D01*
X8893973Y3766659D01*
X8900160Y3781596D01*
Y3797764D01*
X8893973Y3812701D01*
X8882541Y3824133D01*
X8867604Y3830320D01*
D02*
G37*
G36*
X8422448Y3975100D02*
X8392352D01*
X8363282Y3967311D01*
X8337218Y3952263D01*
X8315937Y3930982D01*
X8300889Y3904918D01*
X8293100Y3875848D01*
Y3845752D01*
X8300889Y3816682D01*
X8315937Y3790618D01*
X8337218Y3769337D01*
X8363282Y3754289D01*
X8392352Y3746500D01*
X8422448D01*
X8451518Y3754289D01*
X8477582Y3769337D01*
X8498863Y3790618D01*
X8513911Y3816682D01*
X8521700Y3845752D01*
Y3875848D01*
X8513911Y3904918D01*
X8498863Y3930982D01*
X8477582Y3952263D01*
X8451518Y3967311D01*
X8422448Y3975100D01*
D02*
G37*
G36*
X13829565Y3774144D02*
X13813399D01*
X13798460Y3767957D01*
X13787029Y3756524D01*
X13780843Y3741587D01*
Y3725420D01*
X13787029Y3710483D01*
X13798460Y3699051D01*
X13813399Y3692864D01*
X13829565D01*
X13844502Y3699051D01*
X13855936Y3710483D01*
X13862122Y3725420D01*
Y3741587D01*
X13855936Y3756524D01*
X13844502Y3767957D01*
X13829565Y3774144D01*
D02*
G37*
G36*
X10275971Y3702847D02*
X10259803D01*
X10244866Y3696660D01*
X10233434Y3685228D01*
X10227247Y3670291D01*
Y3663781D01*
X10225482Y3653812D01*
X10215513Y3652047D01*
X10209003D01*
X10194066Y3645860D01*
X10182634Y3634428D01*
X10176447Y3619491D01*
Y3603324D01*
X10182634Y3588387D01*
X10194066Y3576954D01*
X10209003Y3570767D01*
X10225171D01*
X10240108Y3576954D01*
X10251540Y3588387D01*
X10257727Y3603324D01*
Y3609834D01*
X10259491Y3619803D01*
X10269460Y3621567D01*
X10275971D01*
X10290908Y3627754D01*
X10302340Y3639187D01*
X10308527Y3654124D01*
Y3670291D01*
X10302340Y3685228D01*
X10290908Y3696660D01*
X10275971Y3702847D01*
D02*
G37*
G36*
X2954484Y3634740D02*
X2938316D01*
X2923379Y3628553D01*
X2911947Y3617121D01*
X2905760Y3602184D01*
Y3586016D01*
X2911947Y3571079D01*
X2923379Y3559647D01*
X2938316Y3553460D01*
X2954484D01*
X2969421Y3559647D01*
X2980853Y3571079D01*
X2987040Y3586016D01*
Y3602184D01*
X2980853Y3617121D01*
X2969421Y3628553D01*
X2954484Y3634740D01*
D02*
G37*
G36*
X9977584Y3596640D02*
X9961416D01*
X9946479Y3590453D01*
X9935047Y3579021D01*
X9928860Y3564084D01*
Y3547916D01*
X9935047Y3532979D01*
X9946479Y3521547D01*
X9961416Y3515360D01*
X9977584D01*
X9992521Y3521547D01*
X10003953Y3532979D01*
X10010140Y3547916D01*
Y3564084D01*
X10003953Y3579021D01*
X9992521Y3590453D01*
X9977584Y3596640D01*
D02*
G37*
G36*
X8422448Y3721100D02*
X8392352D01*
X8363282Y3713311D01*
X8337218Y3698263D01*
X8315937Y3676982D01*
X8300889Y3650918D01*
X8293100Y3621848D01*
Y3591752D01*
X8300889Y3562682D01*
X8315937Y3536618D01*
X8337218Y3515337D01*
X8363282Y3500289D01*
X8392352Y3492500D01*
X8422448D01*
X8451518Y3500289D01*
X8477582Y3515337D01*
X8498863Y3536618D01*
X8513911Y3562682D01*
X8521700Y3591752D01*
Y3621848D01*
X8513911Y3650918D01*
X8498863Y3676982D01*
X8477582Y3698263D01*
X8451518Y3713311D01*
X8422448Y3721100D01*
D02*
G37*
G36*
X652799Y3691200D02*
X617201D01*
X582815Y3681986D01*
X551985Y3664187D01*
X526813Y3639015D01*
X509014Y3608185D01*
X499800Y3573799D01*
Y3538201D01*
X509014Y3503815D01*
X526813Y3472985D01*
X551985Y3447813D01*
X582815Y3430014D01*
X617201Y3420800D01*
X652799D01*
X687185Y3430014D01*
X718015Y3447813D01*
X743187Y3472985D01*
X760986Y3503815D01*
X770200Y3538201D01*
Y3573799D01*
X760986Y3608185D01*
X743187Y3639015D01*
X718015Y3664187D01*
X687185Y3681986D01*
X652799Y3691200D01*
D02*
G37*
G36*
X10079184Y3469640D02*
X10063016D01*
X10048079Y3463453D01*
X10036647Y3452021D01*
X10030460Y3437084D01*
Y3420916D01*
X10036647Y3405979D01*
X10048079Y3394547D01*
X10063016Y3388360D01*
X10079184D01*
X10094121Y3394547D01*
X10105553Y3405979D01*
X10111740Y3420916D01*
Y3437084D01*
X10105553Y3452021D01*
X10094121Y3463453D01*
X10079184Y3469640D01*
D02*
G37*
G36*
X14174699Y3519700D02*
X14019299D01*
Y3364300D01*
X14174699D01*
Y3519700D01*
D02*
G37*
G36*
X12477187Y3581140D02*
X12440213D01*
X12403950Y3573927D01*
X12369791Y3559777D01*
X12339048Y3539236D01*
X12312904Y3513092D01*
X12292363Y3482349D01*
X12278213Y3448190D01*
X12271000Y3411927D01*
Y3374953D01*
X12278213Y3338690D01*
X12292363Y3304531D01*
X12312904Y3273788D01*
X12339048Y3247644D01*
X12369791Y3227103D01*
X12403950Y3212953D01*
X12440213Y3205740D01*
X12477187D01*
X12513450Y3212953D01*
X12547609Y3227103D01*
X12578352Y3247644D01*
X12604496Y3273788D01*
X12625037Y3304531D01*
X12639187Y3338690D01*
X12646400Y3374953D01*
Y3411927D01*
X12639187Y3448190D01*
X12625037Y3482349D01*
X12604496Y3513092D01*
X12578352Y3539236D01*
X12547609Y3559777D01*
X12513450Y3573927D01*
X12477187Y3581140D01*
D02*
G37*
G36*
X14361229Y3239700D02*
X14340771D01*
X14321008Y3234405D01*
X14303291Y3224175D01*
X14288824Y3209709D01*
X14278595Y3191991D01*
X14273300Y3172229D01*
Y3151771D01*
X14278595Y3132009D01*
X14288824Y3114291D01*
X14303291Y3099825D01*
X14321008Y3089595D01*
X14340771Y3084300D01*
X14361229D01*
X14380991Y3089595D01*
X14398709Y3099825D01*
X14413174Y3114291D01*
X14423405Y3132009D01*
X14428700Y3151771D01*
Y3172229D01*
X14423405Y3191991D01*
X14413174Y3209709D01*
X14398709Y3224175D01*
X14380991Y3234405D01*
X14361229Y3239700D01*
D02*
G37*
G36*
X14107230D02*
X14086771D01*
X14067009Y3234405D01*
X14049290Y3224175D01*
X14034825Y3209709D01*
X14024596Y3191991D01*
X14019299Y3172229D01*
Y3151771D01*
X14024596Y3132009D01*
X14034825Y3114291D01*
X14049290Y3099825D01*
X14067009Y3089595D01*
X14086771Y3084300D01*
X14107230D01*
X14126991Y3089595D01*
X14144708Y3099825D01*
X14159175Y3114291D01*
X14169405Y3132009D01*
X14174699Y3151771D01*
Y3172229D01*
X14169405Y3191991D01*
X14159175Y3209709D01*
X14144708Y3224175D01*
X14126991Y3234405D01*
X14107230Y3239700D01*
D02*
G37*
G36*
X8422448Y3213100D02*
X8392352D01*
X8363282Y3205311D01*
X8337218Y3190263D01*
X8315937Y3168982D01*
X8300889Y3142918D01*
X8293100Y3113848D01*
Y3083752D01*
X8300889Y3054682D01*
X8315937Y3028618D01*
X8337218Y3007337D01*
X8363282Y2992289D01*
X8392352Y2984500D01*
X8422448D01*
X8451518Y2992289D01*
X8477582Y3007337D01*
X8498863Y3028618D01*
X8513911Y3054682D01*
X8521700Y3083752D01*
Y3113848D01*
X8513911Y3142918D01*
X8498863Y3168982D01*
X8477582Y3190263D01*
X8451518Y3205311D01*
X8422448Y3213100D01*
D02*
G37*
G36*
X770200Y3221200D02*
X499800D01*
Y2950800D01*
X770200D01*
Y3221200D01*
D02*
G37*
G36*
X8422448Y2959100D02*
X8392352D01*
X8363282Y2951311D01*
X8337218Y2936263D01*
X8315937Y2914982D01*
X8300889Y2888918D01*
X8293100Y2859848D01*
Y2829752D01*
X8300889Y2800682D01*
X8315937Y2774618D01*
X8337218Y2753337D01*
X8363282Y2738289D01*
X8392352Y2730500D01*
X8422448D01*
X8451518Y2738289D01*
X8477582Y2753337D01*
X8498863Y2774618D01*
X8513911Y2800682D01*
X8521700Y2829752D01*
Y2859848D01*
X8513911Y2888918D01*
X8498863Y2914982D01*
X8477582Y2936263D01*
X8451518Y2951311D01*
X8422448Y2959100D01*
D02*
G37*
G36*
X2377904Y2428240D02*
X2361736D01*
X2346799Y2422053D01*
X2335367Y2410621D01*
X2329180Y2395684D01*
Y2379516D01*
X2335367Y2364579D01*
X2346799Y2353147D01*
X2361736Y2346960D01*
X2377904D01*
X2392841Y2353147D01*
X2404273Y2364579D01*
X2410460Y2379516D01*
Y2395684D01*
X2404273Y2410621D01*
X2392841Y2422053D01*
X2377904Y2428240D01*
D02*
G37*
G36*
X247708Y2418800D02*
X218692D01*
X190664Y2411290D01*
X165536Y2396782D01*
X145018Y2376264D01*
X130510Y2351136D01*
X123000Y2323108D01*
Y2294092D01*
X130510Y2266064D01*
X145018Y2240936D01*
X165536Y2220418D01*
X190664Y2205910D01*
X218692Y2198400D01*
X247708D01*
X275736Y2205910D01*
X300864Y2220418D01*
X321382Y2240936D01*
X335890Y2266064D01*
X343400Y2294092D01*
Y2323108D01*
X335890Y2351136D01*
X321382Y2376264D01*
X300864Y2396782D01*
X275736Y2411290D01*
X247708Y2418800D01*
D02*
G37*
G36*
X11229804Y2265680D02*
X11213636D01*
X11198699Y2259493D01*
X11187267Y2248061D01*
X11181080Y2233124D01*
Y2216956D01*
X11187267Y2202019D01*
X11198699Y2190587D01*
X11213636Y2184400D01*
X11229804D01*
X11244741Y2190587D01*
X11256173Y2202019D01*
X11262360Y2216956D01*
Y2233124D01*
X11256173Y2248061D01*
X11244741Y2259493D01*
X11229804Y2265680D01*
D02*
G37*
G36*
X10645604Y2189480D02*
X10629436D01*
X10614499Y2183293D01*
X10603067Y2171861D01*
X10596880Y2156924D01*
Y2140756D01*
X10603067Y2125819D01*
X10614499Y2114387D01*
X10629436Y2108200D01*
X10645604D01*
X10660541Y2114387D01*
X10671973Y2125819D01*
X10678160Y2140756D01*
Y2156924D01*
X10671973Y2171861D01*
X10660541Y2183293D01*
X10645604Y2189480D01*
D02*
G37*
G36*
X2489664Y2169160D02*
X2473496D01*
X2458559Y2162973D01*
X2447127Y2151541D01*
X2440940Y2136604D01*
Y2120436D01*
X2447127Y2105499D01*
X2458559Y2094067D01*
X2473496Y2087880D01*
X2489664D01*
X2504601Y2094067D01*
X2516033Y2105499D01*
X2522220Y2120436D01*
Y2136604D01*
X2516033Y2151541D01*
X2504601Y2162973D01*
X2489664Y2169160D01*
D02*
G37*
G36*
X2629364Y2164080D02*
X2613196D01*
X2598259Y2157893D01*
X2586827Y2146461D01*
X2580640Y2131524D01*
Y2115356D01*
X2586827Y2100419D01*
X2598259Y2088987D01*
X2613196Y2082800D01*
X2629364D01*
X2644301Y2088987D01*
X2655733Y2100419D01*
X2661920Y2115356D01*
Y2131524D01*
X2655733Y2146461D01*
X2644301Y2157893D01*
X2629364Y2164080D01*
D02*
G37*
G36*
X9276544Y2146300D02*
X9260376D01*
X9245439Y2140113D01*
X9234007Y2128681D01*
X9227820Y2113744D01*
Y2097576D01*
X9234007Y2082639D01*
X9245439Y2071207D01*
X9260376Y2065020D01*
X9276544D01*
X9291481Y2071207D01*
X9302913Y2082639D01*
X9309100Y2097576D01*
Y2113744D01*
X9302913Y2128681D01*
X9291481Y2140113D01*
X9276544Y2146300D01*
D02*
G37*
G36*
X9911544Y2113280D02*
X9895376D01*
X9880439Y2107093D01*
X9869007Y2095661D01*
X9862820Y2080724D01*
Y2064556D01*
X9869007Y2049619D01*
X9880439Y2038187D01*
X9895376Y2032000D01*
X9911544D01*
X9926481Y2038187D01*
X9937913Y2049619D01*
X9944100Y2064556D01*
Y2080724D01*
X9937913Y2095661D01*
X9926481Y2107093D01*
X9911544Y2113280D01*
D02*
G37*
G36*
X281950Y2070004D02*
X184450D01*
X160473Y2065235D01*
X140147Y2051653D01*
X126565Y2031327D01*
X121796Y2007350D01*
Y1909850D01*
X126565Y1885874D01*
X140147Y1865547D01*
X160473Y1851966D01*
X184450Y1847196D01*
X281950D01*
X305926Y1851966D01*
X326253Y1865547D01*
X339834Y1885874D01*
X344604Y1909850D01*
Y2007350D01*
X339834Y2031327D01*
X326253Y2051653D01*
X305926Y2065235D01*
X281950Y2070004D01*
D02*
G37*
G36*
X14174699Y1881700D02*
X14019299D01*
Y1726300D01*
X14174699D01*
Y1881700D01*
D02*
G37*
G36*
X8343404Y1682740D02*
X8318996D01*
X8295419Y1676422D01*
X8274281Y1664218D01*
X8257021Y1646959D01*
X8244817Y1625821D01*
X8238500Y1602244D01*
Y1577836D01*
X8244817Y1554259D01*
X8257021Y1533121D01*
X8274281Y1515862D01*
X8295419Y1503658D01*
X8318996Y1497340D01*
X8343404D01*
X8366980Y1503658D01*
X8388119Y1515862D01*
X8405378Y1533121D01*
X8417582Y1554259D01*
X8423900Y1577836D01*
Y1602244D01*
X8417582Y1625821D01*
X8405378Y1646959D01*
X8388119Y1664218D01*
X8366980Y1676422D01*
X8343404Y1682740D01*
D02*
G37*
G36*
X8089404D02*
X8064996D01*
X8041420Y1676422D01*
X8020281Y1664218D01*
X8003022Y1646959D01*
X7990818Y1625821D01*
X7984500Y1602244D01*
Y1577836D01*
X7990818Y1554259D01*
X8003022Y1533121D01*
X8020281Y1515862D01*
X8041420Y1503658D01*
X8064996Y1497340D01*
X8089404D01*
X8112981Y1503658D01*
X8134119Y1515862D01*
X8151379Y1533121D01*
X8163583Y1554259D01*
X8169900Y1577836D01*
Y1602244D01*
X8163583Y1625821D01*
X8151379Y1646959D01*
X8134119Y1664218D01*
X8112981Y1676422D01*
X8089404Y1682740D01*
D02*
G37*
G36*
X8625200Y1683772D02*
X8545200D01*
X8524638Y1679682D01*
X8507205Y1668035D01*
X8495558Y1650602D01*
X8491468Y1630040D01*
Y1550040D01*
X8495558Y1529478D01*
X8507205Y1512045D01*
X8524638Y1500398D01*
X8545200Y1496308D01*
X8625200D01*
X8645762Y1500398D01*
X8663195Y1512045D01*
X8674842Y1529478D01*
X8678932Y1550040D01*
Y1630040D01*
X8674842Y1650602D01*
X8663195Y1668035D01*
X8645762Y1679682D01*
X8625200Y1683772D01*
D02*
G37*
G36*
X11229804Y1569720D02*
X11213636D01*
X11198699Y1563533D01*
X11187267Y1552101D01*
X11181080Y1537164D01*
Y1520996D01*
X11187267Y1506059D01*
X11198699Y1494627D01*
X11213636Y1488440D01*
X11229804D01*
X11244741Y1494627D01*
X11256173Y1506059D01*
X11262360Y1520996D01*
Y1537164D01*
X11256173Y1552101D01*
X11244741Y1563533D01*
X11229804Y1569720D01*
D02*
G37*
G36*
X10643064D02*
X10626896D01*
X10611959Y1563533D01*
X10600527Y1552101D01*
X10594340Y1537164D01*
Y1520996D01*
X10600527Y1506059D01*
X10611959Y1494627D01*
X10626896Y1488440D01*
X10643064D01*
X10658001Y1494627D01*
X10669433Y1506059D01*
X10675620Y1520996D01*
Y1537164D01*
X10669433Y1552101D01*
X10658001Y1563533D01*
X10643064Y1569720D01*
D02*
G37*
G36*
X9276544Y1567180D02*
X9260376D01*
X9245439Y1560993D01*
X9234007Y1549561D01*
X9227820Y1534624D01*
Y1518456D01*
X9234007Y1503519D01*
X9245439Y1492087D01*
X9260376Y1485900D01*
X9276544D01*
X9291481Y1492087D01*
X9302913Y1503519D01*
X9309100Y1518456D01*
Y1534624D01*
X9302913Y1549561D01*
X9291481Y1560993D01*
X9276544Y1567180D01*
D02*
G37*
G36*
X9909004Y1546860D02*
X9892836D01*
X9877899Y1540673D01*
X9866467Y1529241D01*
X9860280Y1514304D01*
Y1498136D01*
X9866467Y1483199D01*
X9877899Y1471767D01*
X9892836Y1465580D01*
X9909004D01*
X9923941Y1471767D01*
X9935373Y1483199D01*
X9941560Y1498136D01*
Y1514304D01*
X9935373Y1529241D01*
X9923941Y1540673D01*
X9909004Y1546860D01*
D02*
G37*
G36*
X14361229Y1601700D02*
X14340771D01*
X14321008Y1596405D01*
X14303291Y1586175D01*
X14288824Y1571709D01*
X14278595Y1553991D01*
X14273300Y1534229D01*
Y1513771D01*
X14278595Y1494009D01*
X14288824Y1476291D01*
X14303291Y1461825D01*
X14321008Y1451595D01*
X14340771Y1446300D01*
X14361229D01*
X14380991Y1451595D01*
X14398709Y1461825D01*
X14413174Y1476291D01*
X14423405Y1494009D01*
X14428700Y1513771D01*
Y1534229D01*
X14423405Y1553991D01*
X14413174Y1571709D01*
X14398709Y1586175D01*
X14380991Y1596405D01*
X14361229Y1601700D01*
D02*
G37*
G36*
X14107230D02*
X14086771D01*
X14067009Y1596405D01*
X14049290Y1586175D01*
X14034825Y1571709D01*
X14024596Y1553991D01*
X14019299Y1534229D01*
Y1513771D01*
X14024596Y1494009D01*
X14034825Y1476291D01*
X14049290Y1461825D01*
X14067009Y1451595D01*
X14086771Y1446300D01*
X14107230D01*
X14126991Y1451595D01*
X14144708Y1461825D01*
X14159175Y1476291D01*
X14169405Y1494009D01*
X14174699Y1513771D01*
Y1534229D01*
X14169405Y1553991D01*
X14159175Y1571709D01*
X14144708Y1586175D01*
X14126991Y1596405D01*
X14107230Y1601700D01*
D02*
G37*
G36*
X14174699Y217700D02*
X14019299D01*
Y62300D01*
X14174699D01*
Y217700D01*
D02*
G37*
G36*
X14361229Y-62300D02*
X14340771D01*
X14321008Y-67595D01*
X14303291Y-77825D01*
X14288824Y-92291D01*
X14278595Y-110009D01*
X14273300Y-129771D01*
Y-150229D01*
X14278595Y-169991D01*
X14288824Y-187709D01*
X14303291Y-202175D01*
X14321008Y-212405D01*
X14340771Y-217700D01*
X14361229D01*
X14380991Y-212405D01*
X14398709Y-202175D01*
X14413174Y-187709D01*
X14423405Y-169991D01*
X14428700Y-150229D01*
Y-129771D01*
X14423405Y-110009D01*
X14413174Y-92291D01*
X14398709Y-77825D01*
X14380991Y-67595D01*
X14361229Y-62300D01*
D02*
G37*
G36*
X14107230D02*
X14086771D01*
X14067009Y-67595D01*
X14049290Y-77825D01*
X14034825Y-92291D01*
X14024596Y-110009D01*
X14019299Y-129771D01*
Y-150229D01*
X14024596Y-169991D01*
X14034825Y-187709D01*
X14049290Y-202175D01*
X14067009Y-212405D01*
X14086771Y-217700D01*
X14107230D01*
X14126991Y-212405D01*
X14144708Y-202175D01*
X14159175Y-187709D01*
X14169405Y-169991D01*
X14174699Y-150229D01*
Y-129771D01*
X14169405Y-110009D01*
X14159175Y-92291D01*
X14144708Y-77825D01*
X14126991Y-67595D01*
X14107230Y-62300D01*
D02*
G37*
%LPD*%
D59*
X6121400Y5448300D02*
D03*
Y2781300D02*
D03*
D60*
X8407400Y3352800D02*
D03*
Y2844800D02*
D03*
Y5130800D02*
D03*
Y3606800D02*
D03*
Y4368800D02*
D03*
Y3098800D02*
D03*
Y4622800D02*
D03*
Y4114800D02*
D03*
Y3860800D02*
D03*
Y5384800D02*
D03*
Y4876800D02*
D03*
D61*
X635000Y4026000D02*
D03*
Y3556000D02*
D03*
D62*
Y3086000D02*
D03*
D63*
X14097000Y6744000D02*
D03*
Y8395000D02*
D03*
Y140000D02*
D03*
Y1804000D02*
D03*
Y3442000D02*
D03*
Y5106000D02*
D03*
D64*
Y6464000D02*
D03*
X14350999Y6744000D02*
D03*
Y6464000D02*
D03*
X14097000Y8115000D02*
D03*
X14350999Y8395000D02*
D03*
Y8115000D02*
D03*
X14097000Y-140000D02*
D03*
X14350999Y140000D02*
D03*
Y-140000D02*
D03*
X14097000Y1524000D02*
D03*
X14350999Y1804000D02*
D03*
Y1524000D02*
D03*
X14097000Y3162000D02*
D03*
X14350999Y3442000D02*
D03*
Y3162000D02*
D03*
X14097000Y4826000D02*
D03*
X14350999Y5106000D02*
D03*
Y4826000D02*
D03*
D65*
X233200Y1958600D02*
D03*
X589998Y5202999D02*
D03*
X233200Y5921000D02*
D03*
D66*
Y2308600D02*
D03*
X589998Y4703000D02*
D03*
X233200Y6271000D02*
D03*
D67*
X7823200Y1590040D02*
D03*
X8077200D02*
D03*
X8331200D02*
D03*
D68*
X8585200D02*
D03*
D69*
X12458700Y3393440D02*
D03*
X12446000Y4866640D02*
D03*
X1930011Y67502D02*
D03*
Y1067502D02*
D03*
X730011D02*
D03*
Y67502D02*
D03*
X1928980Y8196580D02*
D03*
Y7196580D02*
D03*
X728980D02*
D03*
Y8196580D02*
D03*
D70*
X3910765Y3496436D02*
D03*
X9692640Y4071620D02*
D03*
X9822180Y4620260D02*
D03*
X4175087Y3460953D02*
D03*
X9766300Y5969000D02*
D03*
X10261270Y4231719D02*
D03*
X10746614Y5171314D02*
D03*
X9732698Y4660145D02*
D03*
X10871200Y3632200D02*
D03*
X10807700Y3695700D02*
D03*
X10566400Y4127500D02*
D03*
X10248900Y4724400D02*
D03*
X10299700Y4673600D02*
D03*
X10340214Y4409314D02*
D03*
X2479040Y5461000D02*
D03*
X9268460Y1526540D02*
D03*
Y2105660D02*
D03*
X9969500Y3556000D02*
D03*
X8706383Y5384800D02*
D03*
X9159240Y3797300D02*
D03*
X13821481Y3987504D02*
D03*
X10947400Y4521200D02*
D03*
X9900920Y1506220D02*
D03*
X9903460Y2072640D02*
D03*
X9652000Y4620260D02*
D03*
X2575560Y5577840D02*
D03*
X8801100Y4406900D02*
D03*
X13821481Y3733504D02*
D03*
X11023600Y4445000D02*
D03*
X10467340Y4015740D02*
D03*
X8950000Y5925000D02*
D03*
X11221720Y2225040D02*
D03*
Y1529080D02*
D03*
X11557000Y6730000D02*
D03*
X10718800D02*
D03*
X11122660D02*
D03*
X10350000Y6600000D02*
D03*
X10307320Y6385560D02*
D03*
X10225000Y6775000D02*
D03*
X9975000D02*
D03*
X9908540Y6380480D02*
D03*
X10106660Y6215380D02*
D03*
X9850000Y6600000D02*
D03*
X9466580Y6730000D02*
D03*
X9705340Y4203700D02*
D03*
X9019540Y6730000D02*
D03*
X7975000Y6750000D02*
D03*
X7875000D02*
D03*
X2369820Y5715000D02*
D03*
X10267887Y3662207D02*
D03*
X10217087Y3611407D02*
D03*
X9654540Y4152900D02*
D03*
X2369820Y2387600D02*
D03*
X8859520Y3789680D02*
D03*
X2481580Y2128520D02*
D03*
X13821481Y4241504D02*
D03*
X10871200Y4597400D02*
D03*
X10637520Y2148840D02*
D03*
X10634980Y1529080D02*
D03*
X8851900Y4635500D02*
D03*
X8712200Y5130800D02*
D03*
X10071100Y3429000D02*
D03*
X9011920Y3794760D02*
D03*
X2621280Y2123440D02*
D03*
X9743440Y4117340D02*
D03*
X10109200Y4076700D02*
D03*
X7875000Y6000000D02*
D03*
X7975000D02*
D03*
X8175000Y6025000D02*
D03*
Y6100000D02*
D03*
X11068493Y2393193D02*
D03*
X9087293D02*
D03*
X10408093D02*
D03*
X9747693D02*
D03*
X13734602Y4649295D02*
D03*
X5334000Y3810000D02*
D03*
X5537200D02*
D03*
Y4622800D02*
D03*
X5334000D02*
D03*
X2540000Y2946400D02*
D03*
X2641600D02*
D03*
X13011275Y3598181D02*
D03*
X12884274D02*
D03*
X13734602Y4903295D02*
D03*
X10778488Y4550274D02*
D03*
X10963824Y4359773D02*
D03*
X11023600Y4597400D02*
D03*
X13923082Y3733504D02*
D03*
X13887003Y4319095D02*
D03*
X13923082Y3987504D02*
D03*
X12969240Y789940D02*
D03*
X11662379Y1445927D02*
D03*
X9125000Y1525000D02*
D03*
X9775000D02*
D03*
X10450000D02*
D03*
X11100000D02*
D03*
X9574611Y4656984D02*
D03*
X8175000Y6825000D02*
D03*
X8708318Y5466173D02*
D03*
X3381680Y2869380D02*
D03*
X3306680D02*
D03*
X3231680D02*
D03*
X14257021Y-276860D02*
D03*
X2425700Y6019800D02*
D03*
X1905000Y5016500D02*
D03*
X1468120Y2133600D02*
D03*
X11917680Y6847840D02*
D03*
X2482420Y2044796D02*
D03*
X7302500Y6794500D02*
D03*
X6985000Y6477000D02*
D03*
X3111500Y4191000D02*
D03*
X3159760Y4701539D02*
D03*
X3302000Y4572000D02*
D03*
X14302740Y1089660D02*
D03*
X14297659Y2725420D02*
D03*
X14300200Y4386580D02*
D03*
Y7691120D02*
D03*
Y6050280D02*
D03*
X2476500Y4064000D02*
D03*
X8790363Y4538442D02*
D03*
X2984500Y4953000D02*
D03*
X2540000Y5334000D02*
D03*
X2806700Y3225800D02*
D03*
X2542540Y2646680D02*
D03*
X1905000Y4064000D02*
D03*
X1333500Y4127500D02*
D03*
Y4699000D02*
D03*
X1460500Y5461000D02*
D03*
X1206500Y6223000D02*
D03*
X5105953Y8171636D02*
D03*
X2286000Y8572500D02*
D03*
X-254000Y8128000D02*
D03*
X-271780Y6497320D02*
D03*
X-256540Y5727700D02*
D03*
X190500Y5270500D02*
D03*
X5207000Y6794500D02*
D03*
X5527040Y6410960D02*
D03*
X5334000Y6096000D02*
D03*
X5905500Y5905500D02*
D03*
X6451600Y5943600D02*
D03*
X7048500Y5905500D02*
D03*
X190500Y2667000D02*
D03*
X1460500Y2476500D02*
D03*
X949960Y2710180D02*
D03*
X876300Y2120900D02*
D03*
X-190500Y1460500D02*
D03*
Y190500D02*
D03*
X254000Y-254000D02*
D03*
X4635500Y-317500D02*
D03*
X2620558Y2041343D02*
D03*
X5080000Y190500D02*
D03*
X4277360Y2032000D02*
D03*
X5080000Y1460500D02*
D03*
X6286500Y1968500D02*
D03*
X8064500Y2032000D02*
D03*
X8784664Y3734660D02*
D03*
X9083047Y3735792D02*
D03*
X8717324Y5216832D02*
D03*
X7302500Y1524000D02*
D03*
X8932669Y3731897D02*
D03*
X9234919Y3737964D02*
D03*
X12358007Y1441986D02*
D03*
X12945251Y-380834D02*
D03*
X13826559Y-855340D02*
D03*
X14754279Y-367040D02*
D03*
X14760194Y2606620D02*
D03*
X15176500Y3175000D02*
D03*
X14856480Y4130978D02*
D03*
X15156180Y5067300D02*
D03*
X14732001Y5651500D02*
D03*
X14747240Y8674100D02*
D03*
X13886531Y9099235D02*
D03*
X12969240Y8671560D02*
D03*
X12967001Y7466731D02*
D03*
X12480883Y6905708D02*
D03*
X9411500Y6053000D02*
D03*
X1838960Y5407660D02*
D03*
X1841500Y5521960D02*
D03*
X1844040Y5643880D02*
D03*
X1973580Y5636260D02*
D03*
X1976120Y5524500D02*
D03*
X1978660Y5405120D02*
D03*
X2006600Y2194560D02*
D03*
X2004060Y2080260D02*
D03*
X1859280Y2087880D02*
D03*
Y2194560D02*
D03*
X1861820Y2311400D02*
D03*
X1998070Y2308860D02*
D03*
X3814758Y3455552D02*
D03*
X4087620Y3499774D02*
D03*
X4238876Y3499271D02*
D03*
X4005712Y3451532D02*
D03*
X2946400Y3594100D02*
D03*
X3302000Y4381500D02*
D03*
Y4191000D02*
D03*
X3111500Y4381500D02*
D03*
X3302000Y4000500D02*
D03*
X3175000Y3810000D02*
D03*
X2989580Y4538980D02*
D03*
X2794000Y3937000D02*
D03*
X2951480Y3751580D02*
D03*
X3505200Y3886200D02*
D03*
X3281680Y3294380D02*
D03*
X3426460Y3289300D02*
D03*
X3431540Y3520440D02*
D03*
X3276600Y3517900D02*
D03*
X8175000Y6750000D02*
D03*
X10625789Y6332220D02*
D03*
X10900711D02*
D03*
X10750851D02*
D03*
X9491980Y4269740D02*
D03*
X11183620Y2959100D02*
D03*
X11353800Y3129280D02*
D03*
X10119360Y4912360D02*
D03*
X10187865Y3999959D02*
D03*
X10429240Y3279140D02*
D03*
X10520680Y3368040D02*
D03*
X10020300Y3492500D02*
D03*
%TF.MD5,511b020e75907d21a1c4aab3fc3d6687*%
M02*
