%TF.GenerationSoftware,Altium Limited,DefaultClient, ()*%
G04 Layer_Color=65535*
%FSLAX45Y45*%
%MOMM*%
%TF.SameCoordinates,AE975085-364B-4CEB-9B6D-173D2EE7C3AA*%
%TF.FilePolarity,Positive*%
%TF.FileFunction,Legend,Top*%
%TF.Part,Single*%
G01*
G75*
%TA.AperFunction,NonConductor*%
%ADD71C,0.60000*%
%ADD72C,0.25000*%
%ADD73C,0.25400*%
%ADD74C,0.10000*%
%ADD75C,0.20000*%
%ADD76C,0.12700*%
%ADD77C,0.17780*%
%ADD78C,0.50800*%
%ADD79C,0.20320*%
%ADD80C,0.15240*%
%ADD81C,0.15000*%
G36*
X13508438Y5398141D02*
X11748398D01*
X11748398Y6820541D01*
X13508438Y6820541D01*
Y5398141D01*
D02*
G37*
%LPC*%
G36*
X12538620Y6389511D02*
X12456006D01*
Y6385919D01*
X12416495D01*
Y6382327D01*
X12405719D01*
Y6360776D01*
X12402127D01*
Y6350000D01*
X12398535D01*
Y6339224D01*
X12394943D01*
Y6328448D01*
X12391351D01*
Y6321264D01*
X12387760D01*
Y6317673D01*
X12384168D01*
Y6310489D01*
X12380576D01*
Y6303305D01*
X12384168D01*
Y6292529D01*
X12387760D01*
Y6281754D01*
X12391351D01*
Y6270978D01*
X12394943D01*
Y6256610D01*
X12398535D01*
Y6245834D01*
X12402127D01*
Y6231467D01*
X12405719D01*
Y6177588D01*
X12402127D01*
Y6166812D01*
X12398535D01*
Y6159628D01*
X12394943D01*
Y6091382D01*
X12398535D01*
Y6062646D01*
X12402127D01*
Y6041095D01*
X12405719D01*
Y6026727D01*
X12409311D01*
Y6015951D01*
X12412903D01*
Y6001584D01*
X12416495D01*
Y5990808D01*
X12420087D01*
Y5976440D01*
X12423679D01*
Y5965664D01*
X12427271D01*
Y5954889D01*
X12430863D01*
Y5947705D01*
X12434454D01*
Y5940521D01*
X12438046D01*
Y5936929D01*
X12456006D01*
Y5940521D01*
X12473966D01*
Y5944113D01*
X12491925D01*
Y5947705D01*
X12506293D01*
Y5951297D01*
X12520661D01*
Y5954889D01*
X12535028D01*
Y5958481D01*
X12549396D01*
Y5962073D01*
X12563764D01*
Y5965664D01*
X12578131D01*
Y5969257D01*
X12592499D01*
Y5972848D01*
X12610458D01*
Y5976440D01*
X12624826D01*
Y5980032D01*
X12642786D01*
Y5983624D01*
X12664337D01*
Y5987216D01*
X12685889D01*
Y5990808D01*
X12703848D01*
Y6148853D01*
X12707440D01*
Y6159628D01*
X12711032D01*
Y6173996D01*
X12714624D01*
Y6188364D01*
X12718216D01*
Y6227875D01*
X12714624D01*
Y6235058D01*
X12711032D01*
Y6238650D01*
X12707440D01*
Y6242242D01*
X12703848D01*
Y6245834D01*
X12696664D01*
Y6249426D01*
X12693073D01*
Y6253018D01*
X12682297D01*
Y6256610D01*
X12671521D01*
Y6260202D01*
X12664337D01*
Y6263794D01*
X12657154D01*
Y6267386D01*
X12649970D01*
Y6270978D01*
X12646378D01*
Y6274570D01*
X12639194D01*
Y6278161D01*
X12635602D01*
Y6281754D01*
X12632010D01*
Y6285345D01*
X12628418D01*
Y6288937D01*
X12621234D01*
Y6296121D01*
X12617642D01*
Y6299713D01*
X12614050D01*
Y6303305D01*
X12610458D01*
Y6306897D01*
X12606867D01*
Y6310489D01*
X12603275D01*
Y6317673D01*
X12599683D01*
Y6321264D01*
X12596091D01*
Y6324857D01*
X12592499D01*
Y6328448D01*
X12588907D01*
Y6335632D01*
X12585315D01*
Y6339224D01*
X12581723D01*
Y6342816D01*
X12578131D01*
Y6346408D01*
X12574539D01*
Y6353592D01*
X12570947D01*
Y6357184D01*
X12567355D01*
Y6360776D01*
X12563764D01*
Y6364368D01*
X12560172D01*
Y6367960D01*
X12556580D01*
Y6371551D01*
X12552988D01*
Y6375143D01*
X12549396D01*
Y6378735D01*
X12545804D01*
Y6382327D01*
X12542212D01*
Y6385919D01*
X12538620D01*
Y6389511D01*
D02*
G37*
G36*
X12937323Y5746557D02*
X12933731D01*
Y5742966D01*
X12937323D01*
Y5746557D01*
D02*
G37*
G36*
X12287186Y6766663D02*
Y6759479D01*
X12290778D01*
Y6748703D01*
X12294370D01*
Y6737927D01*
X12297961D01*
Y6702008D01*
X12301554D01*
Y6694824D01*
X12305145D01*
Y6687640D01*
X12308737D01*
Y6680457D01*
X12312329D01*
Y6669681D01*
X12315921D01*
Y6637354D01*
X12319513D01*
Y6572699D01*
X12323105D01*
Y6561923D01*
X12326697D01*
Y6551147D01*
X12330289D01*
Y6540372D01*
X12333881D01*
Y6529596D01*
X12337473D01*
Y6518820D01*
X12341064D01*
Y6508044D01*
X12344657D01*
Y6497269D01*
X12348248D01*
Y6490085D01*
X12351840D01*
Y6493677D01*
X12369800D01*
Y6490085D01*
X12376984D01*
Y6486493D01*
X12387760D01*
Y6482901D01*
X12405719D01*
Y6479309D01*
X12423679D01*
Y6475717D01*
X12448822D01*
Y6472125D01*
X12477557D01*
Y6468533D01*
X12495517D01*
Y6464941D01*
X12466782D01*
Y6461350D01*
X12376984D01*
Y6464941D01*
X12355432D01*
Y6454166D01*
X12359024D01*
Y6443390D01*
X12362616D01*
Y6439798D01*
X12369800D01*
Y6436206D01*
X12398535D01*
Y6439798D01*
X12427271D01*
Y6443390D01*
X12445230D01*
Y6446982D01*
X12463190D01*
Y6450574D01*
X12477557D01*
Y6454166D01*
X12491925D01*
Y6457757D01*
X12502701D01*
Y6461350D01*
X12517069D01*
Y6464941D01*
X12527844D01*
Y6468533D01*
X12538620D01*
Y6472125D01*
X12560172D01*
Y6468533D01*
X12563764D01*
Y6464941D01*
X12567355D01*
Y6461350D01*
X12570947D01*
Y6457757D01*
X12574539D01*
Y6454166D01*
X12578131D01*
Y6450574D01*
X12581723D01*
Y6446982D01*
X12585315D01*
Y6443390D01*
X12588907D01*
Y6439798D01*
X12592499D01*
Y6436206D01*
X12599683D01*
Y6432614D01*
X12603275D01*
Y6429022D01*
X12610458D01*
Y6425430D01*
X12617642D01*
Y6421838D01*
X12628418D01*
Y6418246D01*
X12660745D01*
Y6421838D01*
X12667929D01*
Y6425430D01*
X12671521D01*
Y6429022D01*
X12675113D01*
Y6432614D01*
X12678705D01*
Y6436206D01*
X12682297D01*
Y6439798D01*
X12685889D01*
Y6443390D01*
X12689481D01*
Y6446982D01*
X12696664D01*
Y6450574D01*
X12703848D01*
Y6454166D01*
X12714624D01*
Y6457757D01*
X12743360D01*
Y6461350D01*
X12739768D01*
Y6464941D01*
X12732584D01*
Y6468533D01*
X12718216D01*
Y6472125D01*
X12703848D01*
Y6468533D01*
X12689481D01*
Y6464941D01*
X12682297D01*
Y6461350D01*
X12675113D01*
Y6464941D01*
X12667929D01*
Y6468533D01*
X12660745D01*
Y6472125D01*
X12653561D01*
Y6475717D01*
X12646378D01*
Y6479309D01*
X12639194D01*
Y6482901D01*
X12635602D01*
Y6486493D01*
X12628418D01*
Y6490085D01*
X12624826D01*
Y6493677D01*
X12621234D01*
Y6497269D01*
X12617642D01*
Y6500861D01*
X12614050D01*
Y6508044D01*
X12610458D01*
Y6511636D01*
X12606867D01*
Y6522412D01*
X12603275D01*
Y6529596D01*
X12599683D01*
Y6543964D01*
X12596091D01*
Y6558331D01*
X12592499D01*
Y6587067D01*
X12588907D01*
Y6608618D01*
X12592499D01*
Y6626578D01*
X12596091D01*
Y6637354D01*
X12599683D01*
Y6640945D01*
X12603275D01*
Y6644537D01*
X12606867D01*
Y6648129D01*
X12610458D01*
Y6651721D01*
X12617642D01*
Y6655313D01*
X12621234D01*
Y6651721D01*
X12624826D01*
Y6648129D01*
X12628418D01*
Y6640945D01*
X12632010D01*
Y6637354D01*
X12635602D01*
Y6630170D01*
X12639194D01*
Y6626578D01*
X12642786D01*
Y6619394D01*
X12646378D01*
Y6615802D01*
X12649970D01*
Y6608618D01*
X12653561D01*
Y6605026D01*
X12657154D01*
Y6597842D01*
X12660745D01*
Y6594250D01*
X12664337D01*
Y6587067D01*
X12667929D01*
Y6583475D01*
X12671521D01*
Y6576291D01*
X12675113D01*
Y6572699D01*
X12678705D01*
Y6569107D01*
X12682297D01*
Y6565515D01*
X12685889D01*
Y6558331D01*
X12689481D01*
Y6554739D01*
X12693073D01*
Y6551147D01*
X12696664D01*
Y6547556D01*
X12700257D01*
Y6543964D01*
X12703848D01*
Y6540372D01*
X12707440D01*
Y6536780D01*
X12711032D01*
Y6533188D01*
X12714624D01*
Y6529596D01*
X12718216D01*
Y6526004D01*
X12721808D01*
Y6522412D01*
X12728992D01*
Y6518820D01*
X12736176D01*
Y6515228D01*
X12739768D01*
Y6511636D01*
X12746951D01*
Y6508044D01*
X12754135D01*
Y6504453D01*
X12764911D01*
Y6500861D01*
X12772095D01*
Y6497269D01*
X12779279D01*
Y6493677D01*
X12786463D01*
Y6490085D01*
X12797238D01*
Y6486493D01*
X12804422D01*
Y6482901D01*
X12811606D01*
Y6479309D01*
X12822382D01*
Y6475717D01*
X12829565D01*
Y6472125D01*
X12840341D01*
Y6468533D01*
X12847525D01*
Y6464941D01*
X12858301D01*
Y6461350D01*
X12865485D01*
Y6457757D01*
X12872668D01*
Y6454166D01*
X12879852D01*
Y6450574D01*
X12883444D01*
Y6446982D01*
X12890628D01*
Y6443390D01*
X12894220D01*
Y6439798D01*
X12897812D01*
Y6436206D01*
X12901404D01*
Y6432614D01*
X12904996D01*
Y6429022D01*
X12908588D01*
Y6421838D01*
X12912180D01*
Y6418246D01*
X12915771D01*
Y6411063D01*
X12919363D01*
Y6403879D01*
X12922955D01*
Y6396695D01*
X12926547D01*
Y6393103D01*
X12930139D01*
Y6385919D01*
X12933731D01*
Y6375143D01*
X12937323D01*
Y6364368D01*
X12940915D01*
Y6353592D01*
X12944507D01*
Y6342816D01*
X12948099D01*
Y6328448D01*
X12951691D01*
Y6317673D01*
X12955283D01*
Y6303305D01*
X12958875D01*
Y6288937D01*
X12962466D01*
Y6274570D01*
X12966058D01*
Y6256610D01*
X12969650D01*
Y6242242D01*
X12973242D01*
Y6227875D01*
X12976834D01*
Y6209915D01*
X12980426D01*
Y6191956D01*
X12984018D01*
Y6181180D01*
X12987610D01*
Y6170404D01*
X12991202D01*
Y6163220D01*
X12994794D01*
Y6156036D01*
X12998386D01*
Y6148853D01*
X13001978D01*
Y6141669D01*
X13005569D01*
Y6138077D01*
X13009161D01*
Y6130893D01*
X13012753D01*
Y6127301D01*
X13016345D01*
Y6120117D01*
X13019937D01*
Y6116525D01*
X13023529D01*
Y6109341D01*
X13027121D01*
Y6102157D01*
X13030713D01*
Y6098566D01*
X13034305D01*
Y6091382D01*
X13037897D01*
Y6084198D01*
X13041489D01*
Y6077014D01*
X13045081D01*
Y6073422D01*
X13048672D01*
Y6066238D01*
X13052264D01*
Y6059054D01*
X13055856D01*
Y6055463D01*
X13059448D01*
Y6048279D01*
X13063040D01*
Y6041095D01*
X13066632D01*
Y6037503D01*
X13070224D01*
Y6030319D01*
X13073816D01*
Y6023135D01*
X13077408D01*
Y6019543D01*
X13081000D01*
Y6012360D01*
X13084592D01*
Y6001584D01*
X13081000D01*
Y5994400D01*
X13095367D01*
Y5997992D01*
X13098959D01*
Y5994400D01*
X13113327D01*
Y5990808D01*
X13120511D01*
Y5983624D01*
X13124103D01*
Y5972848D01*
X13127695D01*
Y5969257D01*
X13131287D01*
Y5962073D01*
X13134879D01*
Y5958481D01*
X13138470D01*
Y5954889D01*
X13142062D01*
Y5947705D01*
X13145654D01*
Y5944113D01*
X13149246D01*
Y5940521D01*
X13152838D01*
Y5936929D01*
X13156430D01*
Y5933337D01*
X13160022D01*
Y5929745D01*
X13163614D01*
Y5926154D01*
X13167206D01*
Y5922561D01*
X13170798D01*
Y5918970D01*
X13174390D01*
Y5915378D01*
X13177982D01*
Y5911786D01*
X13181573D01*
Y5908194D01*
X13185165D01*
Y5904602D01*
X13188757D01*
Y5901010D01*
X13192349D01*
Y5897418D01*
X13195941D01*
Y5893826D01*
X13199533D01*
Y5890234D01*
X13203125D01*
Y5886642D01*
X13206717D01*
Y5883050D01*
X13213901D01*
Y5879458D01*
X13217493D01*
Y5875867D01*
X13221085D01*
Y5872275D01*
X13228268D01*
Y5868683D01*
X13231860D01*
Y5865091D01*
X13235452D01*
Y5861499D01*
X13239044D01*
Y5857907D01*
X13242636D01*
Y5854315D01*
X13249820D01*
Y5850723D01*
X13253412D01*
Y5847131D01*
X13257004D01*
Y5843539D01*
X13260596D01*
Y5839947D01*
X13264188D01*
Y5836356D01*
X13267780D01*
Y5832764D01*
X13271371D01*
Y5829172D01*
X13274963D01*
Y5825580D01*
X13278555D01*
Y5814804D01*
X13282147D01*
Y5782477D01*
X13285739D01*
Y5775293D01*
X13282147D01*
Y5753741D01*
X13285739D01*
Y5750150D01*
X13292923D01*
Y5746557D01*
X13300107D01*
Y5742966D01*
X13307291D01*
Y5739374D01*
X13314474D01*
Y5735782D01*
X13321658D01*
Y5732190D01*
X13325250D01*
Y5728598D01*
X13332434D01*
Y5725006D01*
X13336026D01*
Y5721414D01*
X13339618D01*
Y5710638D01*
X13332434D01*
Y5707046D01*
X13289331D01*
Y5710638D01*
X13253412D01*
Y5714230D01*
X13246228D01*
Y5710638D01*
X13253412D01*
Y5707046D01*
X13257004D01*
Y5699863D01*
X13253412D01*
Y5696271D01*
X13249820D01*
Y5692679D01*
X13246228D01*
Y5689087D01*
X13242636D01*
Y5685495D01*
X13239044D01*
Y5681903D01*
X13235452D01*
Y5678311D01*
X13231860D01*
Y5674719D01*
X13228268D01*
Y5671127D01*
X13224677D01*
Y5667535D01*
X13221085D01*
Y5663943D01*
X13213901D01*
Y5660351D01*
X13192349D01*
Y5663943D01*
X13188757D01*
Y5660351D01*
X13185165D01*
Y5656760D01*
X13181573D01*
Y5653168D01*
X13177982D01*
Y5645984D01*
X13174390D01*
Y5642392D01*
X13170798D01*
Y5638800D01*
X13167206D01*
Y5631616D01*
X13163614D01*
Y5628024D01*
X13160022D01*
Y5624432D01*
X13156430D01*
Y5620840D01*
X13152838D01*
Y5617248D01*
X13149246D01*
Y5613657D01*
X13145654D01*
Y5610064D01*
X13142062D01*
Y5606473D01*
X13138470D01*
Y5602881D01*
X13134879D01*
Y5599289D01*
X13131287D01*
Y5595697D01*
X13113327D01*
Y5599289D01*
X13109735D01*
Y5602881D01*
X13106143D01*
Y5606473D01*
X13102551D01*
Y5610064D01*
X13098959D01*
Y5613657D01*
X13095367D01*
Y5617248D01*
X13091776D01*
Y5620840D01*
X13088184D01*
Y5624432D01*
X13084592D01*
Y5628024D01*
X13077408D01*
Y5631616D01*
X13073816D01*
Y5635208D01*
X13070224D01*
Y5638800D01*
X13066632D01*
Y5667535D01*
X13070224D01*
Y5692679D01*
X13073816D01*
Y5696271D01*
X13077408D01*
Y5699863D01*
X13081000D01*
Y5703454D01*
X13088184D01*
Y5707046D01*
X13091776D01*
Y5710638D01*
X13081000D01*
Y5707046D01*
X13059448D01*
Y5703454D01*
X13045081D01*
Y5699863D01*
X13009161D01*
Y5703454D01*
X13005569D01*
Y5707046D01*
X13001978D01*
Y5710638D01*
X12998386D01*
Y5714230D01*
X12994794D01*
Y5717822D01*
X12987610D01*
Y5721414D01*
X12980426D01*
Y5725006D01*
X12973242D01*
Y5728598D01*
X12944507D01*
Y5725006D01*
X12933731D01*
Y5742966D01*
X12926547D01*
Y5739374D01*
X12922955D01*
Y5735782D01*
X12915771D01*
Y5732190D01*
X12890628D01*
Y5735782D01*
X12883444D01*
Y5739374D01*
X12876260D01*
Y5742966D01*
X12869077D01*
Y5746557D01*
X12861893D01*
Y5750150D01*
X12854709D01*
Y5753741D01*
X12847525D01*
Y5757333D01*
X12843933D01*
Y5760925D01*
X12836749D01*
Y5764517D01*
X12829565D01*
Y5768109D01*
X12825974D01*
Y5771701D01*
X12822382D01*
Y5775293D01*
X12815198D01*
Y5778885D01*
X12811606D01*
Y5782477D01*
X12808014D01*
Y5786069D01*
X12804422D01*
Y5789661D01*
X12800830D01*
Y5793253D01*
X12797238D01*
Y5796844D01*
X12793646D01*
Y5804028D01*
X12790054D01*
Y5807620D01*
X12786463D01*
Y5811212D01*
X12782871D01*
Y5818396D01*
X12779279D01*
Y5825580D01*
X12775687D01*
Y5829172D01*
X12772095D01*
Y5839947D01*
X12768503D01*
Y5850723D01*
X12764911D01*
Y5865091D01*
X12761319D01*
Y5868683D01*
X12750543D01*
Y5872275D01*
X12732584D01*
Y5875867D01*
X12703848D01*
Y5879458D01*
X12667929D01*
Y5883050D01*
X12606867D01*
Y5886642D01*
X12488333D01*
Y5883050D01*
X12481149D01*
Y5857907D01*
X12477557D01*
Y5847131D01*
X12473966D01*
Y5843539D01*
X12470374D01*
Y5839947D01*
X12463190D01*
Y5836356D01*
X12459598D01*
Y5832764D01*
X12466782D01*
Y5836356D01*
X12477557D01*
Y5839947D01*
X12484741D01*
Y5843539D01*
X12495517D01*
Y5847131D01*
X12506293D01*
Y5850723D01*
X12513477D01*
Y5854315D01*
X12524252D01*
Y5857907D01*
X12531436D01*
Y5861499D01*
X12538620D01*
Y5865091D01*
X12549396D01*
Y5868683D01*
X12614050D01*
Y5865091D01*
X12642786D01*
Y5861499D01*
X12664337D01*
Y5857907D01*
X12685889D01*
Y5854315D01*
X12700257D01*
Y5850723D01*
X12714624D01*
Y5847131D01*
X12718216D01*
Y5839947D01*
X12721808D01*
Y5836356D01*
X12725400D01*
Y5829172D01*
X12728992D01*
Y5825580D01*
X12732584D01*
Y5821988D01*
X12736176D01*
Y5818396D01*
X12739768D01*
Y5811212D01*
X12621234D01*
Y5807620D01*
X12610458D01*
Y5804028D01*
X12592499D01*
Y5800436D01*
X12556580D01*
Y5796844D01*
X12531436D01*
Y5793253D01*
X12509885D01*
Y5789661D01*
X12495517D01*
Y5786069D01*
X12488333D01*
Y5778885D01*
X12491925D01*
Y5746557D01*
X12495517D01*
Y5739374D01*
X12499109D01*
Y5732190D01*
X12502701D01*
Y5725006D01*
X12506293D01*
Y5717822D01*
X12509885D01*
Y5707046D01*
X12506293D01*
Y5696271D01*
X12502701D01*
Y5689087D01*
X12499109D01*
Y5681903D01*
X12495517D01*
Y5678311D01*
X12491925D01*
Y5671127D01*
X12488333D01*
Y5667535D01*
X12484741D01*
Y5649576D01*
X12481149D01*
Y5631616D01*
X12477557D01*
Y5610064D01*
X12473966D01*
Y5592105D01*
X12470374D01*
Y5584921D01*
X12466782D01*
Y5581329D01*
X12463190D01*
Y5574145D01*
X12459598D01*
Y5566961D01*
X12456006D01*
Y5563370D01*
X12452414D01*
Y5556186D01*
X12448822D01*
Y5549002D01*
X12445230D01*
Y5541818D01*
X12441638D01*
Y5538226D01*
X12438046D01*
Y5531042D01*
X12434454D01*
Y5523858D01*
X12430863D01*
Y5520267D01*
X12427271D01*
Y5513083D01*
X12423679D01*
Y5509491D01*
X12420087D01*
Y5505899D01*
X12416495D01*
Y5502307D01*
X12412903D01*
Y5495123D01*
X12409311D01*
Y5491531D01*
X12405719D01*
Y5487939D01*
X12402127D01*
Y5484347D01*
X12398535D01*
Y5480756D01*
X12394943D01*
Y5473572D01*
X12391351D01*
Y5469980D01*
X12387760D01*
Y5466388D01*
X12380576D01*
Y5462796D01*
X12376984D01*
Y5459204D01*
X12369800D01*
Y5455612D01*
X12366208D01*
Y5452020D01*
X13450967D01*
Y6766663D01*
X13257004D01*
X12287186D01*
D02*
G37*
G36*
X13210309Y5689087D02*
X13206717D01*
Y5685495D01*
X13203125D01*
Y5681903D01*
X13199533D01*
Y5674719D01*
X13195941D01*
Y5671127D01*
X13192349D01*
Y5663943D01*
X13195941D01*
Y5667535D01*
X13199533D01*
Y5671127D01*
X13206717D01*
Y5674719D01*
X13210309D01*
Y5678311D01*
X13213901D01*
Y5685495D01*
X13210309D01*
Y5689087D01*
D02*
G37*
G36*
X12100406Y6766663D02*
X12096814D01*
X11802277D01*
Y5452020D01*
X12211755D01*
Y6766663D01*
X12100406D01*
D02*
G37*
%LPD*%
G36*
X13296515Y5775293D02*
X13303699D01*
X13303699Y5771701D01*
X13310883D01*
Y5768109D01*
X13314474D01*
Y5764517D01*
X13321658D01*
X13321658Y5760925D01*
X13325250D01*
Y5753741D01*
X13321658D01*
X13321658Y5750150D01*
X13310883D01*
Y5746557D01*
X13303699D01*
Y5750150D01*
X13300107D01*
Y5753741D01*
X13292923D01*
Y5778885D01*
X13296515D01*
Y5775293D01*
D02*
G37*
G36*
X12089630Y6633761D02*
X12089630Y6619394D01*
X12093222D01*
Y6594250D01*
X12096814D01*
Y6572699D01*
X12100406D01*
Y6551147D01*
X11938770D01*
Y6511636D01*
X11910034D01*
X11910034Y6630170D01*
X11938770Y6630169D01*
X11938770Y6587067D01*
X12068079D01*
Y6590658D01*
X12064487D01*
Y6619394D01*
X12060895D01*
Y6630170D01*
X12071671Y6630169D01*
Y6633762D01*
X12089630Y6633761D01*
D02*
G37*
G36*
X11989057Y6353592D02*
X11996240D01*
Y6350000D01*
X11999832D01*
Y6346408D01*
X12003424D01*
Y6342816D01*
X12007016D01*
Y6335632D01*
X12010608D01*
Y6342816D01*
X12014200D01*
Y6346408D01*
X12017792D01*
Y6350000D01*
X12024976Y6350000D01*
Y6353592D01*
X12046527Y6353592D01*
X12050119D01*
X12075263Y6353592D01*
Y6350000D01*
X12086038Y6350000D01*
Y6346408D01*
X12089630D01*
Y6342816D01*
X12093222D01*
Y6339224D01*
X12096814Y6339225D01*
Y6328449D01*
X12100406D01*
Y6288938D01*
X12103998Y6288937D01*
Y6278161D01*
X12100406Y6278162D01*
Y6238651D01*
X12096814D01*
Y6227875D01*
X12093222D01*
Y6224283D01*
X12089630Y6224282D01*
Y6220691D01*
X12086038D01*
Y6217099D01*
X12075263D01*
Y6213507D01*
X12024976D01*
Y6217099D01*
X12017792D01*
Y6220691D01*
X12014200D01*
X12014200Y6224283D01*
X12010608D01*
Y6231467D01*
X12007016D01*
X12007016Y6227875D01*
X12003424D01*
Y6220691D01*
X11999832D01*
Y6217099D01*
X11996240D01*
Y6213507D01*
X11989057D01*
Y6209915D01*
X11931586Y6209915D01*
Y6213507D01*
X11924402D01*
Y6217099D01*
X11917218D01*
Y6224283D01*
X11913626D01*
Y6231467D01*
X11910034D01*
X11910034Y6263794D01*
X11906442D01*
Y6303305D01*
X11910034D01*
Y6335632D01*
X11913626D01*
Y6342816D01*
X11917218D01*
Y6350000D01*
X11920810D01*
Y6353592D01*
X11931586Y6353592D01*
X11931586Y6357184D01*
X11989057D01*
Y6353592D01*
D02*
G37*
G36*
X11985464Y6041095D02*
X11996240D01*
Y6037503D01*
X11999832D01*
Y6033911D01*
X12003424Y6033911D01*
X12003424Y6026727D01*
X12007016D01*
Y6019543D01*
X12010608D01*
Y6030319D01*
X12014200D01*
X12014200Y6033911D01*
X12017792D01*
Y6037503D01*
X12032160D01*
Y6041095D01*
X12068079D01*
Y6037503D01*
X12082446D01*
Y6033911D01*
X12089630Y6033911D01*
Y6030319D01*
X12093222D01*
Y6023135D01*
X12096814D01*
Y6015951D01*
X12100406D01*
Y5972848D01*
X12103998D01*
Y5965664D01*
X12100406D01*
Y5926154D01*
X12096814D01*
Y5915378D01*
X12093222D01*
Y5908194D01*
X12089630Y5908194D01*
Y5904602D01*
X12078854D01*
Y5901010D01*
X12021384D01*
Y5904602D01*
X12014200D01*
Y5911786D01*
X12010608D01*
Y5918970D01*
X12007016D01*
Y5911786D01*
X12003424D01*
Y5904602D01*
X11999832D01*
X11999832Y5901010D01*
X11992648D01*
Y5897418D01*
X11981873D01*
Y5893826D01*
X11942361D01*
Y5897418D01*
X11927994D01*
Y5901010D01*
X11920810D01*
Y5904602D01*
X11917218D01*
Y5908194D01*
X11913626D01*
X11913626Y5918970D01*
X11910034D01*
X11910034Y5951297D01*
X11906443D01*
Y5990808D01*
X11910034D01*
X11910034Y6019543D01*
X11913626D01*
Y6030319D01*
X11917218D01*
Y6033911D01*
X11920810D01*
Y6037503D01*
X11924402D01*
Y6041095D01*
X11935178D01*
Y6044687D01*
X11985464D01*
Y6041095D01*
D02*
G37*
G36*
X11963913Y5692679D02*
X11949545D01*
Y5689087D01*
X11942361D01*
Y5685495D01*
X11938770D01*
X11938770Y5681903D01*
Y5631616D01*
X11942361D01*
Y5628024D01*
X11945954D01*
Y5624432D01*
X11985464D01*
Y5628024D01*
X11992648D01*
Y5638800D01*
X11996240D01*
Y5710638D01*
X11992648D01*
Y5725006D01*
X12096814D01*
Y5721414D01*
X12100406D01*
Y5592105D01*
X12050119D01*
X12050119Y5620840D01*
X12060895D01*
Y5624432D01*
X12071671D01*
Y5689087D01*
X12021384D01*
X12021384Y5685495D01*
X12024975D01*
X12024976Y5617248D01*
X12021384D01*
Y5602881D01*
X12017792Y5602881D01*
Y5599289D01*
X12014200D01*
Y5595697D01*
X12010608D01*
Y5592105D01*
X12007016D01*
Y5588513D01*
X11992648D01*
Y5584921D01*
X11938770D01*
X11938770Y5588513D01*
X11927994D01*
Y5592105D01*
X11920810D01*
Y5595697D01*
X11917218D01*
Y5599289D01*
X11913626D01*
X11913626Y5610064D01*
X11910034D01*
X11910034Y5638800D01*
X11906442D01*
Y5674719D01*
X11910034D01*
Y5703454D01*
X11913626Y5703454D01*
X11913626Y5714230D01*
X11917218D01*
Y5721414D01*
X11924402D01*
Y5725006D01*
X11931586D01*
Y5728598D01*
X11963913Y5728598D01*
Y5692679D01*
D02*
G37*
%LPC*%
G36*
X12057303Y6317673D02*
X12042935D01*
X12039343D01*
Y6314081D01*
X12028568D01*
Y6310489D01*
X12024976D01*
Y6303305D01*
X12021384D01*
Y6263794D01*
X12024976D01*
Y6256610D01*
X12028568D01*
Y6253018D01*
X12042935D01*
Y6249426D01*
X12053711D01*
Y6253018D01*
X12068079D01*
Y6256610D01*
X12071671D01*
Y6310489D01*
X12068079D01*
Y6314081D01*
X12057303D01*
Y6317673D01*
D02*
G37*
G36*
X11978281Y6321264D02*
X11949545D01*
Y6317673D01*
X11942361D01*
Y6314081D01*
X11938770D01*
Y6253018D01*
X11942361D01*
Y6249426D01*
X11949545D01*
Y6245834D01*
X11978281D01*
Y6249426D01*
X11985464D01*
Y6253018D01*
X11989057D01*
Y6256610D01*
X11992648D01*
Y6310489D01*
X11989057D01*
Y6314081D01*
X11985464D01*
Y6317673D01*
X11978281D01*
Y6321264D01*
D02*
G37*
G36*
X12064487Y6001584D02*
X12028568D01*
Y5997992D01*
X12024976D01*
Y5990808D01*
X12021384D01*
Y5947705D01*
X12024976D01*
Y5940521D01*
X12032160D01*
Y5936929D01*
X12064487D01*
Y5940521D01*
X12068079D01*
Y5944113D01*
X12071671D01*
Y5994400D01*
X12068079D01*
Y5997992D01*
X12064487D01*
Y6001584D01*
D02*
G37*
G36*
X11985464Y6005176D02*
X11945954D01*
Y6001584D01*
X11942361D01*
Y5997992D01*
X11938770D01*
Y5940521D01*
X11942361D01*
Y5936929D01*
X11945954D01*
Y5933337D01*
X11981873D01*
Y5936929D01*
X11989057D01*
Y5944113D01*
X11992648D01*
Y5994400D01*
X11989057D01*
Y6001584D01*
X11985464D01*
Y6005176D01*
D02*
G37*
%LPD*%
D71*
X10291600Y3922095D02*
G03*
X10291600Y3922095I-30000J0D01*
G01*
D72*
X10274100Y3632200D02*
G03*
X10274100Y3632200I-12500J0D01*
G01*
X12959599Y4580800D02*
G03*
X12959599Y4580800I-12500J0D01*
G01*
X9887500Y5829200D02*
G03*
X9887500Y5829200I-12500J0D01*
G01*
X3676200Y4006600D02*
G03*
X3676200Y4006600I-12500J0D01*
G01*
X645000Y2806000D02*
G03*
X645000Y2806000I-12500J0D01*
G01*
X8784700Y1590040D02*
G03*
X8784700Y1590040I-12500J0D01*
G01*
X2055680Y3277620D02*
G03*
X2055680Y3277620I-12500J0D01*
G01*
X3840060Y6371340D02*
G03*
X3840060Y6371340I-12500J0D01*
G01*
X4055460Y5546340D02*
G03*
X4055460Y5546340I-12500J0D01*
G01*
X5160860Y6371340D02*
G03*
X5160860Y6371340I-12500J0D01*
G01*
X8337500Y5885000D02*
G03*
X8337500Y5885000I-12500J0D01*
G01*
D73*
X6121400Y3035300D02*
G03*
X6121400Y2527300I0J-254000D01*
G01*
Y5702300D02*
G03*
X6121400Y5194300I0J-254000D01*
G01*
X8661400Y5511800D02*
G03*
X8458200Y5702300I-196850J-6350D01*
G01*
X8470897Y2527300D02*
G03*
X8661397Y2730500I-6350J196850D01*
G01*
X6121400Y5194300D02*
X6375400D01*
Y3035300D02*
Y5194300D01*
X6121400Y3035300D02*
X6375400D01*
X6121400Y5702300D02*
X8458200D01*
X6121400Y2527300D02*
X8470897D01*
X8661400Y5511800D02*
X8661400Y2730500D01*
X8397240Y2258060D02*
X8402957Y2257772D01*
X8402975Y2235200D01*
X7825740Y2258060D02*
X8397240D01*
X6703060D02*
X7825740D01*
X6085840D02*
X6703060D01*
X5816600D02*
X6085840D01*
X5816600Y2235200D02*
Y2258060D01*
X9801860Y5257800D02*
Y5511800D01*
X8966200Y5257800D02*
X9801860D01*
X8966200Y5511800D02*
X9801860D01*
X8966200Y5257800D02*
Y5511800D01*
X7717634Y1981200D02*
X8402975D01*
Y2235200D01*
X7717634Y1981200D02*
Y2258060D01*
X6248400Y1981200D02*
X7717634D01*
X6197600D02*
X6877505D01*
Y2258060D01*
X5816600Y1981200D02*
Y2235200D01*
Y1981200D02*
X6248400D01*
X6197600D02*
Y2255520D01*
X6146603Y3510280D02*
X6128276Y3528607D01*
Y3565262D01*
X6146603Y3583590D01*
X6164930D01*
X6183258Y3565262D01*
X6201585Y3583590D01*
X6219913D01*
X6238240Y3565262D01*
Y3528607D01*
X6219913Y3510280D01*
X6201585D01*
X6183258Y3528607D01*
X6164930Y3510280D01*
X6146603D01*
X6183258Y3528607D02*
Y3565262D01*
X6146603Y3620244D02*
X6128276Y3638572D01*
Y3675227D01*
X6146603Y3693554D01*
X6164930D01*
X6183258Y3675227D01*
Y3656899D01*
Y3675227D01*
X6201585Y3693554D01*
X6219913D01*
X6238240Y3675227D01*
Y3638572D01*
X6219913Y3620244D01*
X6238240Y3730209D02*
Y3766864D01*
Y3748536D01*
X6128276D01*
X6146603Y3730209D01*
X6238240Y3895156D02*
Y3821846D01*
X6164930Y3895156D01*
X6146603D01*
X6128276Y3876828D01*
Y3840173D01*
X6146603Y3821846D01*
Y3931811D02*
X6128276Y3950138D01*
Y3986793D01*
X6146603Y4005120D01*
X6219913D01*
X6238240Y3986793D01*
Y3950138D01*
X6219913Y3931811D01*
X6146603D01*
X6238240Y4115085D02*
Y4041775D01*
X6164930Y4115085D01*
X6146603D01*
X6128276Y4096757D01*
Y4060102D01*
X6146603Y4041775D01*
X6128276Y4225049D02*
Y4151739D01*
X6183258D01*
X6164930Y4188394D01*
Y4206722D01*
X6183258Y4225049D01*
X6219913D01*
X6238240Y4206722D01*
Y4170067D01*
X6219913Y4151739D01*
X6238240Y4261704D02*
X6128276D01*
X6164930Y4298359D01*
X6128276Y4335014D01*
X6238240D01*
X6128276Y4371668D02*
Y4444978D01*
Y4408323D01*
X6238240D01*
X6128276Y4481633D02*
X6219913D01*
X6238240Y4499960D01*
Y4536615D01*
X6219913Y4554943D01*
X6128276D01*
X6183258Y4591597D02*
Y4664907D01*
X6128276Y4701562D02*
X6201585D01*
X6238240Y4738217D01*
X6201585Y4774872D01*
X6128276D01*
X6238240Y4811526D02*
Y4848181D01*
Y4829854D01*
X6128276D01*
X6146603Y4811526D01*
X6498188Y2849028D02*
Y2882884D01*
X6515116Y2899812D01*
X6565900D01*
Y2849028D01*
X6548972Y2832100D01*
X6532044Y2849028D01*
Y2899812D01*
X6464333Y3001379D02*
X6565900D01*
Y2950595D01*
X6548972Y2933667D01*
X6515116D01*
X6498188Y2950595D01*
Y3001379D01*
Y3052163D02*
Y3086018D01*
X6515116Y3102946D01*
X6565900D01*
Y3052163D01*
X6548972Y3035235D01*
X6532044Y3052163D01*
Y3102946D01*
X6565900Y3153730D02*
X6481260D01*
X6515116D01*
Y3136802D01*
Y3170658D01*
Y3153730D01*
X6481260D01*
X6464333Y3170658D01*
X6498188Y3221441D02*
X6565900D01*
X6532044D01*
X6515116Y3238369D01*
X6498188Y3255297D01*
Y3272225D01*
Y3323009D02*
X6548972D01*
X6565900Y3339936D01*
Y3390720D01*
X6498188D01*
X6565900Y3424576D02*
Y3458431D01*
Y3441504D01*
X6498188D01*
Y3424576D01*
X6481260Y3526143D02*
X6498188D01*
Y3509215D01*
Y3543071D01*
Y3526143D01*
X6548972D01*
X6565900Y3543071D01*
Y3763133D02*
Y3695422D01*
X6498188Y3763133D01*
X6481260D01*
X6464333Y3746205D01*
Y3712350D01*
X6481260Y3695422D01*
X6565900Y3847773D02*
X6464333D01*
X6515116Y3796989D01*
Y3864700D01*
X6481260Y3898556D02*
X6464333Y3915484D01*
Y3949340D01*
X6481260Y3966268D01*
X6548972D01*
X6565900Y3949340D01*
Y3915484D01*
X6548972Y3898556D01*
X6481260D01*
X6498188Y4000124D02*
X6565900Y4067835D01*
X6532044Y4033979D01*
X6498188Y4067835D01*
X6565900Y4000124D01*
Y4101691D02*
Y4135546D01*
Y4118619D01*
X6464333D01*
X6481260Y4101691D01*
Y4186330D02*
X6464333Y4203258D01*
Y4237114D01*
X6481260Y4254042D01*
X6498188D01*
X6515116Y4237114D01*
Y4220186D01*
Y4237114D01*
X6532044Y4254042D01*
X6548972D01*
X6565900Y4237114D01*
Y4203258D01*
X6548972Y4186330D01*
X6464333Y4355609D02*
Y4287897D01*
X6515116D01*
X6498188Y4321753D01*
Y4338681D01*
X6515116Y4355609D01*
X6548972D01*
X6565900Y4338681D01*
Y4304825D01*
X6548972Y4287897D01*
X6481260Y4558743D02*
X6464333Y4541815D01*
Y4507960D01*
X6481260Y4491032D01*
X6548972D01*
X6565900Y4507960D01*
Y4541815D01*
X6548972Y4558743D01*
X6565900Y4609527D02*
Y4643383D01*
X6548972Y4660310D01*
X6515116D01*
X6498188Y4643383D01*
Y4609527D01*
X6515116Y4592599D01*
X6548972D01*
X6565900Y4609527D01*
Y4694166D02*
Y4728022D01*
Y4711094D01*
X6464333D01*
Y4694166D01*
X6565900Y4795734D02*
Y4829589D01*
X6548972Y4846517D01*
X6515116D01*
X6498188Y4829589D01*
Y4795734D01*
X6515116Y4778806D01*
X6548972D01*
X6565900Y4795734D01*
X6498188Y4880373D02*
X6565900D01*
X6532044D01*
X6515116Y4897301D01*
X6498188Y4914229D01*
Y4931157D01*
X6464333Y5083507D02*
Y5151219D01*
Y5117363D01*
X6565900D01*
X6464333Y5252786D02*
Y5185075D01*
X6515116D01*
Y5218930D01*
Y5185075D01*
X6565900D01*
X6464333Y5286642D02*
Y5354353D01*
Y5320498D01*
X6565900D01*
X1041449Y2895575D02*
Y2844792D01*
X1066841Y2819400D01*
X1168408D01*
X1193800Y2844792D01*
Y2895575D01*
X1168408Y2920967D01*
X1066841D01*
X1041449Y2895575D01*
X1193800Y2971750D02*
X1041449D01*
X1193800Y3073318D01*
X1041449D01*
X1092200Y5232400D02*
X1193767D01*
X1092200Y4622783D02*
X1193767D01*
X1142983Y4673567D02*
Y4572000D01*
X9029700Y5311140D02*
Y5463491D01*
X9105875D01*
X9131267Y5438099D01*
Y5387315D01*
X9105875Y5361923D01*
X9029700D01*
X9080483D02*
X9131267Y5311140D01*
X9283618Y5463491D02*
X9182051D01*
Y5311140D01*
X9283618D01*
X9182051Y5387315D02*
X9232834D01*
X9435969Y5438099D02*
X9410577Y5463491D01*
X9359793D01*
X9334401Y5438099D01*
Y5412707D01*
X9359793Y5387315D01*
X9410577D01*
X9435969Y5361923D01*
Y5336532D01*
X9410577Y5311140D01*
X9359793D01*
X9334401Y5336532D01*
X9588319Y5463491D02*
X9486752D01*
Y5311140D01*
X9588319D01*
X9486752Y5387315D02*
X9537536D01*
X9639103Y5463491D02*
X9740670D01*
X9689886D01*
Y5311140D01*
X7788064Y2181253D02*
Y2028902D01*
X7864240D01*
X7889632Y2054294D01*
Y2155861D01*
X7864240Y2181253D01*
X7788064D01*
X8016591D02*
X7965807D01*
X7940415Y2155861D01*
Y2054294D01*
X7965807Y2028902D01*
X8016591D01*
X8041982Y2054294D01*
Y2155861D01*
X8016591Y2181253D01*
X8092766D02*
Y2028902D01*
X8143549Y2079686D01*
X8194333Y2028902D01*
Y2181253D01*
X8245117Y2028902D02*
Y2181253D01*
X8346684Y2028902D01*
Y2181253D01*
X7032786Y2191064D02*
X6931219D01*
Y2038713D01*
X7032786D01*
X6931219Y2114888D02*
X6982002D01*
X7083570Y2038713D02*
Y2191064D01*
X7185137Y2038713D01*
Y2191064D01*
X7235920D02*
X7337487D01*
X7286704D01*
Y2038713D01*
X7489838Y2191064D02*
X7388271D01*
Y2038713D01*
X7489838D01*
X7388271Y2114888D02*
X7439054D01*
X7540622Y2038713D02*
Y2191064D01*
X7616797D01*
X7642189Y2165672D01*
Y2114888D01*
X7616797Y2089496D01*
X7540622D01*
X7591405D02*
X7642189Y2038713D01*
X6260478Y2183742D02*
Y2031392D01*
X6336653D01*
X6362045Y2056784D01*
Y2082175D01*
X6336653Y2107567D01*
X6260478D01*
X6336653D01*
X6362045Y2132959D01*
Y2158351D01*
X6336653Y2183742D01*
X6260478D01*
X6412829Y2031392D02*
Y2132959D01*
X6463612Y2183742D01*
X6514396Y2132959D01*
Y2031392D01*
Y2107567D01*
X6412829D01*
X6666747Y2158351D02*
X6641355Y2183742D01*
X6590571D01*
X6565179Y2158351D01*
Y2056784D01*
X6590571Y2031392D01*
X6641355D01*
X6666747Y2056784D01*
X6717530Y2183742D02*
Y2031392D01*
Y2082175D01*
X6819097Y2183742D01*
X6742922Y2107567D01*
X6819097Y2031392D01*
X5882640Y2185207D02*
Y2058248D01*
X5908032Y2032856D01*
X5958815D01*
X5984207Y2058248D01*
Y2185207D01*
X6034990Y2032856D02*
Y2185207D01*
X6111166D01*
X6136558Y2159815D01*
Y2109032D01*
X6111166Y2083640D01*
X6034990D01*
X6654825Y4000582D02*
X6807175D01*
Y4102150D01*
X6680217Y4254500D02*
X6654825Y4229108D01*
Y4178325D01*
X6680217Y4152933D01*
X6781783D01*
X6807175Y4178325D01*
Y4229108D01*
X6781783Y4254500D01*
X6654825Y4305284D02*
X6807175D01*
Y4381459D01*
X6781783Y4406851D01*
X6680217D01*
X6654825Y4381459D01*
Y4305284D01*
X6807175Y4457634D02*
Y4508418D01*
Y4483026D01*
X6654825D01*
X6680217Y4457634D01*
X10456233Y2048784D02*
X10430841Y2074175D01*
X10380058D01*
X10354666Y2048784D01*
Y2023392D01*
X10380058Y1998000D01*
X10430841D01*
X10456233Y1972608D01*
Y1947217D01*
X10430841Y1921825D01*
X10380058D01*
X10354666Y1947217D01*
X10507017Y2074175D02*
Y1921825D01*
X10557800Y1972608D01*
X10608584Y1921825D01*
Y2074175D01*
X10760935D02*
X10659367D01*
Y1998000D01*
X10710151Y2023392D01*
X10735543D01*
X10760935Y1998000D01*
Y1947217D01*
X10735543Y1921825D01*
X10684759D01*
X10659367Y1947217D01*
X9795833Y2048784D02*
X9770441Y2074175D01*
X9719658D01*
X9694266Y2048784D01*
Y2023392D01*
X9719658Y1998000D01*
X9770441D01*
X9795833Y1972608D01*
Y1947217D01*
X9770441Y1921825D01*
X9719658D01*
X9694266Y1947217D01*
X9846617Y2074175D02*
Y1921825D01*
X9897400Y1972608D01*
X9948184Y1921825D01*
Y2074175D01*
X10075143Y1921825D02*
Y2074175D01*
X9998967Y1998000D01*
X10100535D01*
X9105933Y2019283D02*
X9080541Y2044675D01*
X9029758D01*
X9004366Y2019283D01*
Y1993892D01*
X9029758Y1968500D01*
X9080541D01*
X9105933Y1943108D01*
Y1917717D01*
X9080541Y1892325D01*
X9029758D01*
X9004366Y1917717D01*
X9156717Y2044675D02*
Y1892325D01*
X9207500Y1943108D01*
X9258284Y1892325D01*
Y2044675D01*
X9309067Y2019283D02*
X9334459Y2044675D01*
X9385243D01*
X9410634Y2019283D01*
Y1993892D01*
X9385243Y1968500D01*
X9359851D01*
X9385243D01*
X9410634Y1943108D01*
Y1917717D01*
X9385243Y1892325D01*
X9334459D01*
X9309067Y1917717D01*
X11137933Y2019283D02*
X11112541Y2044675D01*
X11061758D01*
X11036366Y2019283D01*
Y1993892D01*
X11061758Y1968500D01*
X11112541D01*
X11137933Y1943108D01*
Y1917717D01*
X11112541Y1892325D01*
X11061758D01*
X11036366Y1917717D01*
X11188717Y2044675D02*
Y1892325D01*
X11239500Y1943108D01*
X11290284Y1892325D01*
Y2044675D01*
X11442634D02*
X11391851Y2019283D01*
X11341067Y1968500D01*
Y1917717D01*
X11366459Y1892325D01*
X11417243D01*
X11442634Y1917717D01*
Y1943108D01*
X11417243Y1968500D01*
X11341067D01*
X10880137Y3322145D02*
X10898092Y3304190D01*
X10969910D01*
X10969911Y3376009D01*
X10951956Y3393964D01*
X10969910Y3304190D02*
X11023774Y3250326D01*
X11095594Y3322145D02*
X11131503Y3358054D01*
X11113548Y3340100D01*
X11005820Y3447828D01*
Y3411919D01*
X9698862Y4726591D02*
X9788636Y4636817D01*
X9824546D01*
X9860455Y4672726D01*
Y4708636D01*
X9770681Y4798410D01*
X9878410Y4906138D02*
X9806591Y4834319D01*
X9860455Y4780455D01*
X9878410Y4834319D01*
X9896364Y4852274D01*
X9932274D01*
X9968183Y4816364D01*
Y4780455D01*
X9932274Y4744546D01*
X9896364D01*
X8448433Y6475784D02*
X8423041Y6501175D01*
X8372258D01*
X8346866Y6475784D01*
Y6450392D01*
X8372258Y6425000D01*
X8423041D01*
X8448433Y6399608D01*
Y6374217D01*
X8423041Y6348825D01*
X8372258D01*
X8346866Y6374217D01*
X8499216Y6501175D02*
Y6348825D01*
X8550000Y6399608D01*
X8600784Y6348825D01*
Y6501175D01*
X8753134Y6348825D02*
X8651567D01*
X8753134Y6450392D01*
Y6475784D01*
X8727743Y6501175D01*
X8676959D01*
X8651567Y6475784D01*
X7391433Y1447825D02*
Y1600175D01*
X7467608D01*
X7493000Y1574783D01*
Y1524000D01*
X7467608Y1498608D01*
X7391433D01*
X7543784Y1447825D02*
X7594567D01*
X7569176D01*
Y1600175D01*
X7543784Y1574783D01*
X939775Y4978392D02*
Y5029175D01*
Y5003783D01*
X812817D01*
X787425Y5029175D01*
Y5054567D01*
X812817Y5079959D01*
X914383Y4927608D02*
X939775Y4902216D01*
Y4851433D01*
X914383Y4826041D01*
X888992D01*
X863600Y4851433D01*
Y4876825D01*
Y4851433D01*
X838208Y4826041D01*
X812817D01*
X787425Y4851433D01*
Y4902216D01*
X812817Y4927608D01*
X774676Y2184391D02*
Y2235175D01*
Y2209783D01*
X647717D01*
X622325Y2235175D01*
Y2260567D01*
X647717Y2285959D01*
X622325Y2032041D02*
Y2133608D01*
X723892Y2032041D01*
X749284D01*
X774676Y2057433D01*
Y2108216D01*
X749284Y2133608D01*
X784225Y6122102D02*
Y6172886D01*
Y6147494D01*
X657266D01*
X631875Y6172886D01*
Y6198277D01*
X657266Y6223669D01*
X631875Y6071318D02*
Y6020535D01*
Y6045926D01*
X784225D01*
X758833Y6071318D01*
D74*
X4343400Y3608300D02*
G03*
X4343400Y3598300I0J-5000D01*
G01*
D02*
G03*
X4343400Y3608300I0J5000D01*
G01*
D75*
X10261600Y4530207D02*
X10636367Y4155440D01*
X9886833D02*
X10261600Y3780673D01*
X9886833Y4155440D02*
X10261600Y4530207D01*
Y3780673D02*
X10636367Y4155440D01*
X3013500Y3661600D02*
X3166000D01*
X13069600Y3589800D02*
Y4639800D01*
X13549600Y3589800D02*
Y4639800D01*
X13069600D02*
X13549600D01*
X13069600Y3589800D02*
X13549600D01*
X9775000Y6114200D02*
Y6484200D01*
X10445000D01*
Y6114200D02*
Y6484200D01*
X9775000Y6114200D02*
X10445000D01*
X2895700Y3918100D02*
X3606700D01*
X2895700Y4431600D02*
Y4540100D01*
Y3918100D02*
Y4026600D01*
Y4540100D02*
X3606700D01*
Y4431600D02*
Y4540100D01*
Y3918100D02*
Y4026600D01*
X3421200Y3929100D02*
Y4529100D01*
X14139532Y8606067D02*
X14309534D01*
X14139000Y8766800D02*
X14309000D01*
X2520673Y3177060D02*
X2721886D01*
X2520673Y3007060D02*
X2721886D01*
X13279601Y3312300D02*
Y3317300D01*
X13189600Y3312300D02*
Y3317300D01*
X10257800Y1622500D02*
Y2187500D01*
X10435300Y2205000D02*
X10680300D01*
X10857800Y1622500D02*
Y2187500D01*
X10435300Y1605000D02*
X10680300D01*
X10735000Y5933089D02*
Y6258911D01*
X10504178Y5933089D02*
Y6258911D01*
X254750Y4038600D02*
X285250D01*
Y4114800D01*
X254750D02*
X285250D01*
X254750Y4038600D02*
Y4114800D01*
Y2997200D02*
X285250D01*
Y3073400D01*
X254750D02*
X285250D01*
X254750Y2997200D02*
Y3073400D01*
X285000Y2856000D02*
X985000D01*
Y4256000D01*
X285000D02*
X985000D01*
X285000Y2856000D02*
Y4256000D01*
X11093493Y2549407D02*
X11334707D01*
X11093493Y2378193D02*
X11334707D01*
X3859893Y2957393D02*
X4141107D01*
X3859893Y3138607D02*
X4141107D01*
X2857290Y2866690D02*
X3187910D01*
X2857290Y3102310D02*
X3187910D01*
X11352046Y3249311D02*
X11525869Y3423134D01*
X11476371Y3124986D02*
X11650194Y3298809D01*
X11516705Y3649459D02*
X11587415Y3578749D01*
X11244469Y3921695D02*
X11315179Y3850985D01*
X10424225Y3101451D02*
X11244469Y3921695D01*
X10696461Y2829215D02*
X10767171Y2758505D01*
X10424225Y3101451D02*
X10494935Y3030741D01*
X10767171Y2758505D02*
X11587415Y3578749D01*
X9441600Y6153000D02*
Y6293000D01*
X9711600Y6153000D02*
Y6293000D01*
X3828400Y4703300D02*
X4143400D01*
X3828400Y3828300D02*
Y4703300D01*
Y3828300D02*
X3993400Y3653300D01*
X4143400D01*
X4543400Y4703300D02*
X4693400D01*
X4858400Y4528300D01*
Y3728300D02*
Y4528300D01*
X4743400Y3653300D02*
X4858400Y3728300D01*
X4543400Y3653300D02*
X4743400D01*
X-58800Y1783600D02*
X465200D01*
X-166800D02*
X-108800D01*
X-116300Y1743600D02*
X-51300D01*
X-116300D02*
X-108800Y1783600D01*
X-58800D02*
X-51300Y1743600D01*
X515200Y1783600D02*
X573200D01*
X457700Y1743600D02*
X465200Y1783600D01*
X515200D02*
X522700Y1743600D01*
X457700D02*
X522700D01*
X-166800Y2483600D02*
X573200D01*
Y1783600D02*
Y2483600D01*
X-166800Y1783600D02*
Y2483600D01*
X259991Y4452981D02*
X259993Y5452987D01*
X422493Y5512987D02*
X507493D01*
X499993Y5452987D02*
X507493Y5512987D01*
X422493D02*
X429993Y5452987D01*
X259993D02*
X429993D01*
X1009991Y4452981D02*
Y5452987D01*
X499993D02*
X1009991D01*
X824991Y4392981D02*
X919991D01*
X914991Y4452981D02*
X919991Y4392981D01*
X824991D02*
X829991Y4452981D01*
X914991D02*
X1009991D01*
X259991D02*
X829991D01*
X7681200Y1724540D02*
X8727200D01*
Y1455540D02*
Y1724540D01*
X7681200Y1455540D02*
X8727200D01*
X7681200D02*
Y1724540D01*
X3460793Y3686293D02*
X3702007Y3686293D01*
X3460793Y3857507D02*
X3702007Y3857507D01*
X3364080Y4967860D02*
X3504080D01*
X3364080Y5237860D02*
X3504080D01*
X3364080Y4612260D02*
X3504080D01*
X3364080Y4882260D02*
X3504080D01*
X2426811Y3481989D02*
Y3807811D01*
X2195989Y3481989D02*
Y3807811D01*
X2655411Y3481989D02*
Y3807811D01*
X2424589Y3481989D02*
Y3807811D01*
X2884011Y3481989D02*
Y3807811D01*
X2653189Y3481989D02*
Y3807811D01*
X11014400Y5933089D02*
Y6258911D01*
X10783578Y5933089D02*
Y6258911D01*
X9381400Y6153000D02*
Y6293000D01*
X9111400Y6153000D02*
Y6293000D01*
X11019171Y2667786D02*
X11192994Y2841609D01*
X10894846Y2792111D02*
X11068669Y2965934D01*
X7839393Y6083787D02*
Y6325000D01*
X8010607Y6083787D02*
Y6325000D01*
X9112293Y2549407D02*
X9353507D01*
X9112293Y2378193D02*
X9353507D01*
X9772693Y2549407D02*
X10013907D01*
X9772693Y2378193D02*
X10013907D01*
X10433093Y2549407D02*
X10674307D01*
X10433093Y2378193D02*
X10674307D01*
X8831200Y3044040D02*
Y3184040D01*
X9101200Y3044040D02*
Y3184040D01*
X1800680Y3200120D02*
Y3800120D01*
X1986180Y3189120D02*
Y3297620D01*
Y3702620D02*
Y3811120D01*
X1275180D02*
X1986180D01*
X1275180Y3189120D02*
Y3297620D01*
Y3702620D02*
Y3811120D01*
Y3189120D02*
X1986180D01*
X3305060Y6128840D02*
X3905060D01*
X3807560Y6314340D02*
X3916060D01*
X3294060D02*
X3402560D01*
X3294060Y5603340D02*
Y6314340D01*
X3807560Y5603340D02*
X3916060D01*
X3294060D02*
X3402560D01*
X3916060D02*
Y6314340D01*
X3965460Y5788840D02*
X4565460D01*
X3954460Y5603340D02*
X4062960D01*
X4467960D02*
X4576460D01*
Y6314340D01*
X3954460D02*
X4062960D01*
X4467960D02*
X4576460D01*
X3954460Y5603340D02*
Y6314340D01*
X4625860Y6128840D02*
X5225860D01*
X5128360Y6314340D02*
X5236860D01*
X4614860D02*
X4723360D01*
X4614860Y5603340D02*
Y6314340D01*
X5128360Y5603340D02*
X5236860D01*
X4614860D02*
X4723360D01*
X5236860D02*
Y6314340D01*
X-58800Y5746000D02*
X465200D01*
X-166800D02*
X-108800D01*
X-116300Y5706000D02*
X-51300D01*
X-116300D02*
X-108800Y5746000D01*
X-58800D02*
X-51300Y5706000D01*
X515200Y5746000D02*
X573200D01*
X457700Y5706000D02*
X465200Y5746000D01*
X515200D02*
X522700Y5706000D01*
X457700D02*
X522700D01*
X-166800Y6446000D02*
X573200D01*
Y5746000D02*
Y6446000D01*
X-166800Y5746000D02*
Y6446000D01*
X14139532Y351067D02*
X14309534D01*
X14139000Y511800D02*
X14309000D01*
X14139532Y2027467D02*
X14309534D01*
X14139000Y2188200D02*
X14309000D01*
X14139532Y3653067D02*
X14309534D01*
X14139000Y3813800D02*
X14309000D01*
X14139532Y5304067D02*
X14309534D01*
X14139000Y5464800D02*
X14309000D01*
X14139532Y6955067D02*
X14309534D01*
X14139000Y7115800D02*
X14309000D01*
X8250000Y6142500D02*
Y6707500D01*
X8427500Y6725000D02*
X8672500D01*
X8850000Y6142500D02*
Y6707500D01*
X8427500Y6125000D02*
X8672500D01*
X2108200Y5266500D02*
X2260700D01*
X2120900Y1939100D02*
X2273400D01*
X4572500Y5295000D02*
X4577500D01*
X4572500Y5205000D02*
X4577500D01*
X10918200Y1622500D02*
Y2187500D01*
X11095700Y2205000D02*
X11340700D01*
X11518200Y1622500D02*
Y2187500D01*
X11095700Y1605000D02*
X11340700D01*
X9114500D02*
X9359500D01*
X9537000Y1622500D02*
Y2187500D01*
X9114500Y2205000D02*
X9359500D01*
X8937000Y1622500D02*
Y2187500D01*
X9597400Y1622500D02*
Y2187500D01*
X9774900Y2205000D02*
X10019900D01*
X10197400Y1622500D02*
Y2187500D01*
X9774900Y1605000D02*
X10019900D01*
X12979601Y4912300D02*
Y4917300D01*
X12889600Y4912300D02*
Y4917300D01*
X13208200Y4912500D02*
Y4917500D01*
X13118201Y4912500D02*
Y4917500D01*
X13411400Y4912500D02*
Y4917500D01*
X13321400Y4912500D02*
Y4917500D01*
X13679601Y3312300D02*
Y3317300D01*
X13589600Y3312300D02*
Y3317300D01*
X13479601Y3312300D02*
Y3317300D01*
X13389600Y3312300D02*
Y3317300D01*
D76*
X1771033Y2866400D02*
X1835767D01*
X1771033Y3026400D02*
X1835767D01*
X1745633Y6049000D02*
X1810367D01*
X1745633Y5889000D02*
X1810367D01*
X1745633Y6353800D02*
X1810367D01*
X1745633Y6193800D02*
X1810367D01*
X1771033Y2561600D02*
X1835767D01*
X1771033Y2721600D02*
X1835767D01*
D77*
X4159232Y3455104D02*
X4160523Y3253669D01*
X2520120Y3155926D02*
X2719825D01*
X2520614Y3329676D02*
X2720319D01*
X4335146Y3243709D02*
Y3444922D01*
X4462654Y3243572D02*
Y3444785D01*
X4314956Y3195443D02*
Y3436656D01*
X4176879Y3198371D02*
Y3439584D01*
X4024676Y3455147D02*
X4026586Y3253465D01*
X3990949Y3484838D02*
X3992859Y3206381D01*
X3825667Y3486850D02*
X3827578Y3208393D01*
X11379200Y6604000D02*
X11430000Y6553200D01*
X11328400D02*
X11379200Y6604000D01*
Y6426200D02*
Y6604000D01*
Y6426200D02*
X11557000D01*
X11201400D02*
X11557000D01*
X2953701Y5762471D02*
X3010268Y5713446D01*
X3073400Y5765800D01*
X3009900Y5943600D02*
X3010268Y5713446D01*
X2844800Y5943600D02*
X3175000D01*
X8788400Y1905000D02*
X8864600Y1981200D01*
X8788400Y2057400D02*
X8864600Y1981200D01*
X8402975D02*
X8864600D01*
X4292600Y3048000D02*
X4343400Y2997200D01*
X4292600Y3048000D02*
X4343400Y3098800D01*
X4292600Y3048000D02*
X4648200D01*
X4953000Y2946400D02*
Y3149600D01*
X4648200Y2946400D02*
X4953000D01*
X4648200D02*
Y3149600D01*
X4851400D02*
Y3454400D01*
X5041900Y3149600D02*
Y3454400D01*
X5232400Y3149600D02*
Y3454400D01*
X4648200Y3149600D02*
Y3454400D01*
Y3149600D02*
X5435600D01*
Y3454400D01*
X4648200D02*
X5435600D01*
X8541707Y6002206D02*
X8661400Y5994400D01*
X8509000Y5892800D02*
X8541707Y6002206D01*
X8966200Y5511800D01*
X11193780Y6329668D02*
X11244563D01*
X11219172Y6355059D02*
Y6304276D01*
X11269955Y6355059D02*
X11282651Y6367755D01*
X11308043D01*
X11320739Y6355059D01*
Y6342363D01*
X11308043Y6329668D01*
X11295347D01*
X11308043D01*
X11320739Y6316972D01*
Y6304276D01*
X11308043Y6291580D01*
X11282651D01*
X11269955Y6304276D01*
X11346131Y6291580D02*
Y6304276D01*
X11358827D01*
Y6291580D01*
X11346131D01*
X11409610Y6355059D02*
X11422306Y6367755D01*
X11447698D01*
X11460394Y6355059D01*
Y6342363D01*
X11447698Y6329668D01*
X11435002D01*
X11447698D01*
X11460394Y6316972D01*
Y6304276D01*
X11447698Y6291580D01*
X11422306D01*
X11409610Y6304276D01*
X11485786Y6367755D02*
Y6316972D01*
X11511177Y6291580D01*
X11536569Y6316972D01*
Y6367755D01*
D78*
X15125700Y3289300D02*
X14871782D01*
X14956421Y3373939D01*
X14871782Y3458579D01*
X15125700D01*
X14871782Y3543218D02*
Y3712497D01*
Y3627857D01*
X15125700D01*
X14871782Y3797136D02*
X15083380D01*
X15125700Y3839456D01*
Y3924095D01*
X15083380Y3966414D01*
X14871782D01*
Y4474250D02*
Y4304972D01*
X15125700D01*
Y4474250D01*
X14998741Y4304972D02*
Y4389611D01*
X14914102Y4728168D02*
X14871782Y4685849D01*
Y4601209D01*
X14914102Y4558890D01*
X15083380D01*
X15125700Y4601209D01*
Y4685849D01*
X15083380Y4728168D01*
X14871782Y4982086D02*
Y4812808D01*
X15125700D01*
Y4982086D01*
X14998741Y4812808D02*
Y4897447D01*
D79*
X2814320Y6027408D02*
X2865103D01*
X2839712Y6052799D02*
Y6002016D01*
X2890495Y6052799D02*
X2903191Y6065495D01*
X2928583D01*
X2941279Y6052799D01*
Y6040103D01*
X2928583Y6027408D01*
X2941279Y6014712D01*
Y6002016D01*
X2928583Y5989320D01*
X2903191D01*
X2890495Y6002016D01*
Y6014712D01*
X2903191Y6027408D01*
X2890495Y6040103D01*
Y6052799D01*
X2903191Y6027408D02*
X2928583D01*
X2966671Y5989320D02*
Y6002016D01*
X2979367D01*
Y5989320D01*
X2966671D01*
X3030150Y6052799D02*
X3042846Y6065495D01*
X3068238D01*
X3080934Y6052799D01*
Y6040103D01*
X3068238Y6027408D01*
X3080934Y6014712D01*
Y6002016D01*
X3068238Y5989320D01*
X3042846D01*
X3030150Y6002016D01*
Y6014712D01*
X3042846Y6027408D01*
X3030150Y6040103D01*
Y6052799D01*
X3042846Y6027408D02*
X3068238D01*
X3106326Y6065495D02*
Y6014712D01*
X3131717Y5989320D01*
X3157109Y6014712D01*
Y6065495D01*
D80*
X13266409Y2959975D02*
X13200391D01*
Y2992985D01*
X13211394Y3003988D01*
X13233400D01*
X13244403Y2992985D01*
Y2959975D01*
Y2981982D02*
X13266409Y3003988D01*
Y3070006D02*
Y3025994D01*
X13222397Y3070006D01*
X13211394D01*
X13200391Y3059003D01*
Y3036997D01*
X13211394Y3025994D01*
X13255406Y3092013D02*
X13266409Y3103016D01*
Y3125022D01*
X13255406Y3136025D01*
X13211394D01*
X13200391Y3125022D01*
Y3103016D01*
X13211394Y3092013D01*
X13222397D01*
X13233400Y3103016D01*
Y3136025D01*
X13469609Y2959975D02*
X13403590D01*
Y2992984D01*
X13414594Y3003987D01*
X13436600D01*
X13447603Y2992984D01*
Y2959975D01*
Y2981981D02*
X13469609Y3003987D01*
Y3070006D02*
Y3025994D01*
X13425597Y3070006D01*
X13414594D01*
X13403590Y3059003D01*
Y3036997D01*
X13414594Y3025994D01*
Y3092012D02*
X13403590Y3103015D01*
Y3125022D01*
X13414594Y3136025D01*
X13425597D01*
X13436600Y3125022D01*
X13447603Y3136025D01*
X13458606D01*
X13469609Y3125022D01*
Y3103015D01*
X13458606Y3092012D01*
X13447603D01*
X13436600Y3103015D01*
X13425597Y3092012D01*
X13414594D01*
X13436600Y3103015D02*
Y3125022D01*
X13672809Y2959975D02*
X13606790D01*
Y2992984D01*
X13617793Y3003987D01*
X13639799D01*
X13650803Y2992984D01*
Y2959975D01*
Y2981981D02*
X13672809Y3003987D01*
Y3070006D02*
Y3025994D01*
X13628796Y3070006D01*
X13617793D01*
X13606790Y3059003D01*
Y3036997D01*
X13617793Y3025994D01*
X13606790Y3092012D02*
Y3136025D01*
X13617793D01*
X13661806Y3092012D01*
X13672809D01*
X13399509Y5105806D02*
X13333490D01*
Y5138815D01*
X13344493Y5149818D01*
X13366499D01*
X13377502Y5138815D01*
Y5105806D01*
Y5127812D02*
X13399509Y5149818D01*
Y5215837D02*
Y5171825D01*
X13355498Y5215837D01*
X13344493D01*
X13333490Y5204834D01*
Y5182828D01*
X13344493Y5171825D01*
X13333490Y5281856D02*
X13344493Y5259850D01*
X13366499Y5237843D01*
X13388506D01*
X13399509Y5248846D01*
Y5270853D01*
X13388506Y5281856D01*
X13377502D01*
X13366499Y5270853D01*
Y5237843D01*
X13198552Y5103691D02*
X13132533D01*
Y5136700D01*
X13143536Y5147703D01*
X13165543D01*
X13176546Y5136700D01*
Y5103691D01*
Y5125697D02*
X13198552Y5147703D01*
Y5213722D02*
Y5169709D01*
X13154539Y5213722D01*
X13143536D01*
X13132533Y5202719D01*
Y5180713D01*
X13143536Y5169709D01*
X13132533Y5279741D02*
Y5235728D01*
X13165543D01*
X13154539Y5257734D01*
Y5268737D01*
X13165543Y5279741D01*
X13187549D01*
X13198552Y5268737D01*
Y5246731D01*
X13187549Y5235728D01*
X12966570Y5109331D02*
X12900549D01*
Y5142341D01*
X12911552Y5153344D01*
X12933560D01*
X12944563Y5142341D01*
Y5109331D01*
Y5131338D02*
X12966570Y5153344D01*
Y5219362D02*
Y5175350D01*
X12922557Y5219362D01*
X12911552D01*
X12900549Y5208359D01*
Y5186353D01*
X12911552Y5175350D01*
X12966570Y5274378D02*
X12900549D01*
X12933560Y5241369D01*
Y5285381D01*
X13414606Y4757409D02*
Y4702394D01*
X13425607Y4691391D01*
X13447614D01*
X13458617Y4702394D01*
Y4757409D01*
X13524635D02*
X13502631Y4746406D01*
X13480623Y4724400D01*
Y4702394D01*
X13491626Y4691391D01*
X13513634D01*
X13524635Y4702394D01*
Y4713397D01*
X13513634Y4724400D01*
X13480623D01*
X13820995Y4742191D02*
X13809991Y4731188D01*
Y4709181D01*
X13820995Y4698178D01*
X13865005D01*
X13876009Y4709181D01*
Y4731188D01*
X13865005Y4742191D01*
X13820995Y4764197D02*
X13809991Y4775200D01*
Y4797206D01*
X13820995Y4808209D01*
X13831998D01*
X13842999Y4797206D01*
Y4786203D01*
Y4797206D01*
X13854002Y4808209D01*
X13865005D01*
X13876009Y4797206D01*
Y4775200D01*
X13865005Y4764197D01*
X13876009Y4830216D02*
Y4852222D01*
Y4841219D01*
X13809991D01*
X13820995Y4830216D01*
X2775388Y4655809D02*
Y4589791D01*
X2808397D01*
X2819400Y4600794D01*
Y4644806D01*
X2808397Y4655809D01*
X2775388D01*
X2841406Y4589791D02*
X2863413D01*
X2852409D01*
Y4655809D01*
X2841406Y4644806D01*
X9552993Y5761489D02*
X9541990Y5750486D01*
Y5728480D01*
X9552993Y5717477D01*
X9597006D01*
X9608009Y5728480D01*
Y5750486D01*
X9597006Y5761489D01*
X9608009Y5783495D02*
Y5805501D01*
Y5794498D01*
X9541990D01*
X9552993Y5783495D01*
X9541990Y5838511D02*
Y5882523D01*
X9552993D01*
X9597006Y5838511D01*
X9608009D01*
X4487908Y5086056D02*
Y5152075D01*
X4520918D01*
X4531921Y5141072D01*
Y5119065D01*
X4520918Y5108062D01*
X4487908D01*
X4509915D02*
X4531921Y5086056D01*
X4597939D02*
X4553927D01*
X4597939Y5130068D01*
Y5141072D01*
X4586936Y5152075D01*
X4564930D01*
X4553927Y5141072D01*
X4619946D02*
X4630949Y5152075D01*
X4652955D01*
X4663958Y5141072D01*
Y5130068D01*
X4652955Y5119065D01*
X4641952D01*
X4652955D01*
X4663958Y5108062D01*
Y5097059D01*
X4652955Y5086056D01*
X4630949D01*
X4619946Y5097059D01*
X10319985Y6733009D02*
Y6677994D01*
X10330988Y6666991D01*
X10352994D01*
X10363997Y6677994D01*
Y6733009D01*
X10419013Y6666991D02*
Y6733009D01*
X10386003Y6700000D01*
X10430016D01*
X2992985Y3817609D02*
Y3762594D01*
X3003988Y3751591D01*
X3025994D01*
X3036997Y3762594D01*
Y3817609D01*
X3059003Y3806606D02*
X3070006Y3817609D01*
X3092013D01*
X3103016Y3806606D01*
Y3795603D01*
X3092013Y3784600D01*
X3081010D01*
X3092013D01*
X3103016Y3773597D01*
Y3762594D01*
X3092013Y3751591D01*
X3070006D01*
X3059003Y3762594D01*
X1621385Y1887209D02*
Y1832194D01*
X1632388Y1821191D01*
X1654394D01*
X1665397Y1832194D01*
Y1887209D01*
X1731416Y1821191D02*
X1687403D01*
X1731416Y1865203D01*
Y1876206D01*
X1720413Y1887209D01*
X1698406D01*
X1687403Y1876206D01*
X1581588Y5214609D02*
Y5159594D01*
X1592591Y5148591D01*
X1614597D01*
X1625600Y5159594D01*
Y5214609D01*
X1647606Y5148591D02*
X1669613D01*
X1658609D01*
Y5214609D01*
X1647606Y5203606D01*
X863608Y4076712D02*
X850912Y4064017D01*
Y4038625D01*
X863608Y4025929D01*
X876304D01*
X889000Y4038625D01*
Y4064017D01*
X901696Y4076712D01*
X914392D01*
X927088Y4064017D01*
Y4038625D01*
X914392Y4025929D01*
X850912Y4102104D02*
X927088D01*
X901696Y4127496D01*
X927088Y4152888D01*
X850912D01*
X927088Y4178279D02*
Y4203671D01*
Y4190975D01*
X850912D01*
X863608Y4178279D01*
X12217441Y2048884D02*
X12151422D01*
Y2081893D01*
X12162425Y2092896D01*
X12184432D01*
X12195435Y2081893D01*
Y2048884D01*
Y2070890D02*
X12217441Y2092896D01*
Y2158915D02*
Y2114903D01*
X12173429Y2158915D01*
X12162425D01*
X12151422Y2147912D01*
Y2125906D01*
X12162425Y2114903D01*
X12217441Y2224934D02*
Y2180921D01*
X12173429Y2224934D01*
X12162425D01*
X12151422Y2213931D01*
Y2191924D01*
X12162425Y2180921D01*
X12038795Y2049993D02*
X11972777D01*
Y2083002D01*
X11983780Y2094005D01*
X12005786D01*
X12016789Y2083002D01*
Y2049993D01*
Y2071999D02*
X12038795Y2094005D01*
Y2160024D02*
Y2116011D01*
X11994783Y2160024D01*
X11983780D01*
X11972777Y2149021D01*
Y2127014D01*
X11983780Y2116011D01*
X12038795Y2182030D02*
Y2204036D01*
Y2193033D01*
X11972777D01*
X11983780Y2182030D01*
X11859051Y2048884D02*
X11793032D01*
Y2081893D01*
X11804035Y2092896D01*
X11826042D01*
X11837045Y2081893D01*
Y2048884D01*
Y2070890D02*
X11859051Y2092896D01*
Y2158915D02*
Y2114903D01*
X11815039Y2158915D01*
X11804035D01*
X11793032Y2147912D01*
Y2125906D01*
X11804035Y2114903D01*
Y2180921D02*
X11793032Y2191924D01*
Y2213931D01*
X11804035Y2224934D01*
X11848048D01*
X11859051Y2213931D01*
Y2191924D01*
X11848048Y2180921D01*
X11804035D01*
X11680645Y2050781D02*
X11614626D01*
Y2083790D01*
X11625629Y2094793D01*
X11647636D01*
X11658639Y2083790D01*
Y2050781D01*
Y2072787D02*
X11680645Y2094793D01*
Y2116800D02*
Y2138806D01*
Y2127803D01*
X11614626D01*
X11625629Y2116800D01*
X11669642Y2171815D02*
X11680645Y2182818D01*
Y2204825D01*
X11669642Y2215828D01*
X11625629D01*
X11614626Y2204825D01*
Y2182818D01*
X11625629Y2171815D01*
X11636633D01*
X11647636Y2182818D01*
Y2215828D01*
X7783009Y6492477D02*
X7716990D01*
Y6525486D01*
X7727993Y6536489D01*
X7750000D01*
X7761003Y6525486D01*
Y6492477D01*
Y6514483D02*
X7783009Y6536489D01*
Y6558496D02*
Y6580502D01*
Y6569499D01*
X7716990D01*
X7727993Y6558496D01*
Y6613511D02*
X7716990Y6624514D01*
Y6646521D01*
X7727993Y6657524D01*
X7738997D01*
X7750000Y6646521D01*
X7761003Y6657524D01*
X7772006D01*
X7783009Y6646521D01*
Y6624514D01*
X7772006Y6613511D01*
X7761003D01*
X7750000Y6624514D01*
X7738997Y6613511D01*
X7727993D01*
X7750000Y6624514D02*
Y6646521D01*
X2289972Y3058550D02*
Y3124569D01*
X2322981D01*
X2333984Y3113566D01*
Y3091560D01*
X2322981Y3080557D01*
X2289972D01*
X2311978D02*
X2333984Y3058550D01*
X2355991D02*
X2377997D01*
X2366994D01*
Y3124569D01*
X2355991Y3113566D01*
X2411006Y3124569D02*
X2455019D01*
Y3113566D01*
X2411006Y3069553D01*
Y3058550D01*
X5167703Y3194974D02*
X5101684D01*
Y3227983D01*
X5112688Y3238986D01*
X5134694D01*
X5145697Y3227983D01*
Y3194974D01*
Y3216980D02*
X5167703Y3238986D01*
Y3260992D02*
Y3282999D01*
Y3271995D01*
X5101684D01*
X5112688Y3260992D01*
X5101684Y3360020D02*
X5112688Y3338014D01*
X5134694Y3316008D01*
X5156700D01*
X5167703Y3327011D01*
Y3349017D01*
X5156700Y3360020D01*
X5145697D01*
X5134694Y3349017D01*
Y3316008D01*
X4987400Y3232695D02*
X4921381D01*
Y3265705D01*
X4932384Y3276708D01*
X4954391D01*
X4965394Y3265705D01*
Y3232695D01*
Y3254702D02*
X4987400Y3276708D01*
Y3298714D02*
Y3320720D01*
Y3309717D01*
X4921381D01*
X4932384Y3298714D01*
X4921381Y3397742D02*
Y3353730D01*
X4954391D01*
X4943388Y3375736D01*
Y3386739D01*
X4954391Y3397742D01*
X4976397D01*
X4987400Y3386739D01*
Y3364733D01*
X4976397Y3353730D01*
X2287566Y3211229D02*
Y3277248D01*
X2320575D01*
X2331579Y3266245D01*
Y3244239D01*
X2320575Y3233236D01*
X2287566D01*
X2309572D02*
X2331579Y3211229D01*
X2353585D02*
X2375591D01*
X2364588D01*
Y3277248D01*
X2353585Y3266245D01*
X2441610Y3211229D02*
Y3277248D01*
X2408600Y3244239D01*
X2452613D01*
X5371011Y3228368D02*
X5304993D01*
Y3261378D01*
X5315996Y3272381D01*
X5338002D01*
X5349005Y3261378D01*
Y3228368D01*
Y3250375D02*
X5371011Y3272381D01*
Y3294387D02*
Y3316393D01*
Y3305390D01*
X5304993D01*
X5315996Y3294387D01*
Y3349402D02*
X5304993Y3360406D01*
Y3382412D01*
X5315996Y3393415D01*
X5326999D01*
X5338002Y3382412D01*
Y3371409D01*
Y3382412D01*
X5349005Y3393415D01*
X5360008D01*
X5371011Y3382412D01*
Y3360406D01*
X5360008Y3349402D01*
X13917477Y7791991D02*
Y7858009D01*
X13950487D01*
X13961488Y7847006D01*
Y7825000D01*
X13950487Y7813997D01*
X13917477D01*
X13939484D02*
X13961488Y7791991D01*
X13983495D02*
X14005502D01*
X13994498D01*
Y7858009D01*
X13983495Y7847006D01*
X14082523Y7791991D02*
X14038512D01*
X14082523Y7836003D01*
Y7847006D01*
X14071519Y7858009D01*
X14049513D01*
X14038512Y7847006D01*
X13903481Y6141991D02*
Y6208009D01*
X13936488D01*
X13947491Y6197006D01*
Y6175000D01*
X13936488Y6163997D01*
X13903481D01*
X13925487D02*
X13947491Y6141991D01*
X13969498D02*
X13991505D01*
X13980501D01*
Y6208009D01*
X13969498Y6197006D01*
X14024513Y6141991D02*
X14046519D01*
X14035516D01*
Y6208009D01*
X14024513Y6197006D01*
X13867477Y8666991D02*
Y8733009D01*
X13900487D01*
X13911488Y8722006D01*
Y8700000D01*
X13900487Y8688997D01*
X13867477D01*
X13889484D02*
X13911488Y8666991D01*
X13933495D02*
X13955502D01*
X13944498D01*
Y8733009D01*
X13933495Y8722006D01*
X13988512D02*
X13999513Y8733009D01*
X14021519D01*
X14032523Y8722006D01*
Y8677994D01*
X14021519Y8666991D01*
X13999513D01*
X13988512Y8677994D01*
Y8722006D01*
X13944984Y7016991D02*
Y7083009D01*
X13977994D01*
X13988997Y7072006D01*
Y7050000D01*
X13977994Y7038997D01*
X13944984D01*
X13966991D02*
X13988997Y7016991D01*
X14011003Y7027994D02*
X14022006Y7016991D01*
X14044012D01*
X14055016Y7027994D01*
Y7072006D01*
X14044012Y7083009D01*
X14022006D01*
X14011003Y7072006D01*
Y7061003D01*
X14022006Y7050000D01*
X14055016D01*
X13944984Y4491991D02*
Y4558009D01*
X13977994D01*
X13988997Y4547006D01*
Y4525000D01*
X13977994Y4513997D01*
X13944984D01*
X13966991D02*
X13988997Y4491991D01*
X14011003Y4547006D02*
X14022006Y4558009D01*
X14044012D01*
X14055016Y4547006D01*
Y4536003D01*
X14044012Y4525000D01*
X14055016Y4513997D01*
Y4502994D01*
X14044012Y4491991D01*
X14022006D01*
X14011003Y4502994D01*
Y4513997D01*
X14022006Y4525000D01*
X14011003Y4536003D01*
Y4547006D01*
X14022006Y4525000D02*
X14044012D01*
X13944984Y2841991D02*
Y2908009D01*
X13977994D01*
X13988997Y2897006D01*
Y2875000D01*
X13977994Y2863997D01*
X13944984D01*
X13966991D02*
X13988997Y2841991D01*
X14011003Y2908009D02*
X14055016D01*
Y2897006D01*
X14011003Y2852994D01*
Y2841991D01*
X13919984Y5366991D02*
Y5433009D01*
X13952994D01*
X13963997Y5422006D01*
Y5400000D01*
X13952994Y5388997D01*
X13919984D01*
X13941991D02*
X13963997Y5366991D01*
X14030016Y5433009D02*
X14008009Y5422006D01*
X13986003Y5400000D01*
Y5377994D01*
X13997006Y5366991D01*
X14019012D01*
X14030016Y5377994D01*
Y5388997D01*
X14019012Y5400000D01*
X13986003D01*
X13919984Y3716991D02*
Y3783009D01*
X13952994D01*
X13963997Y3772006D01*
Y3750000D01*
X13952994Y3738997D01*
X13919984D01*
X13941991D02*
X13963997Y3716991D01*
X14030016Y3783009D02*
X13986003D01*
Y3750000D01*
X14008009Y3761003D01*
X14019012D01*
X14030016Y3750000D01*
Y3727994D01*
X14019012Y3716991D01*
X13997006D01*
X13986003Y3727994D01*
X13919984Y1216991D02*
Y1283009D01*
X13952994D01*
X13963997Y1272006D01*
Y1250000D01*
X13952994Y1238997D01*
X13919984D01*
X13941991D02*
X13963997Y1216991D01*
X14019012D02*
Y1283009D01*
X13986003Y1250000D01*
X14030016D01*
X13944984Y-458009D02*
Y-391991D01*
X13977994D01*
X13988997Y-402994D01*
Y-425000D01*
X13977994Y-436003D01*
X13944984D01*
X13966991D02*
X13988997Y-458009D01*
X14011003Y-402994D02*
X14022006Y-391991D01*
X14044012D01*
X14055016Y-402994D01*
Y-413997D01*
X14044012Y-425000D01*
X14033009D01*
X14044012D01*
X14055016Y-436003D01*
Y-447006D01*
X14044012Y-458009D01*
X14022006D01*
X14011003Y-447006D01*
X13919984Y2091991D02*
Y2158009D01*
X13952994D01*
X13963997Y2147006D01*
Y2125000D01*
X13952994Y2113997D01*
X13919984D01*
X13941991D02*
X13963997Y2091991D01*
X14030016D02*
X13986003D01*
X14030016Y2136003D01*
Y2147006D01*
X14019012Y2158009D01*
X13997006D01*
X13986003Y2147006D01*
X13930988Y416991D02*
Y483009D01*
X13963997D01*
X13975000Y472006D01*
Y450000D01*
X13963997Y438997D01*
X13930988D01*
X13952994D02*
X13975000Y416991D01*
X13997006D02*
X14019012D01*
X14008009D01*
Y483009D01*
X13997006Y472006D01*
X4986009Y4260412D02*
X4919991D01*
Y4216400D01*
Y4194394D02*
Y4172387D01*
Y4183391D01*
X4986009D01*
X4975006Y4194394D01*
X4220030Y6546124D02*
Y6480106D01*
X4253040D01*
X4264043Y6491109D01*
Y6535121D01*
X4253040Y6546124D01*
X4220030D01*
X4319058Y6480106D02*
Y6546124D01*
X4286049Y6513115D01*
X4330061D01*
X3543078Y6545157D02*
Y6479138D01*
X3576087D01*
X3587090Y6490141D01*
Y6534154D01*
X3576087Y6545157D01*
X3543078D01*
X3609096Y6534154D02*
X3620099Y6545157D01*
X3642106D01*
X3653109Y6534154D01*
Y6523151D01*
X3642106Y6512148D01*
X3631103D01*
X3642106D01*
X3653109Y6501145D01*
Y6490141D01*
X3642106Y6479138D01*
X3620099D01*
X3609096Y6490141D01*
X1584395Y3977763D02*
Y3911744D01*
X1617404D01*
X1628407Y3922747D01*
Y3966760D01*
X1617404Y3977763D01*
X1584395D01*
X1694426Y3911744D02*
X1650414D01*
X1694426Y3955756D01*
Y3966760D01*
X1683423Y3977763D01*
X1661417D01*
X1650414Y3966760D01*
X9257551Y3183909D02*
X9268554Y3194912D01*
Y3216919D01*
X9257551Y3227922D01*
X9213538D01*
X9202535Y3216919D01*
Y3194912D01*
X9213538Y3183909D01*
X9257551Y3161903D02*
X9268554Y3150900D01*
Y3128894D01*
X9257551Y3117891D01*
X9246547D01*
X9235544Y3128894D01*
Y3139897D01*
Y3128894D01*
X9224541Y3117891D01*
X9213538D01*
X9202535Y3128894D01*
Y3150900D01*
X9213538Y3161903D01*
X9257551Y3095884D02*
X9268554Y3084881D01*
Y3062875D01*
X9257551Y3051872D01*
X9213538D01*
X9202535Y3062875D01*
Y3084881D01*
X9213538Y3095884D01*
X9257551D01*
X11456128Y2492908D02*
X11445125Y2503911D01*
X11423119D01*
X11412116Y2492908D01*
Y2448896D01*
X11423119Y2437893D01*
X11445125D01*
X11456128Y2448896D01*
X11522147Y2437893D02*
X11478134D01*
X11522147Y2481905D01*
Y2492908D01*
X11511144Y2503911D01*
X11489137D01*
X11478134Y2492908D01*
X11544153Y2448896D02*
X11555156Y2437893D01*
X11577162D01*
X11588165Y2448896D01*
Y2492908D01*
X11577162Y2503911D01*
X11555156D01*
X11544153Y2492908D01*
Y2481905D01*
X11555156Y2470902D01*
X11588165D01*
X10780988Y2497006D02*
X10769985Y2508009D01*
X10747978D01*
X10736975Y2497006D01*
Y2452994D01*
X10747978Y2441991D01*
X10769985D01*
X10780988Y2452994D01*
X10847006Y2441991D02*
X10802994D01*
X10847006Y2486003D01*
Y2497006D01*
X10836003Y2508009D01*
X10813997D01*
X10802994Y2497006D01*
X10869013D02*
X10880016Y2508009D01*
X10902022D01*
X10913025Y2497006D01*
Y2486003D01*
X10902022Y2475000D01*
X10913025Y2463997D01*
Y2452994D01*
X10902022Y2441991D01*
X10880016D01*
X10869013Y2452994D01*
Y2463997D01*
X10880016Y2475000D01*
X10869013Y2486003D01*
Y2497006D01*
X10880016Y2475000D02*
X10902022D01*
X10124557Y2482666D02*
X10113554Y2493669D01*
X10091548D01*
X10080545Y2482666D01*
Y2438653D01*
X10091548Y2427650D01*
X10113554D01*
X10124557Y2438653D01*
X10190576Y2427650D02*
X10146564D01*
X10190576Y2471662D01*
Y2482666D01*
X10179573Y2493669D01*
X10157567D01*
X10146564Y2482666D01*
X10212582Y2493669D02*
X10256595D01*
Y2482666D01*
X10212582Y2438653D01*
Y2427650D01*
X9473404Y2485592D02*
X9462401Y2496595D01*
X9440395D01*
X9429392Y2485592D01*
Y2441580D01*
X9440395Y2430577D01*
X9462401D01*
X9473404Y2441580D01*
X9539423Y2430577D02*
X9495410D01*
X9539423Y2474589D01*
Y2485592D01*
X9528420Y2496595D01*
X9506413D01*
X9495410Y2485592D01*
X9605441Y2496595D02*
X9583435Y2485592D01*
X9561429Y2463586D01*
Y2441580D01*
X9572432Y2430577D01*
X9594438D01*
X9605441Y2441580D01*
Y2452583D01*
X9594438Y2463586D01*
X9561429D01*
X11578318Y3134440D02*
X11562757D01*
X11547196Y3118879D01*
Y3103318D01*
X11578318Y3072196D01*
X11593879D01*
X11609439Y3087757D01*
Y3103318D01*
X11663902Y3142220D02*
X11632780Y3111098D01*
Y3173341D01*
X11625000Y3181122D01*
X11609439D01*
X11593879Y3165561D01*
Y3150000D01*
X11663902Y3235584D02*
X11632780Y3204463D01*
X11656122Y3181122D01*
X11663902Y3204463D01*
X11671683Y3212243D01*
X11687243D01*
X11702804Y3196682D01*
Y3181122D01*
X11687243Y3165561D01*
X11671683D01*
X7702994Y6155988D02*
X7691991Y6144985D01*
Y6122978D01*
X7702994Y6111975D01*
X7747006D01*
X7758009Y6122978D01*
Y6144985D01*
X7747006Y6155988D01*
X7758009Y6222006D02*
Y6177994D01*
X7713997Y6222006D01*
X7702994D01*
X7691991Y6211003D01*
Y6188997D01*
X7702994Y6177994D01*
X7758009Y6277022D02*
X7691991D01*
X7725000Y6244013D01*
Y6288025D01*
X11128318Y2684439D02*
X11112757D01*
X11097196Y2668879D01*
Y2653318D01*
X11128318Y2622196D01*
X11143878D01*
X11159439Y2637757D01*
Y2653318D01*
X11213902Y2692220D02*
X11182780Y2661098D01*
Y2723341D01*
X11175000Y2731122D01*
X11159439D01*
X11143878Y2715561D01*
Y2700000D01*
X11190561Y2746682D02*
Y2762243D01*
X11206122Y2777804D01*
X11221682D01*
X11229463Y2770023D01*
Y2754463D01*
X11221682Y2746682D01*
X11229463Y2754463D01*
X11245023D01*
X11252804Y2746682D01*
Y2731122D01*
X11237243Y2715561D01*
X11221682D01*
X10260038Y3294887D02*
Y3309849D01*
X10245076Y3324811D01*
X10230113D01*
X10200189Y3294887D01*
Y3279925D01*
X10215151Y3264962D01*
X10230113D01*
X10267519Y3212594D02*
X10237594Y3242519D01*
X10297444D01*
X10304925Y3250000D01*
Y3264962D01*
X10289962Y3279925D01*
X10275000D01*
X10312406Y3167708D02*
X10282481Y3197632D01*
X10342330D01*
X10349811Y3205113D01*
Y3220076D01*
X10334849Y3235038D01*
X10319887D01*
X9359098Y4310220D02*
X9343537D01*
X9327977Y4294659D01*
Y4279098D01*
X9359098Y4247977D01*
X9374659D01*
X9390219Y4263537D01*
Y4279098D01*
X9444682Y4318000D02*
X9413561Y4286878D01*
Y4349121D01*
X9405780Y4356902D01*
X9390219D01*
X9374659Y4341341D01*
Y4325781D01*
X9460243Y4333561D02*
X9475804Y4349122D01*
X9468023Y4341341D01*
X9421341Y4388023D01*
Y4372463D01*
X10560038Y3519887D02*
Y3534849D01*
X10545076Y3549811D01*
X10530113D01*
X10500189Y3519887D01*
Y3504924D01*
X10515151Y3489962D01*
X10530113D01*
X10567519Y3437594D02*
X10537594Y3467519D01*
X10597444D01*
X10604925Y3475000D01*
Y3489962D01*
X10589962Y3504924D01*
X10575000D01*
X10619887Y3460038D02*
X10634849D01*
X10649811Y3445075D01*
Y3430113D01*
X10619887Y3400189D01*
X10604925D01*
X10589962Y3415151D01*
Y3430113D01*
X10619887Y3460038D01*
X10426212Y4987177D02*
Y5002737D01*
X10410652Y5018298D01*
X10395091D01*
X10363969Y4987176D01*
Y4971616D01*
X10379530Y4956055D01*
X10395091D01*
X10402871Y4932714D02*
X10418432Y4917153D01*
X10410652Y4924934D01*
X10457334Y4971616D01*
X10441773D01*
X10449553Y4901592D02*
Y4886032D01*
X10465114Y4870471D01*
X10480675D01*
X10511796Y4901592D01*
Y4917153D01*
X10496236Y4932714D01*
X10480675D01*
X10472894Y4924934D01*
Y4909373D01*
X10496236Y4886032D01*
X11133208Y3988830D02*
X11117647D01*
X11102086Y3973269D01*
Y3957708D01*
X11133208Y3926587D01*
X11148768D01*
X11164329Y3942147D01*
Y3957708D01*
X11187670Y3965488D02*
X11203231Y3981049D01*
X11195451Y3973269D01*
X11148768Y4019951D01*
Y4004391D01*
X11187670Y4043292D02*
Y4058853D01*
X11203231Y4074414D01*
X11218792D01*
X11226572Y4066633D01*
Y4051073D01*
X11242133D01*
X11249913Y4043292D01*
Y4027732D01*
X11234353Y4012171D01*
X11218792D01*
X11211012Y4019951D01*
Y4035512D01*
X11195451D01*
X11187670Y4043292D01*
X11211012Y4035512D02*
X11226572Y4051073D01*
X9227994Y5761489D02*
X9216991Y5750486D01*
Y5728480D01*
X9227994Y5717477D01*
X9272006D01*
X9283009Y5728480D01*
Y5750486D01*
X9272006Y5761489D01*
X9283009Y5783495D02*
Y5805502D01*
Y5794498D01*
X9216991D01*
X9227994Y5783495D01*
X9216991Y5882523D02*
X9227994Y5860517D01*
X9250000Y5838511D01*
X9272006D01*
X9283009Y5849514D01*
Y5871520D01*
X9272006Y5882523D01*
X9261003D01*
X9250000Y5871520D01*
Y5838511D01*
X10602994Y5711489D02*
X10591990Y5700486D01*
Y5678480D01*
X10602994Y5667477D01*
X10647006D01*
X10658009Y5678480D01*
Y5700486D01*
X10647006Y5711489D01*
X10658009Y5733496D02*
Y5755502D01*
Y5744499D01*
X10591990D01*
X10602994Y5733496D01*
X10591990Y5832524D02*
Y5788511D01*
X10625000D01*
X10613997Y5810517D01*
Y5821520D01*
X10625000Y5832524D01*
X10647006D01*
X10658009Y5821520D01*
Y5799514D01*
X10647006Y5788511D01*
X10877993Y5711489D02*
X10866990Y5700486D01*
Y5678480D01*
X10877993Y5667477D01*
X10922006D01*
X10933009Y5678480D01*
Y5700486D01*
X10922006Y5711489D01*
X10933009Y5733495D02*
Y5755502D01*
Y5744498D01*
X10866990D01*
X10877993Y5733495D01*
X10933009Y5821520D02*
X10866990D01*
X10900000Y5788511D01*
Y5832523D01*
X4762089Y3070006D02*
X4751086Y3081009D01*
X4729080D01*
X4718077Y3070006D01*
Y3025994D01*
X4729080Y3014991D01*
X4751086D01*
X4762089Y3025994D01*
X4784095Y3014991D02*
X4806102D01*
X4795098D01*
Y3081009D01*
X4784095Y3070006D01*
X4839111D02*
X4850114Y3081009D01*
X4872120D01*
X4883123Y3070006D01*
Y3059003D01*
X4872120Y3048000D01*
X4861117D01*
X4872120D01*
X4883123Y3036997D01*
Y3025994D01*
X4872120Y3014991D01*
X4850114D01*
X4839111Y3025994D01*
X4726958Y3279219D02*
X4715955Y3268216D01*
Y3246210D01*
X4726958Y3235207D01*
X4770971D01*
X4781974Y3246210D01*
Y3268216D01*
X4770971Y3279219D01*
X4781974Y3301226D02*
Y3323232D01*
Y3312229D01*
X4715955D01*
X4726958Y3301226D01*
X4781974Y3400254D02*
Y3356241D01*
X4737961Y3400254D01*
X4726958D01*
X4715955Y3389251D01*
Y3367244D01*
X4726958Y3356241D01*
X3004230Y2794737D02*
X2993227Y2805740D01*
X2971220D01*
X2960217Y2794737D01*
Y2750724D01*
X2971220Y2739721D01*
X2993227D01*
X3004230Y2750724D01*
X3026236Y2739721D02*
X3048242D01*
X3037239D01*
Y2805740D01*
X3026236Y2794737D01*
X3081252Y2739721D02*
X3103258D01*
X3092255D01*
Y2805740D01*
X3081252Y2794737D01*
X2670393Y3898489D02*
X2659390Y3887486D01*
Y3865479D01*
X2670393Y3854476D01*
X2714406D01*
X2725409Y3865479D01*
Y3887486D01*
X2714406Y3898489D01*
X2725409Y3920495D02*
Y3942501D01*
Y3931498D01*
X2659390D01*
X2670393Y3920495D01*
Y3975511D02*
X2659390Y3986514D01*
Y4008520D01*
X2670393Y4019523D01*
X2714406D01*
X2725409Y4008520D01*
Y3986514D01*
X2714406Y3975511D01*
X2670393D01*
X2467193Y3900597D02*
X2456190Y3889594D01*
Y3867587D01*
X2467193Y3856584D01*
X2511206D01*
X2522209Y3867587D01*
Y3889594D01*
X2511206Y3900597D01*
Y3922603D02*
X2522209Y3933606D01*
Y3955612D01*
X2511206Y3966615D01*
X2467193D01*
X2456190Y3955612D01*
Y3933606D01*
X2467193Y3922603D01*
X2478197D01*
X2489200Y3933606D01*
Y3966615D01*
X2213194Y3900597D02*
X2202191Y3889594D01*
Y3867588D01*
X2213194Y3856585D01*
X2257206D01*
X2268209Y3867588D01*
Y3889594D01*
X2257206Y3900597D01*
X2213194Y3922603D02*
X2202191Y3933606D01*
Y3955613D01*
X2213194Y3966616D01*
X2224197D01*
X2235200Y3955613D01*
X2246203Y3966616D01*
X2257206D01*
X2268209Y3955613D01*
Y3933606D01*
X2257206Y3922603D01*
X2246203D01*
X2235200Y3933606D01*
X2224197Y3922603D01*
X2213194D01*
X2235200Y3933606D02*
Y3955613D01*
X3076794Y4738797D02*
X3065791Y4727794D01*
Y4705788D01*
X3076794Y4694785D01*
X3120806D01*
X3131809Y4705788D01*
Y4727794D01*
X3120806Y4738797D01*
X3065791Y4760803D02*
Y4804816D01*
X3076794D01*
X3120806Y4760803D01*
X3131809D01*
X3076794Y5094397D02*
X3065791Y5083394D01*
Y5061388D01*
X3076794Y5050385D01*
X3120806D01*
X3131809Y5061388D01*
Y5083394D01*
X3120806Y5094397D01*
X3065791Y5160416D02*
X3076794Y5138410D01*
X3098800Y5116403D01*
X3120806D01*
X3131809Y5127406D01*
Y5149413D01*
X3120806Y5160416D01*
X3109803D01*
X3098800Y5149413D01*
Y5116403D01*
X3316397Y3806606D02*
X3305394Y3817609D01*
X3283388D01*
X3272385Y3806606D01*
Y3762594D01*
X3283388Y3751591D01*
X3305394D01*
X3316397Y3762594D01*
X3382416Y3817609D02*
X3338403D01*
Y3784600D01*
X3360410Y3795603D01*
X3371413D01*
X3382416Y3784600D01*
Y3762594D01*
X3371413Y3751591D01*
X3349406D01*
X3338403Y3762594D01*
X1425793Y2935397D02*
X1414790Y2924394D01*
Y2902387D01*
X1425793Y2891384D01*
X1469806D01*
X1480809Y2902387D01*
Y2924394D01*
X1469806Y2935397D01*
X1480809Y2990412D02*
X1414790D01*
X1447800Y2957403D01*
Y3001415D01*
X1425793Y2630597D02*
X1414790Y2619594D01*
Y2597587D01*
X1425793Y2586584D01*
X1469806D01*
X1480809Y2597587D01*
Y2619594D01*
X1469806Y2630597D01*
X1425793Y2652603D02*
X1414790Y2663606D01*
Y2685612D01*
X1425793Y2696615D01*
X1436797D01*
X1447800Y2685612D01*
Y2674609D01*
Y2685612D01*
X1458803Y2696615D01*
X1469806D01*
X1480809Y2685612D01*
Y2663606D01*
X1469806Y2652603D01*
X2129975Y6302836D02*
X2118972Y6313839D01*
X2096966D01*
X2085963Y6302836D01*
Y6258824D01*
X2096966Y6247821D01*
X2118972D01*
X2129975Y6258824D01*
X2195994Y6247821D02*
X2151981D01*
X2195994Y6291833D01*
Y6302836D01*
X2184991Y6313839D01*
X2162984D01*
X2151981Y6302836D01*
X2133600Y5991006D02*
X2122597Y6002009D01*
X2100591D01*
X2089588Y5991006D01*
Y5946994D01*
X2100591Y5935991D01*
X2122597D01*
X2133600Y5946994D01*
X2155606Y5935991D02*
X2177613D01*
X2166609D01*
Y6002009D01*
X2155606Y5991006D01*
D81*
X4875904Y6546006D02*
Y6486025D01*
X4905894D01*
X4915891Y6496022D01*
Y6536009D01*
X4905894Y6546006D01*
X4875904D01*
X4975871D02*
X4935884D01*
Y6516016D01*
X4955878Y6526012D01*
X4965874D01*
X4975871Y6516016D01*
Y6496022D01*
X4965874Y6486025D01*
X4945881D01*
X4935884Y6496022D01*
%TF.MD5,4f33eca02108b14d653c73a255fbd6f5*%
M02*
