%TF.GenerationSoftware,Altium Limited,DefaultClient, ()*%
G04 Layer_Color=8421504*
%FSLAX45Y45*%
%MOMM*%
%TF.SameCoordinates,AE975085-364B-4CEB-9B6D-173D2EE7C3AA*%
%TF.FilePolarity,Positive*%
%TF.FileFunction,Paste,Top*%
%TF.Part,Single*%
G01*
G75*
%TA.AperFunction,SMDPad,CuDef*%
G04:AMPARAMS|DCode=14|XSize=0.3mm|YSize=2.1mm|CornerRadius=0mm|HoleSize=0mm|Usage=FLASHONLY|Rotation=225.000|XOffset=0mm|YOffset=0mm|HoleType=Round|Shape=Round|*
%AMOVALD14*
21,1,1.80000,0.30000,0.00000,0.00000,315.0*
1,1,0.30000,-0.63640,0.63640*
1,1,0.30000,0.63640,-0.63640*
%
%ADD14OVALD14*%

G04:AMPARAMS|DCode=15|XSize=0.3mm|YSize=2.1mm|CornerRadius=0mm|HoleSize=0mm|Usage=FLASHONLY|Rotation=135.000|XOffset=0mm|YOffset=0mm|HoleType=Round|Shape=Round|*
%AMOVALD15*
21,1,1.80000,0.30000,0.00000,0.00000,225.0*
1,1,0.30000,0.63640,0.63640*
1,1,0.30000,-0.63640,-0.63640*
%
%ADD15OVALD15*%

%ADD16R,1.52500X0.65000*%
%ADD17R,2.39000X3.20000*%
%ADD18R,1.00000X0.80000*%
G04:AMPARAMS|DCode=19|XSize=0.6mm|YSize=1.65mm|CornerRadius=0.051mm|HoleSize=0mm|Usage=FLASHONLY|Rotation=90.000|XOffset=0mm|YOffset=0mm|HoleType=Round|Shape=RoundedRectangle|*
%AMROUNDEDRECTD19*
21,1,0.60000,1.54800,0,0,90.0*
21,1,0.49800,1.65000,0,0,90.0*
1,1,0.10200,0.77400,0.24900*
1,1,0.10200,0.77400,-0.24900*
1,1,0.10200,-0.77400,-0.24900*
1,1,0.10200,-0.77400,0.24900*
%
%ADD19ROUNDEDRECTD19*%
%ADD20R,1.20000X1.50000*%
%ADD21R,3.30000X1.50000*%
%ADD22R,2.50000X3.30000*%
%ADD23R,0.90000X0.80000*%
%ADD24R,0.65872X0.81213*%
%ADD25R,0.80000X0.90000*%
%ADD26R,0.65872X0.78740*%
%ADD27R,0.81213X0.65872*%
%ADD28R,1.30000X1.55000*%
%ADD29R,1.50822X1.40574*%
%ADD30R,1.05814X0.91213*%
%ADD31R,1.25814X1.01213*%
%ADD32R,1.57807X1.55620*%
G04:AMPARAMS|DCode=33|XSize=1.0065mm|YSize=0.95822mm|CornerRadius=0mm|HoleSize=0mm|Usage=FLASHONLY|Rotation=45.000|XOffset=0mm|YOffset=0mm|HoleType=Round|Shape=Rectangle|*
%AMROTATEDRECTD33*
4,1,4,-0.01707,-0.69463,-0.69463,-0.01707,0.01707,0.69463,0.69463,0.01707,-0.01707,-0.69463,0.0*
%
%ADD33ROTATEDRECTD33*%

%ADD34R,0.91213X0.85872*%
G04:AMPARAMS|DCode=35|XSize=5.6mm|YSize=2.1mm|CornerRadius=0mm|HoleSize=0mm|Usage=FLASHONLY|Rotation=225.000|XOffset=0mm|YOffset=0mm|HoleType=Round|Shape=Rectangle|*
%AMROTATEDRECTD35*
4,1,4,1.23744,2.72236,2.72236,1.23744,-1.23744,-2.72236,-2.72236,-1.23744,1.23744,2.72236,0.0*
%
%ADD35ROTATEDRECTD35*%

%ADD36R,2.50000X1.25000*%
%ADD37R,3.20000X1.60000*%
%ADD38R,1.55443X1.90620*%
%ADD39R,0.85000X0.90000*%
%ADD40R,1.25000X2.50000*%
%ADD41R,1.01213X1.25814*%
G04:AMPARAMS|DCode=42|XSize=0.9mm|YSize=0.85mm|CornerRadius=0mm|HoleSize=0mm|Usage=FLASHONLY|Rotation=135.000|XOffset=0mm|YOffset=0mm|HoleType=Round|Shape=Rectangle|*
%AMROTATEDRECTD42*
4,1,4,0.61872,-0.01768,0.01768,-0.61872,-0.61872,0.01768,-0.01768,0.61872,0.61872,-0.01768,0.0*
%
%ADD42ROTATEDRECTD42*%

G04:AMPARAMS|DCode=43|XSize=0.9mm|YSize=0.85mm|CornerRadius=0mm|HoleSize=0mm|Usage=FLASHONLY|Rotation=45.000|XOffset=0mm|YOffset=0mm|HoleType=Round|Shape=Rectangle|*
%AMROTATEDRECTD43*
4,1,4,-0.01768,-0.61872,-0.61872,-0.01768,0.01768,0.61872,0.61872,0.01768,-0.01768,-0.61872,0.0*
%
%ADD43ROTATEDRECTD43*%

%ADD44R,0.91213X1.05814*%
%ADD45R,3.30000X2.50000*%
%ADD46R,0.80000X1.00000*%
D14*
X10639902Y3953915D02*
D03*
X9777232Y4250899D02*
D03*
X10357059Y3671072D02*
D03*
X9812587Y4286255D02*
D03*
X9847943Y4321610D02*
D03*
X9883298Y4356965D02*
D03*
X9918653Y4392321D02*
D03*
X9954009Y4427676D02*
D03*
X9989364Y4463031D02*
D03*
X10024719Y4498387D02*
D03*
X10060075Y4533742D02*
D03*
X10095430Y4569098D02*
D03*
X10130785Y4604453D02*
D03*
X10166141Y4639808D02*
D03*
X10745968Y4059981D02*
D03*
X10710613Y4024625D02*
D03*
X10675258Y3989270D02*
D03*
X10604547Y3918559D02*
D03*
X10569191Y3883204D02*
D03*
X10463125Y3777138D02*
D03*
X10427770Y3741783D02*
D03*
X10392415Y3706427D02*
D03*
X10533836Y3847849D02*
D03*
X10498481Y3812493D02*
D03*
D15*
X10357059Y4639808D02*
D03*
X10166141Y3671072D02*
D03*
X10130785Y3706427D02*
D03*
X10095430Y3741783D02*
D03*
X10060075Y3777138D02*
D03*
X10024719Y3812493D02*
D03*
X9989364Y3847849D02*
D03*
X9954009Y3883204D02*
D03*
X9918653Y3918559D02*
D03*
X9847942Y3989270D02*
D03*
X9812587Y4024625D02*
D03*
X9777232Y4059981D02*
D03*
X10392415Y4604453D02*
D03*
X10427770Y4569098D02*
D03*
X10463125Y4533742D02*
D03*
X10498481Y4498387D02*
D03*
X10533836Y4463031D02*
D03*
X10569191Y4427676D02*
D03*
X10604547Y4392321D02*
D03*
X10639902Y4356965D02*
D03*
X10675257Y4321610D02*
D03*
X10710613Y4286255D02*
D03*
X10745968Y4250899D02*
D03*
X9883298Y3953915D02*
D03*
D16*
X3089800Y3594100D02*
D03*
Y3467100D02*
D03*
Y3340100D02*
D03*
Y3213100D02*
D03*
X3632200D02*
D03*
Y3340100D02*
D03*
Y3467100D02*
D03*
Y3594100D02*
D03*
X2184400Y5334000D02*
D03*
X1642000Y5715000D02*
D03*
Y5588000D02*
D03*
Y5461000D02*
D03*
Y5334000D02*
D03*
X2184400Y5715000D02*
D03*
Y5588000D02*
D03*
Y5461000D02*
D03*
X1654700Y2006600D02*
D03*
Y2133600D02*
D03*
Y2260600D02*
D03*
Y2387600D02*
D03*
X2197100Y2006600D02*
D03*
Y2260600D02*
D03*
Y2133600D02*
D03*
Y2387600D02*
D03*
D17*
X3361000Y3403600D02*
D03*
X1913200Y5524500D02*
D03*
X1925900Y2197100D02*
D03*
D18*
X12187904Y1812989D02*
D03*
X12187904Y1962989D02*
D03*
X7925000Y6634993D02*
D03*
Y6484993D02*
D03*
X11651457Y1812990D02*
D03*
Y1962989D02*
D03*
X11827479Y1812990D02*
D03*
Y1962989D02*
D03*
X12007492D02*
D03*
Y1812990D02*
D03*
D19*
X12947099Y4495800D02*
D03*
Y4241800D02*
D03*
Y3987800D02*
D03*
Y3733800D02*
D03*
X13672099Y4368800D02*
D03*
Y4114800D02*
D03*
Y3860800D02*
D03*
X12947099Y4114800D02*
D03*
X13672099Y4241800D02*
D03*
Y4495800D02*
D03*
X12947099Y4368800D02*
D03*
X13672099Y3733800D02*
D03*
Y3987800D02*
D03*
X12947099Y3860800D02*
D03*
D20*
X9880000Y5979200D02*
D03*
X10340000D02*
D03*
X10110000Y5979200D02*
D03*
D21*
Y6619200D02*
D03*
D22*
X3596200Y4229100D02*
D03*
X2906200D02*
D03*
X1285680Y3500120D02*
D03*
X1975680D02*
D03*
D23*
X14139000Y8686800D02*
D03*
X14309000D02*
D03*
X14139000Y431800D02*
D03*
X14309000D02*
D03*
X14139000Y2108200D02*
D03*
X14309000D02*
D03*
X14139000Y3733800D02*
D03*
X14309000D02*
D03*
X14139000Y5384800D02*
D03*
X14309000D02*
D03*
X14139000Y7035800D02*
D03*
X14309000D02*
D03*
X4490000Y5250000D02*
D03*
X4660000D02*
D03*
D24*
X2688950Y3092060D02*
D03*
X2553610D02*
D03*
D25*
X13234599Y3229800D02*
D03*
Y3399800D02*
D03*
X12934599Y4829800D02*
D03*
Y4999800D02*
D03*
X13163200Y4830000D02*
D03*
Y5000000D02*
D03*
X13366400Y4830000D02*
D03*
Y5000000D02*
D03*
X13634599Y3229800D02*
D03*
Y3399800D02*
D03*
X13434599Y3229800D02*
D03*
Y3399800D02*
D03*
D26*
X2688950Y3243580D02*
D03*
X2553610D02*
D03*
D27*
X4090791Y3285648D02*
D03*
Y3420989D02*
D03*
X4398202Y3416662D02*
D03*
Y3281321D02*
D03*
D28*
X10332800Y1507500D02*
D03*
Y2302500D02*
D03*
X10782800D02*
D03*
Y1507500D02*
D03*
X8325000Y6027500D02*
D03*
Y6822500D02*
D03*
X8775000D02*
D03*
Y6027500D02*
D03*
X10993200Y1507500D02*
D03*
Y2302500D02*
D03*
X11443200D02*
D03*
Y1507500D02*
D03*
X9012000Y2302500D02*
D03*
Y1507500D02*
D03*
X9462000D02*
D03*
Y2302500D02*
D03*
X9672400Y1507500D02*
D03*
Y2302500D02*
D03*
X10122400D02*
D03*
Y1507500D02*
D03*
D29*
X10619589Y6188624D02*
D03*
Y6003376D02*
D03*
X2311400Y3552276D02*
D03*
Y3737524D02*
D03*
X2540000Y3552276D02*
D03*
Y3737524D02*
D03*
X2768600Y3552276D02*
D03*
Y3737524D02*
D03*
X10898989Y6188624D02*
D03*
Y6003376D02*
D03*
D30*
X11146401Y2463800D02*
D03*
X11281799D02*
D03*
X3513701Y3771900D02*
D03*
X3649100D02*
D03*
X9165201Y2463800D02*
D03*
X9300599D02*
D03*
X9825601D02*
D03*
X9960999D02*
D03*
X10486001D02*
D03*
X10621399D02*
D03*
D31*
X3922801Y3048000D02*
D03*
X4078199D02*
D03*
D32*
X2936194Y2984500D02*
D03*
X3109006D02*
D03*
D33*
X11449794Y3222734D02*
D03*
X11552446Y3325386D02*
D03*
X11095246Y2868186D02*
D03*
X10992594Y2765534D02*
D03*
D34*
X4245694Y3237926D02*
D03*
Y3393268D02*
D03*
D35*
X11341696Y3675976D02*
D03*
X10669944Y3004224D02*
D03*
D36*
X9576600Y6053000D02*
D03*
Y6393000D02*
D03*
X9246400Y6053000D02*
D03*
Y6393000D02*
D03*
X8966200Y3284040D02*
D03*
Y2944040D02*
D03*
D37*
X4343400Y4623300D02*
D03*
Y3733300D02*
D03*
D38*
X1950988Y2946400D02*
D03*
X1655812D02*
D03*
X1630412Y5969000D02*
D03*
X1925588D02*
D03*
X1630412Y6273800D02*
D03*
X1925588D02*
D03*
X1950988Y2641600D02*
D03*
X1655812D02*
D03*
D39*
X13730200Y4775200D02*
D03*
X13600200D02*
D03*
D40*
X3604080Y5102860D02*
D03*
X3264080D02*
D03*
X3604080Y4747260D02*
D03*
X3264080D02*
D03*
D41*
X3910765Y3433529D02*
D03*
Y3278131D02*
D03*
D42*
X10919218Y3733558D02*
D03*
X11011142Y3825482D02*
D03*
X9529838Y4157738D02*
D03*
X9621762Y4249662D02*
D03*
D43*
X10253738Y4871962D02*
D03*
X10345662Y4780038D02*
D03*
X10442182Y3446538D02*
D03*
X10350258Y3538462D02*
D03*
X10350742Y3352558D02*
D03*
X10258818Y3444482D02*
D03*
D44*
X7925000Y6136694D02*
D03*
Y6272093D02*
D03*
D45*
X3605060Y5613840D02*
D03*
Y6303840D02*
D03*
X4265460Y6303840D02*
D03*
Y5613840D02*
D03*
X4925860Y5613840D02*
D03*
Y6303840D02*
D03*
D46*
X14299001Y-431800D02*
D03*
X14149001D02*
D03*
X14299001Y1244600D02*
D03*
X14149001D02*
D03*
X14299001Y2870200D02*
D03*
X14149001D02*
D03*
X14299001Y4521200D02*
D03*
X14149001D02*
D03*
X14299001Y6172200D02*
D03*
X14149001D02*
D03*
X14299001Y7823200D02*
D03*
X14149001D02*
D03*
%TF.MD5,5ce31fdcacd2174b4ee9ef4556253e76*%
M02*
