%TF.GenerationSoftware,Altium Limited,DefaultClient, ()*%
G04 Layer_Color=8388736*
%FSLAX45Y45*%
%MOMM*%
%TF.SameCoordinates,AE975085-364B-4CEB-9B6D-173D2EE7C3AA*%
%TF.FilePolarity,Negative*%
%TF.FileFunction,Soldermask,Top*%
%TF.Part,Single*%
G01*
G75*
%TA.AperFunction,SMDPad,CuDef*%
%ADD20R,1.20000X1.50000*%
%ADD21R,3.30000X1.50000*%
%ADD22R,2.50000X3.30000*%
%ADD23R,0.90000X0.80000*%
%ADD24R,0.65872X0.81213*%
%ADD25R,0.80000X0.90000*%
%ADD26R,0.65872X0.78740*%
%ADD27R,0.81213X0.65872*%
%ADD28R,1.30000X1.55000*%
%ADD29R,1.50822X1.40574*%
%ADD30R,1.05814X0.91213*%
%ADD31R,1.25814X1.01213*%
%ADD32R,1.57807X1.55620*%
G04:AMPARAMS|DCode=33|XSize=1.0065mm|YSize=0.95822mm|CornerRadius=0mm|HoleSize=0mm|Usage=FLASHONLY|Rotation=45.000|XOffset=0mm|YOffset=0mm|HoleType=Round|Shape=Rectangle|*
%AMROTATEDRECTD33*
4,1,4,-0.01707,-0.69463,-0.69463,-0.01707,0.01707,0.69463,0.69463,0.01707,-0.01707,-0.69463,0.0*
%
%ADD33ROTATEDRECTD33*%

%ADD34R,0.91213X0.85872*%
G04:AMPARAMS|DCode=35|XSize=5.6mm|YSize=2.1mm|CornerRadius=0mm|HoleSize=0mm|Usage=FLASHONLY|Rotation=225.000|XOffset=0mm|YOffset=0mm|HoleType=Round|Shape=Rectangle|*
%AMROTATEDRECTD35*
4,1,4,1.23744,2.72236,2.72236,1.23744,-1.23744,-2.72236,-2.72236,-1.23744,1.23744,2.72236,0.0*
%
%ADD35ROTATEDRECTD35*%

%ADD36R,2.50000X1.25000*%
%ADD40R,1.25000X2.50000*%
%ADD41R,1.01213X1.25814*%
%ADD44R,0.91213X1.05814*%
%ADD45R,3.30000X2.50000*%
%TA.AperFunction,ComponentPad*%
%ADD61C,2.45000*%
%ADD62R,2.45000X2.45000*%
%ADD63R,1.30000X1.30000*%
%ADD64C,1.30000*%
%TA.AperFunction,NonConductor*%
%ADD82R,3.55600X9.65200*%
%ADD83R,2.28600X2.28600*%
%ADD84R,1.27000X1.27000*%
%TA.AperFunction,SMDPad,CuDef*%
G04:AMPARAMS|DCode=85|XSize=0.5032mm|YSize=2.3032mm|CornerRadius=0mm|HoleSize=0mm|Usage=FLASHONLY|Rotation=225.000|XOffset=0mm|YOffset=0mm|HoleType=Round|Shape=Round|*
%AMOVALD85*
21,1,1.80000,0.50320,0.00000,0.00000,315.0*
1,1,0.50320,-0.63640,0.63640*
1,1,0.50320,0.63640,-0.63640*
%
%ADD85OVALD85*%

G04:AMPARAMS|DCode=86|XSize=0.5032mm|YSize=2.3032mm|CornerRadius=0mm|HoleSize=0mm|Usage=FLASHONLY|Rotation=135.000|XOffset=0mm|YOffset=0mm|HoleType=Round|Shape=Round|*
%AMOVALD86*
21,1,1.80000,0.50320,0.00000,0.00000,225.0*
1,1,0.50320,0.63640,0.63640*
1,1,0.50320,-0.63640,-0.63640*
%
%ADD86OVALD86*%

%ADD87R,1.72820X0.85320*%
%ADD88R,2.59320X3.40320*%
%ADD89R,1.20320X1.00320*%
G04:AMPARAMS|DCode=90|XSize=0.8032mm|YSize=1.8532mm|CornerRadius=0.1526mm|HoleSize=0mm|Usage=FLASHONLY|Rotation=90.000|XOffset=0mm|YOffset=0mm|HoleType=Round|Shape=RoundedRectangle|*
%AMROUNDEDRECTD90*
21,1,0.80320,1.54800,0,0,90.0*
21,1,0.49800,1.85320,0,0,90.0*
1,1,0.30520,0.77400,0.24900*
1,1,0.30520,0.77400,-0.24900*
1,1,0.30520,-0.77400,-0.24900*
1,1,0.30520,-0.77400,0.24900*
%
%ADD90ROUNDEDRECTD90*%
%ADD91R,3.40320X1.80320*%
%ADD92R,1.75763X2.10940*%
%ADD93R,1.05320X1.10320*%
G04:AMPARAMS|DCode=94|XSize=1.1032mm|YSize=1.0532mm|CornerRadius=0mm|HoleSize=0mm|Usage=FLASHONLY|Rotation=135.000|XOffset=0mm|YOffset=0mm|HoleType=Round|Shape=Rectangle|*
%AMROTATEDRECTD94*
4,1,4,0.76240,-0.01768,0.01768,-0.76240,-0.76240,0.01768,-0.01768,0.76240,0.76240,-0.01768,0.0*
%
%ADD94ROTATEDRECTD94*%

G04:AMPARAMS|DCode=95|XSize=1.1032mm|YSize=1.0532mm|CornerRadius=0mm|HoleSize=0mm|Usage=FLASHONLY|Rotation=45.000|XOffset=0mm|YOffset=0mm|HoleType=Round|Shape=Rectangle|*
%AMROTATEDRECTD95*
4,1,4,-0.01768,-0.76240,-0.76240,-0.01768,0.01768,0.76240,0.76240,0.01768,-0.01768,-0.76240,0.0*
%
%ADD95ROTATEDRECTD95*%

%ADD96R,1.00320X1.20320*%
%TA.AperFunction,ComponentPad*%
%ADD97C,3.75920*%
%ADD98C,2.23520*%
G04:AMPARAMS|DCode=99|XSize=2.1532mm|YSize=2.1532mm|CornerRadius=0.5891mm|HoleSize=0mm|Usage=FLASHONLY|Rotation=90.000|XOffset=0mm|YOffset=0mm|HoleType=Round|Shape=RoundedRectangle|*
%AMROUNDEDRECTD99*
21,1,2.15320,0.97500,0,0,90.0*
21,1,0.97500,2.15320,0,0,90.0*
1,1,1.17820,0.48750,0.48750*
1,1,1.17820,0.48750,-0.48750*
1,1,1.17820,-0.48750,-0.48750*
1,1,1.17820,-0.48750,0.48750*
%
%ADD99ROUNDEDRECTD99*%
%ADD100C,2.15320*%
%ADD101C,1.80320*%
G04:AMPARAMS|DCode=102|XSize=1.8032mm|YSize=1.8032mm|CornerRadius=0.5016mm|HoleSize=0mm|Usage=FLASHONLY|Rotation=180.000|XOffset=0mm|YOffset=0mm|HoleType=Round|Shape=RoundedRectangle|*
%AMROUNDEDRECTD102*
21,1,1.80320,0.80000,0,0,180.0*
21,1,0.80000,1.80320,0,0,180.0*
1,1,1.00320,-0.40000,0.40000*
1,1,1.00320,0.40000,0.40000*
1,1,1.00320,0.40000,-0.40000*
1,1,1.00320,-0.40000,-0.40000*
%
%ADD102ROUNDEDRECTD102*%
%TA.AperFunction,ViaPad*%
%ADD103C,3.70320*%
G36*
X2036231Y1931102D02*
X2045199Y1922110D01*
X2045016Y1825045D01*
X1806416Y1825445D01*
Y1922310D01*
X1815400Y1931287D01*
X2036231Y1931102D01*
D02*
G37*
G36*
X3475000Y3000000D02*
X3250000D01*
Y3150000D01*
X3475000D01*
Y3000000D01*
D02*
G37*
G36*
X2023563Y5261015D02*
X2032531Y5252023D01*
X2032348Y5154958D01*
X1793747Y5155358D01*
Y5252223D01*
X1802732Y5261200D01*
X2023563Y5261015D01*
D02*
G37*
D20*
X9880000Y5979200D02*
D03*
X10340000D02*
D03*
X10110000Y5979200D02*
D03*
D21*
Y6619200D02*
D03*
D22*
X3596200Y4229100D02*
D03*
X2906200D02*
D03*
X1285680Y3500120D02*
D03*
X1975680D02*
D03*
D23*
X14139000Y8686800D02*
D03*
X14309000D02*
D03*
X14139000Y431800D02*
D03*
X14309000D02*
D03*
X14139000Y2108200D02*
D03*
X14309000D02*
D03*
X14139000Y3733800D02*
D03*
X14309000D02*
D03*
X14139000Y5384800D02*
D03*
X14309000D02*
D03*
X14139000Y7035800D02*
D03*
X14309000D02*
D03*
X4490000Y5250000D02*
D03*
X4660000D02*
D03*
D24*
X2688950Y3092060D02*
D03*
X2553610D02*
D03*
D25*
X13234599Y3229800D02*
D03*
Y3399800D02*
D03*
X12934599Y4829800D02*
D03*
Y4999800D02*
D03*
X13163200Y4830000D02*
D03*
Y5000000D02*
D03*
X13366400Y4830000D02*
D03*
Y5000000D02*
D03*
X13634599Y3229800D02*
D03*
Y3399800D02*
D03*
X13434599Y3229800D02*
D03*
Y3399800D02*
D03*
D26*
X2688950Y3243580D02*
D03*
X2553610D02*
D03*
D27*
X4090791Y3285648D02*
D03*
Y3420989D02*
D03*
X4398202Y3416662D02*
D03*
Y3281321D02*
D03*
D28*
X10332800Y1507500D02*
D03*
Y2302500D02*
D03*
X10782800D02*
D03*
Y1507500D02*
D03*
X8325000Y6027500D02*
D03*
Y6822500D02*
D03*
X8775000D02*
D03*
Y6027500D02*
D03*
X10993200Y1507500D02*
D03*
Y2302500D02*
D03*
X11443200D02*
D03*
Y1507500D02*
D03*
X9012000Y2302500D02*
D03*
Y1507500D02*
D03*
X9462000D02*
D03*
Y2302500D02*
D03*
X9672400Y1507500D02*
D03*
Y2302500D02*
D03*
X10122400D02*
D03*
Y1507500D02*
D03*
D29*
X10619589Y6188624D02*
D03*
Y6003376D02*
D03*
X2311400Y3552276D02*
D03*
Y3737524D02*
D03*
X2540000Y3552276D02*
D03*
Y3737524D02*
D03*
X2768600Y3552276D02*
D03*
Y3737524D02*
D03*
X10898989Y6188624D02*
D03*
Y6003376D02*
D03*
D30*
X11146401Y2463800D02*
D03*
X11281799D02*
D03*
X3513701Y3771900D02*
D03*
X3649100D02*
D03*
X9165201Y2463800D02*
D03*
X9300599D02*
D03*
X9825601D02*
D03*
X9960999D02*
D03*
X10486001D02*
D03*
X10621399D02*
D03*
D31*
X3922801Y3048000D02*
D03*
X4078199D02*
D03*
D32*
X2936194Y2984500D02*
D03*
X3109006D02*
D03*
D33*
X11449794Y3222734D02*
D03*
X11552446Y3325386D02*
D03*
X11095246Y2868186D02*
D03*
X10992594Y2765534D02*
D03*
D34*
X4245694Y3237926D02*
D03*
Y3393268D02*
D03*
D35*
X11341696Y3675976D02*
D03*
X10669944Y3004224D02*
D03*
D36*
X9576600Y6053000D02*
D03*
Y6393000D02*
D03*
X9246400Y6053000D02*
D03*
Y6393000D02*
D03*
X8966200Y3284040D02*
D03*
Y2944040D02*
D03*
D40*
X3604080Y5102860D02*
D03*
X3264080D02*
D03*
X3604080Y4747260D02*
D03*
X3264080D02*
D03*
D41*
X3910765Y3433529D02*
D03*
Y3278131D02*
D03*
D44*
X7925000Y6136694D02*
D03*
Y6272093D02*
D03*
D45*
X3605060Y5613840D02*
D03*
Y6303840D02*
D03*
X4265460Y6303840D02*
D03*
Y5613840D02*
D03*
X4925860Y5613840D02*
D03*
Y6303840D02*
D03*
D61*
X635000Y4026000D02*
D03*
Y3556000D02*
D03*
D62*
Y3086000D02*
D03*
D63*
X14097000Y6744000D02*
D03*
Y8395000D02*
D03*
Y140000D02*
D03*
Y1804000D02*
D03*
Y3442000D02*
D03*
Y5106000D02*
D03*
D64*
Y6464000D02*
D03*
X14350999Y6744000D02*
D03*
Y6464000D02*
D03*
X14097000Y8115000D02*
D03*
X14350999Y8395000D02*
D03*
Y8115000D02*
D03*
X14097000Y-140000D02*
D03*
X14350999Y140000D02*
D03*
Y-140000D02*
D03*
X14097000Y1524000D02*
D03*
X14350999Y1804000D02*
D03*
Y1524000D02*
D03*
X14097000Y3162000D02*
D03*
X14350999Y3442000D02*
D03*
Y3162000D02*
D03*
X14097000Y4826000D02*
D03*
X14350999Y5106000D02*
D03*
Y4826000D02*
D03*
D82*
X5435600Y4216400D02*
D03*
D83*
X11341100Y6743700D02*
D03*
D84*
X2984500Y5626100D02*
D03*
D85*
X10639902Y3953915D02*
D03*
X9777232Y4250899D02*
D03*
X10357059Y3671072D02*
D03*
X9812587Y4286255D02*
D03*
X9847943Y4321610D02*
D03*
X9883298Y4356965D02*
D03*
X9918653Y4392321D02*
D03*
X9954009Y4427676D02*
D03*
X9989364Y4463031D02*
D03*
X10024719Y4498387D02*
D03*
X10060075Y4533742D02*
D03*
X10095430Y4569098D02*
D03*
X10130785Y4604453D02*
D03*
X10166141Y4639808D02*
D03*
X10745968Y4059981D02*
D03*
X10710613Y4024625D02*
D03*
X10675258Y3989270D02*
D03*
X10604547Y3918559D02*
D03*
X10569191Y3883204D02*
D03*
X10463125Y3777138D02*
D03*
X10427770Y3741783D02*
D03*
X10392415Y3706427D02*
D03*
X10533836Y3847849D02*
D03*
X10498481Y3812493D02*
D03*
D86*
X10357059Y4639808D02*
D03*
X10166141Y3671072D02*
D03*
X10130785Y3706427D02*
D03*
X10095430Y3741783D02*
D03*
X10060075Y3777138D02*
D03*
X10024719Y3812493D02*
D03*
X9989364Y3847849D02*
D03*
X9954009Y3883204D02*
D03*
X9918653Y3918559D02*
D03*
X9847942Y3989270D02*
D03*
X9812587Y4024625D02*
D03*
X9777232Y4059981D02*
D03*
X10392415Y4604453D02*
D03*
X10427770Y4569098D02*
D03*
X10463125Y4533742D02*
D03*
X10498481Y4498387D02*
D03*
X10533836Y4463031D02*
D03*
X10569191Y4427676D02*
D03*
X10604547Y4392321D02*
D03*
X10639902Y4356965D02*
D03*
X10675257Y4321610D02*
D03*
X10710613Y4286255D02*
D03*
X10745968Y4250899D02*
D03*
X9883298Y3953915D02*
D03*
D87*
X3089800Y3594100D02*
D03*
Y3467100D02*
D03*
Y3340100D02*
D03*
Y3213100D02*
D03*
X3632200D02*
D03*
Y3340100D02*
D03*
Y3467100D02*
D03*
Y3594100D02*
D03*
X2184400Y5334000D02*
D03*
X1642000Y5715000D02*
D03*
Y5588000D02*
D03*
Y5461000D02*
D03*
Y5334000D02*
D03*
X2184400Y5715000D02*
D03*
Y5588000D02*
D03*
Y5461000D02*
D03*
X1654700Y2006600D02*
D03*
Y2133600D02*
D03*
Y2260600D02*
D03*
Y2387600D02*
D03*
X2197100Y2006600D02*
D03*
Y2260600D02*
D03*
Y2133600D02*
D03*
Y2387600D02*
D03*
D88*
X3361000Y3403600D02*
D03*
X1913200Y5524500D02*
D03*
X1925900Y2197100D02*
D03*
D89*
X12187904Y1812989D02*
D03*
X12187904Y1962989D02*
D03*
X7925000Y6634993D02*
D03*
Y6484993D02*
D03*
X11651457Y1812990D02*
D03*
Y1962989D02*
D03*
X11827479Y1812990D02*
D03*
Y1962989D02*
D03*
X12007492D02*
D03*
Y1812990D02*
D03*
D90*
X12947099Y4495800D02*
D03*
Y4241800D02*
D03*
Y3987800D02*
D03*
Y3733800D02*
D03*
X13672099Y4368800D02*
D03*
Y4114800D02*
D03*
Y3860800D02*
D03*
X12947099Y4114800D02*
D03*
X13672099Y4241800D02*
D03*
Y4495800D02*
D03*
X12947099Y4368800D02*
D03*
X13672099Y3733800D02*
D03*
Y3987800D02*
D03*
X12947099Y3860800D02*
D03*
D91*
X4343400Y4623300D02*
D03*
Y3733300D02*
D03*
D92*
X1950988Y2946400D02*
D03*
X1655812D02*
D03*
X1630412Y5969000D02*
D03*
X1925588D02*
D03*
X1630412Y6273800D02*
D03*
X1925588D02*
D03*
X1950988Y2641600D02*
D03*
X1655812D02*
D03*
D93*
X13730200Y4775200D02*
D03*
X13600200D02*
D03*
D94*
X10919218Y3733558D02*
D03*
X11011142Y3825482D02*
D03*
X9529838Y4157738D02*
D03*
X9621762Y4249662D02*
D03*
D95*
X10253738Y4871962D02*
D03*
X10345662Y4780038D02*
D03*
X10442182Y3446538D02*
D03*
X10350258Y3538462D02*
D03*
X10350742Y3352558D02*
D03*
X10258818Y3444482D02*
D03*
D96*
X14299001Y-431800D02*
D03*
X14149001D02*
D03*
X14299001Y1244600D02*
D03*
X14149001D02*
D03*
X14299001Y2870200D02*
D03*
X14149001D02*
D03*
X14299001Y4521200D02*
D03*
X14149001D02*
D03*
X14299001Y6172200D02*
D03*
X14149001D02*
D03*
X14299001Y7823200D02*
D03*
X14149001D02*
D03*
D97*
X6121400Y5448300D02*
D03*
Y2781300D02*
D03*
D98*
X8407400Y3352800D02*
D03*
Y2844800D02*
D03*
Y5130800D02*
D03*
Y3606800D02*
D03*
Y4368800D02*
D03*
Y3098800D02*
D03*
Y4622800D02*
D03*
Y4114800D02*
D03*
Y3860800D02*
D03*
Y5384800D02*
D03*
Y4876800D02*
D03*
D99*
X233200Y1958600D02*
D03*
X589998Y5202999D02*
D03*
X233200Y5921000D02*
D03*
D100*
Y2308600D02*
D03*
X589998Y4703000D02*
D03*
X233200Y6271000D02*
D03*
D101*
X7823200Y1590040D02*
D03*
X8077200D02*
D03*
X8331200D02*
D03*
D102*
X8585200D02*
D03*
D103*
X12458700Y3393440D02*
D03*
X12446000Y4866640D02*
D03*
X1930011Y67502D02*
D03*
Y1067502D02*
D03*
X730011D02*
D03*
Y67502D02*
D03*
X1928980Y8196580D02*
D03*
Y7196580D02*
D03*
X728980D02*
D03*
Y8196580D02*
D03*
%TF.MD5,f1d6b3b9fdd2d556026963d4bec2079e*%
M02*
