M48
;Layer_Color=9474304
;FILE_FORMAT=4:4
METRIC,LZ
;TYPE=PLATED
T01F00S00C0.3048
T02F00S00C0.8000
T03F00S00C1.0160
T04F00S00C1.1000
T05F00S00C1.3000
T06F00S00C1.6000
T07F00S00C2.2000
T08F00S00C2.5000
T09F00S00C2.5400
%
T01
X000254Y-000254
X0046355Y-0003175
X01294525Y-00038083
X01382656Y-00085534
X01425702Y-00027686
X01475428Y-00036704
X01430274Y00108966
X01296924Y00078994
X01301127Y00359818
X01382148Y0037335
X01392308
Y0039875
X01382148
X01429766Y00272542
X01476019Y00260662
X0151765Y003175
X01288427Y00359818
X0113538Y00312928
X01118362Y0029591
X01106849Y00239319
X01122172Y00222504
X01063752Y00214884
X01040809Y00239319
X00974769
X00990346Y00207264
X00990092Y00150622
X009775Y001525
X00926846Y00152654
X009125Y001525
X00926846Y00210566
X00908729Y00239319
X00908305Y00373579
X00901192Y00379476
X00915924Y0037973
X00923492Y00373796
X0099695Y003556
X0100203Y0034925
X0100711Y003429
X01021709Y00361141
X01026789Y00366221
X01018786Y00399996
X01046734Y00401574
X0108077Y0036957
X0108712Y0036322
X01052068Y00336804
X01042924Y00327914
X01045Y001525
X01063498Y00152908
X0111Y001525
X01122172Y00152908
X01166238Y00144593
X01235801Y00144199
X0080645Y002032
X0073025Y001524
X0062865Y0019685
X00508Y0014605
Y0001905
X005334Y00381
X0055372
X00878466Y00373466
X00885952Y00378968
X00893267Y0037319
X00423888Y00349927
X00417509Y00346095
X00408762Y00349977
X00400571Y00345153
X00391077Y00349644
X00381476Y00345555
X00343154Y00352044
X0032766Y0035179
X00328168Y00329438
X00342646Y0032893
X00338168Y00286938
X00330668
X00323168
X0026416Y0029464
X00254
X00254254Y00264668
X00236982Y0023876
X00248158Y00212852
X00248242Y0020448
X00262056Y00204134
X00262128Y00212344
X00200406Y00208026
X0020066Y00219456
X00199807Y00230886
X00186182Y0023114
X00185928Y00219456
Y00208788
X00146812Y0021336
X0014605Y0024765
X0028067Y0032258
X0029464Y0035941
X00295148Y00375158
X003175Y00381
X003302Y0040005
X0035052Y0038862
X002794Y003937
X00427736Y002032
X0008763Y0021209
X00094996Y00271018
X0001905Y002667
X-0001905Y0014605
Y0001905
X0001905Y0052705
X-00025654Y0057277
X-00027178Y00649732
X0012065Y006223
X0014605Y005461
X00183896Y00540766
X0018415Y00552196
X00184404Y00564388
X00197358Y00563626
X00197612Y0055245
X00197866Y00540512
X001905Y0050165
X0013335Y004699
Y0041275
X001905Y004064
X0024765
X0031115Y004191
X003302
Y0043815
Y004572
X00315976Y00470154
X00298958Y00453898
X0031115Y0043815
X0029845Y004953
X00254Y005334
X00247904Y005461
X00257556Y00557784
X00236982Y005715
X0024257Y0060198
X005334Y006096
X00552704Y00641096
X005207Y0067945
X0059055Y0059055
X0064516Y0059436
X0070485Y0059055
X006985Y006477
X0073025Y0067945
X007875Y00675
X007975
X008175
Y006825
Y0061
Y006025
X007975Y006
X007875
X00895Y005925
X00870832Y00546617
X00870638Y0053848
X00871732Y00521683
X0087122Y0051308
X0088519Y0046355
X00879036Y00453844
X0088011Y0044069
X0055372Y0046228
X005334
X00957461Y00465698
X009652Y00462026
X0097327Y00466015
X00982218Y00462026
X0102489Y0047244
X0102997Y0046736
X01034021Y00440931
X01026127Y00423172
X0101092Y0040767
X00974344Y00411734
X00969264Y00407162
X00965454Y0041529
X00970534Y0042037
X00949198Y00426974
X0105664Y0041275
X01096382Y00435977
X0110236Y004445
X0109474Y0045212
X0108712Y0045974
X01077849Y00455027
X0110236Y0045974
X01074661Y00517131
X01011936Y00491236
X01010666Y00621538
X00990854Y00638048
X00985Y0066
X009975Y006775
X010225
X01035Y0066
X01030732Y00638556
X01062579Y00633222
X01075085
X01090071
X0107188Y00673
X01112266
X011557
X01191768Y00684784
X01248088Y00690571
X00946658Y00673
X00901954
X0094115Y006053
X0097663Y005969
X0143002Y00605028
X014732Y0056515
X01515618Y0050673
X01485648Y00413098
X0143002Y00438658
X013887Y00431909
X01382148Y0042415
X0137346Y0046493
Y0049033
X012967Y00746673
X0143002Y00769112
X01474724Y0086741
X01388653Y00909923
X01296924Y00867156
X00510595Y00817164
X002286Y0085725
X-000254Y008128
T02
X014097Y-00014
X014351
Y00014
X014097Y00014
Y001524
X014351
Y001804
X014097
Y003162
X014351
Y003442
X014097
Y004826
X014351Y004826
Y005106
X014097
Y006464
X014351
Y006744
X014097
Y008115
X014351
Y008395
X014097
T03
X0084074Y0028448
Y0030988
Y0033528
Y0036068
Y0038608
Y0041148
Y0043688
Y0046228
Y0048768
Y0051308
Y0053848
T04
X0078232Y00159004
X0080772
X0083312
X0085852
T05
X0002332Y0019586
Y0023086
X00059Y004703
Y005203
X0002332Y005921
Y006271
T06
X000635Y003086
Y003556
Y004026
T07
X0124587Y00339344
X012446Y00486664
T08
X00073001Y0000675
X00193001
Y0010675
X00073001
X00072898Y00719658
X00192898
Y00819658
X00072898
T09
X0061214Y0027813
Y0054483
M30
